<svg width="300" height="511" viewBox="0 0 300 511" fill="none" xmlns="http://www.w3.org/2000/svg">
<rect width="300" height="511" rx="4" fill="#EBEBEB"/>
<path d="M87.7734 183.617H83.7188V180.734H87.6094C89.3281 180.734 90.7188 180.492 91.7812 180.008C92.8438 179.523 93.6172 178.852 94.1016 177.992C94.5859 177.133 94.8281 176.141 94.8281 175.016C94.8281 173.938 94.5625 172.953 94.0312 172.062C93.5 171.156 92.6797 170.438 91.5703 169.906C90.4609 169.359 89.0312 169.086 87.2812 169.086C85.9688 169.086 84.7812 169.336 83.7188 169.836C82.6562 170.32 81.8125 171 81.1875 171.875C80.5625 172.734 80.25 173.727 80.25 174.852H75.7266C75.7266 173.398 76.0312 172.094 76.6406 170.938C77.25 169.766 78.0859 168.773 79.1484 167.961C80.2109 167.133 81.4375 166.5 82.8281 166.062C84.2344 165.625 85.7188 165.406 87.2812 165.406C89.1094 165.406 90.7656 165.617 92.25 166.039C93.7344 166.445 95.0078 167.055 96.0703 167.867C97.1328 168.68 97.9453 169.688 98.5078 170.891C99.0703 172.094 99.3516 173.492 99.3516 175.086C99.3516 176.258 99.0781 177.359 98.5312 178.391C97.9844 179.422 97.2031 180.328 96.1875 181.109C95.1719 181.891 93.9531 182.508 92.5312 182.961C91.1094 183.398 89.5234 183.617 87.7734 183.617ZM83.7188 181.625H87.7734C89.6953 181.625 91.4062 181.82 92.9062 182.211C94.4062 182.602 95.6719 183.172 96.7031 183.922C97.7344 184.672 98.5156 185.602 99.0469 186.711C99.5938 187.805 99.8672 189.062 99.8672 190.484C99.8672 192.078 99.5547 193.492 98.9297 194.727C98.3203 195.961 97.4531 197.008 96.3281 197.867C95.2031 198.727 93.8672 199.375 92.3203 199.812C90.7891 200.25 89.1094 200.469 87.2812 200.469C85.8125 200.469 84.3594 200.281 82.9219 199.906C81.5 199.516 80.2109 198.922 79.0547 198.125C77.8984 197.312 76.9688 196.281 76.2656 195.031C75.5781 193.781 75.2344 192.281 75.2344 190.531H79.7578C79.7578 191.672 80.0703 192.719 80.6953 193.672C81.3359 194.625 82.2188 195.391 83.3438 195.969C84.4688 196.531 85.7812 196.812 87.2812 196.812C89 196.812 90.4531 196.547 91.6406 196.016C92.8438 195.469 93.7578 194.727 94.3828 193.789C95.0234 192.836 95.3438 191.766 95.3438 190.578C95.3438 189.531 95.1719 188.625 94.8281 187.859C94.5 187.078 94.0078 186.438 93.3516 185.938C92.7109 185.438 91.9062 185.07 90.9375 184.836C89.9844 184.586 88.875 184.461 87.6094 184.461H83.7188V181.625ZM132.656 196.32V200H106.828V196.32H132.656ZM107.555 196.32V208.391H103.078L103.055 196.32H107.555ZM136.594 196.32L136.547 208.367H132.07V196.32H136.594ZM128.227 165.875V169.578H113.273V165.875H128.227ZM132.117 165.875V200H127.617V165.875H132.117ZM111.727 165.875H116.25L115.547 179.609C115.453 181.672 115.258 183.578 114.961 185.328C114.664 187.062 114.297 188.648 113.859 190.086C113.422 191.523 112.922 192.812 112.359 193.953C111.797 195.078 111.195 196.055 110.555 196.883C109.914 197.695 109.242 198.367 108.539 198.898C107.852 199.414 107.156 199.781 106.453 200H104.391V196.32H105.844C106.25 195.883 106.711 195.25 107.227 194.422C107.758 193.594 108.281 192.523 108.797 191.211C109.328 189.883 109.789 188.266 110.18 186.359C110.586 184.453 110.859 182.203 111 179.609L111.727 165.875ZM163.594 196.32V200H145.523V196.32H163.594ZM146.438 165.875V200H141.914V165.875H146.438ZM161.203 180.547V184.227H145.523V180.547H161.203ZM163.359 165.875V169.578H145.523V165.875H163.359ZM189.797 189.148H194.297C194.062 191.305 193.445 193.234 192.445 194.938C191.445 196.641 190.031 197.992 188.203 198.992C186.375 199.977 184.094 200.469 181.359 200.469C179.359 200.469 177.539 200.094 175.898 199.344C174.273 198.594 172.875 197.531 171.703 196.156C170.531 194.766 169.625 193.102 168.984 191.164C168.359 189.211 168.047 187.039 168.047 184.648V181.25C168.047 178.859 168.359 176.695 168.984 174.758C169.625 172.805 170.539 171.133 171.727 169.742C172.93 168.352 174.375 167.281 176.062 166.531C177.75 165.781 179.648 165.406 181.758 165.406C184.336 165.406 186.516 165.891 188.297 166.859C190.078 167.828 191.461 169.172 192.445 170.891C193.445 172.594 194.062 174.57 194.297 176.82H189.797C189.578 175.227 189.172 173.859 188.578 172.719C187.984 171.562 187.141 170.672 186.047 170.047C184.953 169.422 183.523 169.109 181.758 169.109C180.242 169.109 178.906 169.398 177.75 169.977C176.609 170.555 175.648 171.375 174.867 172.438C174.102 173.5 173.523 174.773 173.133 176.258C172.742 177.742 172.547 179.391 172.547 181.203V184.648C172.547 186.32 172.719 187.891 173.062 189.359C173.422 190.828 173.961 192.117 174.68 193.227C175.398 194.336 176.312 195.211 177.422 195.852C178.531 196.477 179.844 196.789 181.359 196.789C183.281 196.789 184.812 196.484 185.953 195.875C187.094 195.266 187.953 194.391 188.531 193.25C189.125 192.109 189.547 190.742 189.797 189.148ZM203.766 179.773H213.07C215.57 179.773 217.68 180.195 219.398 181.039C221.117 181.867 222.422 183.031 223.312 184.531C224.203 186.031 224.648 187.789 224.648 189.805C224.648 191.305 224.398 192.68 223.898 193.93C223.398 195.164 222.656 196.242 221.672 197.164C220.688 198.07 219.477 198.773 218.039 199.273C216.602 199.758 214.945 200 213.07 200H200.32V165.875H204.844V196.32H213.07C214.742 196.32 216.094 196.016 217.125 195.406C218.172 194.781 218.938 193.969 219.422 192.969C219.906 191.969 220.148 190.898 220.148 189.758C220.148 188.617 219.906 187.57 219.422 186.617C218.938 185.664 218.172 184.906 217.125 184.344C216.094 183.766 214.742 183.477 213.07 183.477H203.766V179.773ZM72.9844 213.875H77.3672L88.5469 241.695L99.7031 213.875H104.109L90.2344 248H86.8125L72.9844 213.875ZM71.5547 213.875H75.4219L76.0547 234.688V248H71.5547V213.875ZM101.648 213.875H105.516V248H101.016V234.688L101.648 213.875ZM139.734 229.859V232.016C139.734 234.578 139.414 236.875 138.773 238.906C138.133 240.938 137.211 242.664 136.008 244.086C134.805 245.508 133.359 246.594 131.672 247.344C130 248.094 128.125 248.469 126.047 248.469C124.031 248.469 122.18 248.094 120.492 247.344C118.82 246.594 117.367 245.508 116.133 244.086C114.914 242.664 113.969 240.938 113.297 238.906C112.625 236.875 112.289 234.578 112.289 232.016V229.859C112.289 227.297 112.617 225.008 113.273 222.992C113.945 220.961 114.891 219.234 116.109 217.812C117.328 216.375 118.773 215.281 120.445 214.531C122.133 213.781 123.984 213.406 126 213.406C128.078 213.406 129.953 213.781 131.625 214.531C133.312 215.281 134.758 216.375 135.961 217.812C137.18 219.234 138.109 220.961 138.75 222.992C139.406 225.008 139.734 227.297 139.734 229.859ZM135.258 232.016V229.812C135.258 227.781 135.047 225.984 134.625 224.422C134.219 222.859 133.617 221.547 132.82 220.484C132.023 219.422 131.047 218.617 129.891 218.07C128.75 217.523 127.453 217.25 126 217.25C124.594 217.25 123.32 217.523 122.18 218.07C121.055 218.617 120.086 219.422 119.273 220.484C118.477 221.547 117.859 222.859 117.422 224.422C116.984 225.984 116.766 227.781 116.766 229.812V232.016C116.766 234.062 116.984 235.875 117.422 237.453C117.859 239.016 118.484 240.336 119.297 241.414C120.125 242.477 121.102 243.281 122.227 243.828C123.367 244.375 124.641 244.648 126.047 244.648C127.516 244.648 128.82 244.375 129.961 243.828C131.102 243.281 132.062 242.477 132.844 241.414C133.641 240.336 134.242 239.016 134.648 237.453C135.055 235.875 135.258 234.062 135.258 232.016ZM167.672 213.875V217.578H151.219V248H146.719V213.875H167.672ZM192.586 213.875V217.578H176.977V213.875H192.586ZM196.477 213.875V248H191.953V213.875H196.477ZM175.43 213.875H179.93L179.156 230.586C179.047 232.992 178.859 235.141 178.594 237.031C178.344 238.906 177.984 240.539 177.516 241.93C177.047 243.305 176.438 244.445 175.688 245.352C174.938 246.242 174.016 246.906 172.922 247.344C171.844 247.781 170.547 248 169.031 248H167.812V244.32L168.75 244.25C169.625 244.188 170.375 243.992 171 243.664C171.641 243.32 172.18 242.805 172.617 242.117C173.07 241.43 173.438 240.539 173.719 239.445C174 238.352 174.219 237.016 174.375 235.438C174.547 233.844 174.68 231.984 174.773 229.859L175.43 213.875ZM217.688 216.898L206.391 248H201.773L214.781 213.875H217.758L217.688 216.898ZM227.156 248L215.836 216.898L215.766 213.875H218.742L231.797 248H227.156ZM226.57 235.367V239.07H207.398V235.367H226.57ZM34.6172 261.875V265.578H18.1641V296H13.6641V261.875H34.6172ZM17.1094 275.773H26.4141C28.9141 275.773 31.0234 276.195 32.7422 277.039C34.4609 277.867 35.7656 279.031 36.6562 280.531C37.5469 282.031 37.9922 283.789 37.9922 285.805C37.9922 287.305 37.7422 288.68 37.2422 289.93C36.7422 291.164 36 292.242 35.0156 293.164C34.0312 294.07 32.8203 294.773 31.3828 295.273C29.9453 295.758 28.2891 296 26.4141 296H13.6641V261.875H18.1875V292.32H26.4141C28.0859 292.32 29.4375 292.016 30.4688 291.406C31.5156 290.781 32.2812 289.969 32.7656 288.969C33.25 287.969 33.4922 286.898 33.4922 285.758C33.4922 284.617 33.25 283.57 32.7656 282.617C32.2812 281.664 31.5156 280.906 30.4688 280.344C29.4375 279.766 28.0859 279.477 26.4141 279.477H17.1094V275.773ZM47.7422 275.773H57.0469C59.5469 275.773 61.6562 276.195 63.375 277.039C65.0938 277.867 66.3984 279.031 67.2891 280.531C68.1797 282.031 68.625 283.789 68.625 285.805C68.625 287.305 68.375 288.68 67.875 289.93C67.375 291.164 66.6328 292.242 65.6484 293.164C64.6641 294.07 63.4531 294.773 62.0156 295.273C60.5781 295.758 58.9219 296 57.0469 296H44.2969V261.875H48.8203V292.32H57.0469C58.7188 292.32 60.0703 292.016 61.1016 291.406C62.1484 290.781 62.9141 289.969 63.3984 288.969C63.8828 287.969 64.125 286.898 64.125 285.758C64.125 284.617 63.8828 283.57 63.3984 282.617C62.9141 281.664 62.1484 280.906 61.1016 280.344C60.0703 279.766 58.7188 279.477 57.0469 279.477H47.7422V275.773ZM77.2734 261.875V296H72.75V261.875H77.2734ZM97.5234 261.875V296H93.0703V261.875H97.5234ZM108.492 261.875V265.578H82.125V261.875H108.492ZM117.234 275.773H126.539C129.039 275.773 131.148 276.195 132.867 277.039C134.586 277.867 135.891 279.031 136.781 280.531C137.672 282.031 138.117 283.789 138.117 285.805C138.117 287.305 137.867 288.68 137.367 289.93C136.867 291.164 136.125 292.242 135.141 293.164C134.156 294.07 132.945 294.773 131.508 295.273C130.07 295.758 128.414 296 126.539 296H113.789V261.875H118.312V292.32H126.539C128.211 292.32 129.562 292.016 130.594 291.406C131.641 290.781 132.406 289.969 132.891 288.969C133.375 287.969 133.617 286.898 133.617 285.758C133.617 284.617 133.375 283.57 132.891 282.617C132.406 281.664 131.641 280.906 130.594 280.344C129.562 279.766 128.211 279.477 126.539 279.477H117.234V275.773ZM168.141 280.039H159.492L159.445 276.406H167.297C168.594 276.406 169.727 276.188 170.695 275.75C171.664 275.312 172.414 274.688 172.945 273.875C173.492 273.047 173.766 272.062 173.766 270.922C173.766 269.672 173.523 268.656 173.039 267.875C172.57 267.078 171.844 266.5 170.859 266.141C169.891 265.766 168.656 265.578 167.156 265.578H160.5V296H155.977V261.875H167.156C168.906 261.875 170.469 262.055 171.844 262.414C173.219 262.758 174.383 263.305 175.336 264.055C176.305 264.789 177.039 265.727 177.539 266.867C178.039 268.008 178.289 269.375 178.289 270.969C178.289 272.375 177.93 273.648 177.211 274.789C176.492 275.914 175.492 276.836 174.211 277.555C172.945 278.273 171.461 278.734 169.758 278.938L168.141 280.039ZM167.93 296H157.711L160.266 292.32H167.93C169.367 292.32 170.586 292.07 171.586 291.57C172.602 291.07 173.375 290.367 173.906 289.461C174.438 288.539 174.703 287.453 174.703 286.203C174.703 284.938 174.477 283.844 174.023 282.922C173.57 282 172.859 281.289 171.891 280.789C170.922 280.289 169.672 280.039 168.141 280.039H161.695L161.742 276.406H170.555L171.516 277.719C173.156 277.859 174.547 278.328 175.688 279.125C176.828 279.906 177.695 280.906 178.289 282.125C178.898 283.344 179.203 284.688 179.203 286.156C179.203 288.281 178.734 290.078 177.797 291.547C176.875 293 175.57 294.109 173.883 294.875C172.195 295.625 170.211 296 167.93 296ZM198.516 264.898L187.219 296H182.602L195.609 261.875H198.586L198.516 264.898ZM207.984 296L196.664 264.898L196.594 261.875H199.57L212.625 296H207.984ZM207.398 283.367V287.07H188.227V283.367H207.398ZM217.359 261.875H221.906V292.32H233.625V261.875H238.125V292.32H249.773V261.875H254.297V296H217.359V261.875ZM275.438 264.898L264.141 296H259.523L272.531 261.875H275.508L275.438 264.898ZM284.906 296L273.586 264.898L273.516 261.875H276.492L289.547 296H284.906ZM284.32 283.367V287.07H265.148V283.367H284.32ZM52.6641 330.617H43.5469V326.938H52.6641C54.4297 326.938 55.8594 326.656 56.9531 326.094C58.0469 325.531 58.8438 324.75 59.3438 323.75C59.8594 322.75 60.1172 321.609 60.1172 320.328C60.1172 319.156 59.8594 318.055 59.3438 317.023C58.8438 315.992 58.0469 315.164 56.9531 314.539C55.8594 313.898 54.4297 313.578 52.6641 313.578H44.6016V344H40.0781V309.875H52.6641C55.2422 309.875 57.4219 310.32 59.2031 311.211C60.9844 312.102 62.3359 313.336 63.2578 314.914C64.1797 316.477 64.6406 318.266 64.6406 320.281C64.6406 322.469 64.1797 324.336 63.2578 325.883C62.3359 327.43 60.9844 328.609 59.2031 329.422C57.4219 330.219 55.2422 330.617 52.6641 330.617ZM92.0391 340.32V344H73.9688V340.32H92.0391ZM74.8828 309.875V344H70.3594V309.875H74.8828ZM89.6484 324.547V328.227H73.9688V324.547H89.6484ZM91.8047 309.875V313.578H73.9688V309.875H91.8047ZM102.375 309.875V344H97.8516V309.875H102.375ZM123.398 309.875L108.586 328.648H100.57L99.8672 324.898H105.891L117.797 309.875H123.398ZM118.852 344L106.031 328.062L108.562 324.102L124.383 344H118.852ZM150.422 309.875V313.578H134.812V309.875H150.422ZM154.312 309.875V344H149.789V309.875H154.312ZM133.266 309.875H137.766L136.992 326.586C136.883 328.992 136.695 331.141 136.43 333.031C136.18 334.906 135.82 336.539 135.352 337.93C134.883 339.305 134.273 340.445 133.523 341.352C132.773 342.242 131.852 342.906 130.758 343.344C129.68 343.781 128.383 344 126.867 344H125.648V340.32L126.586 340.25C127.461 340.188 128.211 339.992 128.836 339.664C129.477 339.32 130.016 338.805 130.453 338.117C130.906 337.43 131.273 336.539 131.555 335.445C131.836 334.352 132.055 333.016 132.211 331.438C132.383 329.844 132.516 327.984 132.609 325.859L133.266 309.875ZM175.523 312.898L164.227 344H159.609L172.617 309.875H175.594L175.523 312.898ZM184.992 344L173.672 312.898L173.602 309.875H176.578L189.633 344H184.992ZM184.406 331.367V335.07H165.234V331.367H184.406ZM195.633 309.875H200.016L211.195 337.695L222.352 309.875H226.758L212.883 344H209.461L195.633 309.875ZM194.203 309.875H198.07L198.703 330.688V344H194.203V309.875ZM224.297 309.875H228.164V344H223.664V330.688L224.297 309.875ZM249.164 312.898L237.867 344H233.25L246.258 309.875H249.234L249.164 312.898ZM258.633 344L247.312 312.898L247.242 309.875H250.219L263.273 344H258.633ZM258.047 331.367V335.07H238.875V331.367H258.047Z" fill="black"/>
</svg>
