<svg width="1164" height="143" viewBox="0 0 1164 143" fill="none" xmlns="http://www.w3.org/2000/svg">
<rect width="1164" height="143" fill="#EBEBEB"/>
<path d="M168.414 70.6172H164.359V67.7344H168.25C169.969 67.7344 171.359 67.4922 172.422 67.0078C173.484 66.5234 174.258 65.8516 174.742 64.9922C175.227 64.1328 175.469 63.1406 175.469 62.0156C175.469 60.9375 175.203 59.9531 174.672 59.0625C174.141 58.1562 173.32 57.4375 172.211 56.9062C171.102 56.3594 169.672 56.0859 167.922 56.0859C166.609 56.0859 165.422 56.3359 164.359 56.8359C163.297 57.3203 162.453 58 161.828 58.875C161.203 59.7344 160.891 60.7266 160.891 61.8516H156.367C156.367 60.3984 156.672 59.0938 157.281 57.9375C157.891 56.7656 158.727 55.7734 159.789 54.9609C160.852 54.1328 162.078 53.5 163.469 53.0625C164.875 52.625 166.359 52.4062 167.922 52.4062C169.75 52.4062 171.406 52.6172 172.891 53.0391C174.375 53.4453 175.648 54.0547 176.711 54.8672C177.773 55.6797 178.586 56.6875 179.148 57.8906C179.711 59.0938 179.992 60.4922 179.992 62.0859C179.992 63.2578 179.719 64.3594 179.172 65.3906C178.625 66.4219 177.844 67.3281 176.828 68.1094C175.812 68.8906 174.594 69.5078 173.172 69.9609C171.75 70.3984 170.164 70.6172 168.414 70.6172ZM164.359 68.625H168.414C170.336 68.625 172.047 68.8203 173.547 69.2109C175.047 69.6016 176.312 70.1719 177.344 70.9219C178.375 71.6719 179.156 72.6016 179.688 73.7109C180.234 74.8047 180.508 76.0625 180.508 77.4844C180.508 79.0781 180.195 80.4922 179.57 81.7266C178.961 82.9609 178.094 84.0078 176.969 84.8672C175.844 85.7266 174.508 86.375 172.961 86.8125C171.43 87.25 169.75 87.4688 167.922 87.4688C166.453 87.4688 165 87.2812 163.562 86.9062C162.141 86.5156 160.852 85.9219 159.695 85.125C158.539 84.3125 157.609 83.2812 156.906 82.0312C156.219 80.7812 155.875 79.2812 155.875 77.5312H160.398C160.398 78.6719 160.711 79.7188 161.336 80.6719C161.977 81.625 162.859 82.3906 163.984 82.9688C165.109 83.5312 166.422 83.8125 167.922 83.8125C169.641 83.8125 171.094 83.5469 172.281 83.0156C173.484 82.4688 174.398 81.7266 175.023 80.7891C175.664 79.8359 175.984 78.7656 175.984 77.5781C175.984 76.5312 175.812 75.625 175.469 74.8594C175.141 74.0781 174.648 73.4375 173.992 72.9375C173.352 72.4375 172.547 72.0703 171.578 71.8359C170.625 71.5859 169.516 71.4609 168.25 71.4609H164.359V68.625ZM213.297 83.3203V87H187.469V83.3203H213.297ZM188.195 83.3203V95.3906H183.719L183.695 83.3203H188.195ZM217.234 83.3203L217.188 95.3672H212.711V83.3203H217.234ZM208.867 52.875V56.5781H193.914V52.875H208.867ZM212.758 52.875V87H208.258V52.875H212.758ZM192.367 52.875H196.891L196.188 66.6094C196.094 68.6719 195.898 70.5781 195.602 72.3281C195.305 74.0625 194.938 75.6484 194.5 77.0859C194.062 78.5234 193.562 79.8125 193 80.9531C192.438 82.0781 191.836 83.0547 191.195 83.8828C190.555 84.6953 189.883 85.3672 189.18 85.8984C188.492 86.4141 187.797 86.7812 187.094 87H185.031V83.3203H186.484C186.891 82.8828 187.352 82.25 187.867 81.4219C188.398 80.5938 188.922 79.5234 189.438 78.2109C189.969 76.8828 190.43 75.2656 190.82 73.3594C191.227 71.4531 191.5 69.2031 191.641 66.6094L192.367 52.875ZM244.234 83.3203V87H226.164V83.3203H244.234ZM227.078 52.875V87H222.555V52.875H227.078ZM241.844 67.5469V71.2266H226.164V67.5469H241.844ZM244 52.875V56.5781H226.164V52.875H244ZM270.438 76.1484H274.938C274.703 78.3047 274.086 80.2344 273.086 81.9375C272.086 83.6406 270.672 84.9922 268.844 85.9922C267.016 86.9766 264.734 87.4688 262 87.4688C260 87.4688 258.18 87.0938 256.539 86.3438C254.914 85.5938 253.516 84.5312 252.344 83.1562C251.172 81.7656 250.266 80.1016 249.625 78.1641C249 76.2109 248.688 74.0391 248.688 71.6484V68.25C248.688 65.8594 249 63.6953 249.625 61.7578C250.266 59.8047 251.18 58.1328 252.367 56.7422C253.57 55.3516 255.016 54.2812 256.703 53.5312C258.391 52.7812 260.289 52.4062 262.398 52.4062C264.977 52.4062 267.156 52.8906 268.938 53.8594C270.719 54.8281 272.102 56.1719 273.086 57.8906C274.086 59.5938 274.703 61.5703 274.938 63.8203H270.438C270.219 62.2266 269.812 60.8594 269.219 59.7188C268.625 58.5625 267.781 57.6719 266.688 57.0469C265.594 56.4219 264.164 56.1094 262.398 56.1094C260.883 56.1094 259.547 56.3984 258.391 56.9766C257.25 57.5547 256.289 58.375 255.508 59.4375C254.742 60.5 254.164 61.7734 253.773 63.2578C253.383 64.7422 253.188 66.3906 253.188 68.2031V71.6484C253.188 73.3203 253.359 74.8906 253.703 76.3594C254.062 77.8281 254.602 79.1172 255.32 80.2266C256.039 81.3359 256.953 82.2109 258.062 82.8516C259.172 83.4766 260.484 83.7891 262 83.7891C263.922 83.7891 265.453 83.4844 266.594 82.875C267.734 82.2656 268.594 81.3906 269.172 80.25C269.766 79.1094 270.188 77.7422 270.438 76.1484ZM284.406 66.7734H293.711C296.211 66.7734 298.32 67.1953 300.039 68.0391C301.758 68.8672 303.062 70.0312 303.953 71.5312C304.844 73.0312 305.289 74.7891 305.289 76.8047C305.289 78.3047 305.039 79.6797 304.539 80.9297C304.039 82.1641 303.297 83.2422 302.312 84.1641C301.328 85.0703 300.117 85.7734 298.68 86.2734C297.242 86.7578 295.586 87 293.711 87H280.961V52.875H285.484V83.3203H293.711C295.383 83.3203 296.734 83.0156 297.766 82.4062C298.812 81.7812 299.578 80.9688 300.062 79.9688C300.547 78.9688 300.789 77.8984 300.789 76.7578C300.789 75.6172 300.547 74.5703 300.062 73.6172C299.578 72.6641 298.812 71.9062 297.766 71.3438C296.734 70.7656 295.383 70.4766 293.711 70.4766H284.406V66.7734ZM324.578 52.875H328.961L340.141 80.6953L351.297 52.875H355.703L341.828 87H338.406L324.578 52.875ZM323.148 52.875H327.016L327.648 73.6875V87H323.148V52.875ZM353.242 52.875H357.109V87H352.609V73.6875L353.242 52.875ZM391.328 68.8594V71.0156C391.328 73.5781 391.008 75.875 390.367 77.9062C389.727 79.9375 388.805 81.6641 387.602 83.0859C386.398 84.5078 384.953 85.5938 383.266 86.3438C381.594 87.0938 379.719 87.4688 377.641 87.4688C375.625 87.4688 373.773 87.0938 372.086 86.3438C370.414 85.5938 368.961 84.5078 367.727 83.0859C366.508 81.6641 365.562 79.9375 364.891 77.9062C364.219 75.875 363.883 73.5781 363.883 71.0156V68.8594C363.883 66.2969 364.211 64.0078 364.867 61.9922C365.539 59.9609 366.484 58.2344 367.703 56.8125C368.922 55.375 370.367 54.2812 372.039 53.5312C373.727 52.7812 375.578 52.4062 377.594 52.4062C379.672 52.4062 381.547 52.7812 383.219 53.5312C384.906 54.2812 386.352 55.375 387.555 56.8125C388.773 58.2344 389.703 59.9609 390.344 61.9922C391 64.0078 391.328 66.2969 391.328 68.8594ZM386.852 71.0156V68.8125C386.852 66.7812 386.641 64.9844 386.219 63.4219C385.812 61.8594 385.211 60.5469 384.414 59.4844C383.617 58.4219 382.641 57.6172 381.484 57.0703C380.344 56.5234 379.047 56.25 377.594 56.25C376.188 56.25 374.914 56.5234 373.773 57.0703C372.648 57.6172 371.68 58.4219 370.867 59.4844C370.07 60.5469 369.453 61.8594 369.016 63.4219C368.578 64.9844 368.359 66.7812 368.359 68.8125V71.0156C368.359 73.0625 368.578 74.875 369.016 76.4531C369.453 78.0156 370.078 79.3359 370.891 80.4141C371.719 81.4766 372.695 82.2812 373.82 82.8281C374.961 83.375 376.234 83.6484 377.641 83.6484C379.109 83.6484 380.414 83.375 381.555 82.8281C382.695 82.2812 383.656 81.4766 384.438 80.4141C385.234 79.3359 385.836 78.0156 386.242 76.4531C386.648 74.875 386.852 73.0625 386.852 71.0156ZM419.266 52.875V56.5781H402.812V87H398.312V52.875H419.266ZM444.18 52.875V56.5781H428.57V52.875H444.18ZM448.07 52.875V87H443.547V52.875H448.07ZM427.023 52.875H431.523L430.75 69.5859C430.641 71.9922 430.453 74.1406 430.188 76.0312C429.938 77.9062 429.578 79.5391 429.109 80.9297C428.641 82.3047 428.031 83.4453 427.281 84.3516C426.531 85.2422 425.609 85.9062 424.516 86.3438C423.438 86.7812 422.141 87 420.625 87H419.406V83.3203L420.344 83.25C421.219 83.1875 421.969 82.9922 422.594 82.6641C423.234 82.3203 423.773 81.8047 424.211 81.1172C424.664 80.4297 425.031 79.5391 425.312 78.4453C425.594 77.3516 425.812 76.0156 425.969 74.4375C426.141 72.8438 426.273 70.9844 426.367 68.8594L427.023 52.875ZM469.281 55.8984L457.984 87H453.367L466.375 52.875H469.352L469.281 55.8984ZM478.75 87L467.43 55.8984L467.359 52.875H470.336L483.391 87H478.75ZM478.164 74.3672V78.0703H458.992V74.3672H478.164ZM520.68 52.875V56.5781H504.227V87H499.727V52.875H520.68ZM503.172 66.7734H512.477C514.977 66.7734 517.086 67.1953 518.805 68.0391C520.523 68.8672 521.828 70.0312 522.719 71.5312C523.609 73.0312 524.055 74.7891 524.055 76.8047C524.055 78.3047 523.805 79.6797 523.305 80.9297C522.805 82.1641 522.062 83.2422 521.078 84.1641C520.094 85.0703 518.883 85.7734 517.445 86.2734C516.008 86.7578 514.352 87 512.477 87H499.727V52.875H504.25V83.3203H512.477C514.148 83.3203 515.5 83.0156 516.531 82.4062C517.578 81.7812 518.344 80.9688 518.828 79.9688C519.312 78.9688 519.555 77.8984 519.555 76.7578C519.555 75.6172 519.312 74.5703 518.828 73.6172C518.344 72.6641 517.578 71.9062 516.531 71.3438C515.5 70.7656 514.148 70.4766 512.477 70.4766H503.172V66.7734ZM533.805 66.7734H543.109C545.609 66.7734 547.719 67.1953 549.438 68.0391C551.156 68.8672 552.461 70.0312 553.352 71.5312C554.242 73.0312 554.688 74.7891 554.688 76.8047C554.688 78.3047 554.438 79.6797 553.938 80.9297C553.438 82.1641 552.695 83.2422 551.711 84.1641C550.727 85.0703 549.516 85.7734 548.078 86.2734C546.641 86.7578 544.984 87 543.109 87H530.359V52.875H534.883V83.3203H543.109C544.781 83.3203 546.133 83.0156 547.164 82.4062C548.211 81.7812 548.977 80.9688 549.461 79.9688C549.945 78.9688 550.188 77.8984 550.188 76.7578C550.188 75.6172 549.945 74.5703 549.461 73.6172C548.977 72.6641 548.211 71.9062 547.164 71.3438C546.133 70.7656 544.781 70.4766 543.109 70.4766H533.805V66.7734ZM563.336 52.875V87H558.812V52.875H563.336ZM583.586 52.875V87H579.133V52.875H583.586ZM594.555 52.875V56.5781H568.188V52.875H594.555ZM603.297 66.7734H612.602C615.102 66.7734 617.211 67.1953 618.93 68.0391C620.648 68.8672 621.953 70.0312 622.844 71.5312C623.734 73.0312 624.18 74.7891 624.18 76.8047C624.18 78.3047 623.93 79.6797 623.43 80.9297C622.93 82.1641 622.188 83.2422 621.203 84.1641C620.219 85.0703 619.008 85.7734 617.57 86.2734C616.133 86.7578 614.477 87 612.602 87H599.852V52.875H604.375V83.3203H612.602C614.273 83.3203 615.625 83.0156 616.656 82.4062C617.703 81.7812 618.469 80.9688 618.953 79.9688C619.438 78.9688 619.68 77.8984 619.68 76.7578C619.68 75.6172 619.438 74.5703 618.953 73.6172C618.469 72.6641 617.703 71.9062 616.656 71.3438C615.625 70.7656 614.273 70.4766 612.602 70.4766H603.297V66.7734ZM654.203 71.0391H645.555L645.508 67.4062H653.359C654.656 67.4062 655.789 67.1875 656.758 66.75C657.727 66.3125 658.477 65.6875 659.008 64.875C659.555 64.0469 659.828 63.0625 659.828 61.9219C659.828 60.6719 659.586 59.6562 659.102 58.875C658.633 58.0781 657.906 57.5 656.922 57.1406C655.953 56.7656 654.719 56.5781 653.219 56.5781H646.562V87H642.039V52.875H653.219C654.969 52.875 656.531 53.0547 657.906 53.4141C659.281 53.7578 660.445 54.3047 661.398 55.0547C662.367 55.7891 663.102 56.7266 663.602 57.8672C664.102 59.0078 664.352 60.375 664.352 61.9688C664.352 63.375 663.992 64.6484 663.273 65.7891C662.555 66.9141 661.555 67.8359 660.273 68.5547C659.008 69.2734 657.523 69.7344 655.82 69.9375L654.203 71.0391ZM653.992 87H643.773L646.328 83.3203H653.992C655.43 83.3203 656.648 83.0703 657.648 82.5703C658.664 82.0703 659.438 81.3672 659.969 80.4609C660.5 79.5391 660.766 78.4531 660.766 77.2031C660.766 75.9375 660.539 74.8438 660.086 73.9219C659.633 73 658.922 72.2891 657.953 71.7891C656.984 71.2891 655.734 71.0391 654.203 71.0391H647.758L647.805 67.4062H656.617L657.578 68.7188C659.219 68.8594 660.609 69.3281 661.75 70.125C662.891 70.9062 663.758 71.9062 664.352 73.125C664.961 74.3438 665.266 75.6875 665.266 77.1562C665.266 79.2812 664.797 81.0781 663.859 82.5469C662.938 84 661.633 85.1094 659.945 85.875C658.258 86.625 656.273 87 653.992 87ZM684.578 55.8984L673.281 87H668.664L681.672 52.875H684.648L684.578 55.8984ZM694.047 87L682.727 55.8984L682.656 52.875H685.633L698.688 87H694.047ZM693.461 74.3672V78.0703H674.289V74.3672H693.461ZM703.422 52.875H707.969V83.3203H719.688V52.875H724.188V83.3203H735.836V52.875H740.359V87H703.422V52.875ZM761.5 55.8984L750.203 87H745.586L758.594 52.875H761.57L761.5 55.8984ZM770.969 87L759.648 55.8984L759.578 52.875H762.555L775.609 87H770.969ZM770.383 74.3672V78.0703H751.211V74.3672H770.383ZM804.672 73.6172H795.555V69.9375H804.672C806.438 69.9375 807.867 69.6562 808.961 69.0938C810.055 68.5312 810.852 67.75 811.352 66.75C811.867 65.75 812.125 64.6094 812.125 63.3281C812.125 62.1562 811.867 61.0547 811.352 60.0234C810.852 58.9922 810.055 58.1641 808.961 57.5391C807.867 56.8984 806.438 56.5781 804.672 56.5781H796.609V87H792.086V52.875H804.672C807.25 52.875 809.43 53.3203 811.211 54.2109C812.992 55.1016 814.344 56.3359 815.266 57.9141C816.188 59.4766 816.648 61.2656 816.648 63.2812C816.648 65.4688 816.188 67.3359 815.266 68.8828C814.344 70.4297 812.992 71.6094 811.211 72.4219C809.43 73.2188 807.25 73.6172 804.672 73.6172ZM844.047 83.3203V87H825.977V83.3203H844.047ZM826.891 52.875V87H822.367V52.875H826.891ZM841.656 67.5469V71.2266H825.977V67.5469H841.656ZM843.812 52.875V56.5781H825.977V52.875H843.812ZM854.383 52.875V87H849.859V52.875H854.383ZM875.406 52.875L860.594 71.6484H852.578L851.875 67.8984H857.898L869.805 52.875H875.406ZM870.859 87L858.039 71.0625L860.57 67.1016L876.391 87H870.859ZM902.43 52.875V56.5781H886.82V52.875H902.43ZM906.32 52.875V87H901.797V52.875H906.32ZM885.273 52.875H889.773L889 69.5859C888.891 71.9922 888.703 74.1406 888.438 76.0312C888.188 77.9062 887.828 79.5391 887.359 80.9297C886.891 82.3047 886.281 83.4453 885.531 84.3516C884.781 85.2422 883.859 85.9062 882.766 86.3438C881.688 86.7812 880.391 87 878.875 87H877.656V83.3203L878.594 83.25C879.469 83.1875 880.219 82.9922 880.844 82.6641C881.484 82.3203 882.023 81.8047 882.461 81.1172C882.914 80.4297 883.281 79.5391 883.562 78.4453C883.844 77.3516 884.062 76.0156 884.219 74.4375C884.391 72.8438 884.523 70.9844 884.617 68.8594L885.273 52.875ZM927.531 55.8984L916.234 87H911.617L924.625 52.875H927.602L927.531 55.8984ZM937 87L925.68 55.8984L925.609 52.875H928.586L941.641 87H937ZM936.414 74.3672V78.0703H917.242V74.3672H936.414ZM947.641 52.875H952.023L963.203 80.6953L974.359 52.875H978.766L964.891 87H961.469L947.641 52.875ZM946.211 52.875H950.078L950.711 73.6875V87H946.211V52.875ZM976.305 52.875H980.172V87H975.672V73.6875L976.305 52.875ZM1001.17 55.8984L989.875 87H985.258L998.266 52.875H1001.24L1001.17 55.8984ZM1010.64 87L999.32 55.8984L999.25 52.875H1002.23L1015.28 87H1010.64ZM1010.05 74.3672V78.0703H990.883V74.3672H1010.05Z" fill="black"/>
</svg>
