<?xml version="1.0" encoding="UTF-8" standalone="no"?>
<svg
   xmlns:dc="http://purl.org/dc/elements/1.1/"
   xmlns:cc="http://creativecommons.org/ns#"
   xmlns:rdf="http://www.w3.org/1999/02/22-rdf-syntax-ns#"
   xmlns:svg="http://www.w3.org/2000/svg"
   xmlns="http://www.w3.org/2000/svg"
   viewBox="0 0 633.33331 268"
   height="268"
   width="633.33331"
   xml:space="preserve"
   id="svg2"
   version="1.1"><metadata
     id="metadata8"><rdf:RDF><cc:Work
         rdf:about=""><dc:format>image/svg+xml</dc:format><dc:type
           rdf:resource="http://purl.org/dc/dcmitype/StillImage" /></cc:Work></rdf:RDF></metadata><defs
     id="defs6"><clipPath
       id="clipPath20"
       clipPathUnits="userSpaceOnUse"><path
         style="clip-rule:evenodd"
         id="path18"
         d="m 1514.66,1746.44 h 884.01 l -442.01,255.24 z" /></clipPath><linearGradient
       id="linearGradient28"
       spreadMethod="pad"
       gradientTransform="matrix(10,0,0,10,-290,-4270)"
       gradientUnits="userSpaceOnUse"
       y2="424.83899"
       x2="268.87399"
       y1="424.83899"
       x1="180.472"><stop
         id="stop22"
         offset="0"
         style="stop-opacity:1;stop-color:#6f110f" /><stop
         id="stop24"
         offset="0.5"
         style="stop-opacity:1;stop-color:#e31f25" /><stop
         id="stop26"
         offset="1"
         style="stop-opacity:1;stop-color:#f19978" /></linearGradient><clipPath
       id="clipPath38"
       clipPathUnits="userSpaceOnUse"><path
         style="clip-rule:evenodd"
         id="path36"
         d="M 1514.66,1746.43 V 1236.15 L 1956.64,980.836 Z" /></clipPath><linearGradient
       id="linearGradient46"
       spreadMethod="pad"
       gradientTransform="matrix(10,0,0,10,-290,-4270)"
       gradientUnits="userSpaceOnUse"
       y2="709.19299"
       x2="366.71701"
       y1="632.638"
       x1="410.91599"><stop
         id="stop40"
         offset="0"
         style="stop-opacity:1;stop-color:#6f110f" /><stop
         id="stop42"
         offset="0.5"
         style="stop-opacity:1;stop-color:#e31f25" /><stop
         id="stop44"
         offset="1"
         style="stop-opacity:1;stop-color:#f19978" /></linearGradient><clipPath
       id="clipPath56"
       clipPathUnits="userSpaceOnUse"><path
         style="clip-rule:evenodd"
         id="path54"
         d="m 1956.66,980.824 442.01,255.156 v 510.45 z" /></clipPath><linearGradient
       id="linearGradient64"
       spreadMethod="pad"
       gradientTransform="matrix(10,0,0,10,-290,-4270)"
       gradientUnits="userSpaceOnUse"
       y2="632.65399"
       x2="38.408298"
       y1="709.21399"
       x1="82.610397"><stop
         id="stop58"
         offset="0"
         style="stop-opacity:1;stop-color:#6f110f" /><stop
         id="stop60"
         offset="0.5"
         style="stop-opacity:1;stop-color:#e31f25" /><stop
         id="stop62"
         offset="1"
         style="stop-opacity:1;stop-color:#f19978" /></linearGradient><clipPath
       id="clipPath74"
       clipPathUnits="userSpaceOnUse"><path
         style="clip-rule:evenodd"
         id="path72"
         d="M 2398.67,1236.15 2840.69,980.824 3282.8,1236.15 Z" /></clipPath><linearGradient
       id="linearGradient82"
       spreadMethod="pad"
       gradientTransform="matrix(10,0,0,10,-290,-4270)"
       gradientUnits="userSpaceOnUse"
       y2="727.43701"
       x2="268.85501"
       y1="727.43701"
       x1="357.26599"><stop
         id="stop76"
         offset="0"
         style="stop-opacity:1;stop-color:#092444" /><stop
         id="stop78"
         offset="0.5"
         style="stop-opacity:1;stop-color:#0a73ba" /><stop
         id="stop80"
         offset="1"
         style="stop-opacity:1;stop-color:#98bcde" /></linearGradient><clipPath
       id="clipPath92"
       clipPathUnits="userSpaceOnUse"><path
         style="clip-rule:evenodd"
         id="path90"
         d="m 2840.68,2001.68 -442.01,-255.24 v -510.29 l 442.02,765.53 z" /></clipPath><linearGradient
       id="linearGradient100"
       spreadMethod="pad"
       gradientTransform="matrix(10,0,0,10,-290,-4270)"
       gradientUnits="userSpaceOnUse"
       y2="519.617"
       x2="499.31299"
       y1="443.064"
       x1="455.11499"><stop
         id="stop94"
         offset="0"
         style="stop-opacity:1;stop-color:#092444" /><stop
         id="stop96"
         offset="0.5"
         style="stop-opacity:1;stop-color:#0a73ba" /><stop
         id="stop98"
         offset="1"
         style="stop-opacity:1;stop-color:#98bcde" /></linearGradient><clipPath
       id="clipPath110"
       clipPathUnits="userSpaceOnUse"><path
         style="clip-rule:evenodd"
         id="path108"
         d="m 3282.8,1236.15 v 510.39 l -442.1,255.14 z" /></clipPath><linearGradient
       id="linearGradient118"
       spreadMethod="pad"
       gradientTransform="matrix(10,0,0,10,-290,-4270)"
       gradientUnits="userSpaceOnUse"
       y2="443.06201"
       x2="171.009"
       y1="519.62"
       x1="126.808"><stop
         id="stop112"
         offset="0"
         style="stop-opacity:1;stop-color:#092444" /><stop
         id="stop114"
         offset="0.5"
         style="stop-opacity:1;stop-color:#0a73ba" /><stop
         id="stop116"
         offset="1"
         style="stop-opacity:1;stop-color:#98bcde" /></linearGradient></defs><g
     transform="matrix(1.3333333,0,0,-1.3333333,0,268)"
     id="g10"><g
       transform="scale(0.1)"
       id="g12"><g
         id="g14"><g
           clip-path="url(#clipPath20)"
           id="g16"><path
             id="path30"
             style="fill:url(#linearGradient28);fill-opacity:1;fill-rule:nonzero;stroke:none"
             d="m 1514.66,1746.44 h 884.01 l -442.01,255.24 z" /></g></g><g
         id="g32"><g
           clip-path="url(#clipPath38)"
           id="g34"><path
             id="path48"
             style="fill:url(#linearGradient46);fill-opacity:1;fill-rule:nonzero;stroke:none"
             d="M 1514.66,1746.43 V 1236.15 L 1956.64,980.836 Z" /></g></g><g
         id="g50"><g
           clip-path="url(#clipPath56)"
           id="g52"><path
             id="path66"
             style="fill:url(#linearGradient64);fill-opacity:1;fill-rule:nonzero;stroke:none"
             d="m 1956.66,980.824 442.01,255.156 v 510.45 z" /></g></g><g
         id="g68"><g
           clip-path="url(#clipPath74)"
           id="g70"><path
             id="path84"
             style="fill:url(#linearGradient82);fill-opacity:1;fill-rule:nonzero;stroke:none"
             d="M 2398.67,1236.15 2840.69,980.824 3282.8,1236.15 Z" /></g></g><g
         id="g86"><g
           clip-path="url(#clipPath92)"
           id="g88"><path
             id="path102"
             style="fill:url(#linearGradient100);fill-opacity:1;fill-rule:nonzero;stroke:none"
             d="m 2840.68,2001.68 -442.01,-255.24 v -510.29 l 442.02,765.53 h -0.01" /></g></g><g
         id="g104"><g
           clip-path="url(#clipPath110)"
           id="g106"><path
             id="path120"
             style="fill:url(#linearGradient118);fill-opacity:1;fill-rule:nonzero;stroke:none"
             d="m 3282.8,1236.15 v 510.39 l -442.1,255.14 z" /></g></g><path
         id="path122"
         style="fill:#9a9b9f;fill-opacity:1;fill-rule:nonzero;stroke:none"
         d="m 4191.87,786.68 c 71.99,2.254 144.08,2.347 216.16,0.191 109.35,-255.773 225.74,-508.539 332.17,-765.5272 -65.6,-1.9727 -131.31,-0.1875 -197.01,-0.8438 -52.85,-2.7227 -92.83,37.0703 -137.32,59.1328 -68.99,43.0782 -144.54,76.0272 -209.4,125.3982 84.57,1.407 169.14,-3.195 253.61,1.969 -34.73,101.086 -76.49,199.641 -115.17,299.227 -10.04,26.937 -18.96,54.628 -34.54,79.031 -81.56,-185.375 -145.67,-378.449 -226.11,-564.2892 -71.62,-0.1875 -143.23,-1.5977 -214.85,0.75 108.41,255.9572 224.14,508.9102 332.46,764.9612 z m -2631.28,1.316 c 131.12,-0.187 262.25,0.281 393.37,-0.187 87.48,-4.036 182.27,-34.543 236.34,-107.473 58.56,-89.262 58.47,-214.469 -1.78,-302.981 -20.66,-35.007 -55.2,-57.535 -84.38,-84.566 51.99,-93.203 119.95,-177.023 170.63,-271.0702 -75.37,-2.1602 -150.93,-1.6875 -226.29,-0.0938 -58.01,92.828 -113.77,187.063 -169.42,281.207 -20,33.789 -42.9,65.984 -58.57,102.121 57.63,3.281 121.92,-7.605 172.14,28.063 55.85,35.855 50.12,132.25 -9.29,161.816 -66.18,35.477 -143.7,19.332 -215.41,23.652 -5.54,-199.265 0.65,-398.718 -3,-598.0817 -68.52,0.379 -136.95,-0.371 -205.47,0.754 0,255.5817 -2.16,511.2577 1.13,766.8397 z m -612.063,-0.094 c 65.613,0.188 131.313,0.469 196.923,0.282 5.63,-49.09 3.19,-98.461 3.47,-147.739 0,-144.168 0,-288.336 -0.28,-432.511 117.79,-7.504 236.24,-0.649 354.32,-3.188 -7.89,-33.601 -29.57,-61.195 -46.46,-90.574 -18.12,-29.004 -32.2,-60.6368 -52.75,-88.0431 -11.92,-8.1641 -27.6,-4.3164 -41.11,-5.9141 -138.63,1.4102 -277.26,-0.4687 -415.992,0.9415 -3.753,237.6567 0.375,475.5897 -1.972,713.3397 -0.469,17.926 0.941,35.758 3.851,53.406 z m -614.41,-0.941 c 71.895,2.535 144.074,1.785 216.067,-0.09 C 658.59,530.82 774.602,277.961 882.539,21.625 809.234,21.0625 735.746,17.5898 662.625,23.5938 605.09,180.625 542.016,335.684 481.664,491.77 c -12.109,32.101 -23.652,64.39 -39.516,94.8 -41.953,-87.007 -71.898,-179.367 -108.5,-268.722 -13.519,-36.793 -32.007,-72.27 -36.984,-111.602 82.973,-3.469 166.039,-0.469 249.012,-1.031 C 513.199,177.715 474.715,159.32 438.113,138.199 388.176,110.039 338.715,80.9453 289.063,52.2266 263.719,38.2383 238.941,18.3398 208.25,20.4023 139.449,21.25 70.5547,18.7148 1.84766,22.6563 109.977,278.52 224.109,531.852 334.117,786.961 Z M 3263.87,719.102 c 64.95,63.355 158.34,88.418 247.23,88.043 113.1,3.66 225.73,-25.059 327.38,-73.59 -19.8,-53.594 -45.71,-104.746 -66.82,-157.778 -77.72,28.438 -157.6,56.692 -241.51,55.942 -42.04,1.312 -91.6,-5.164 -117.32,-42.707 -11.73,-30.317 14.83,-53.875 40.83,-63.168 104.65,-42.614 227.61,-39.797 320.16,-111.133 98.45,-68.422 108.59,-223.856 31.34,-311.898 -49.09,-56.5982 -123.7,-83.1607 -195.6,-95.82862 -100.15,-12.76563 -203.3,-3.57032 -299.04,28.72262 -43.18,15.2032 -87.76,30.3125 -123.61,59.5078 26.37,47.5862 52.84,95.2652 80.9,141.8202 10.24,16.707 30.89,2.723 43.93,-2.719 90.48,-46.933 200.86,-78.097 300.26,-41.488 38.48,11.824 47.77,70.488 8.45,87.481 -108.41,51.996 -240.66,45.144 -338.18,121.265 -102.31,69.453 -107.1,235.117 -18.4,317.528 z m -594.14,-90.668 c -67.76,-14.454 -129.24,-63.36 -152.24,-129.625 -36.13,-91.887 -19.05,-211.184 61.58,-274.446 93.57,-80.25 254.07,-65.136 326.44,36.418 61.48,92.453 56.79,226.485 -18.02,310.395 -56.31,55.945 -141.45,75.371 -217.76,57.258 z M 2652,803.484 c 105.78,10.325 218.6,1.313 311.8,-53.972 79.5,-44.395 142.85,-118.637 169.7,-206.117 32.01,-107.379 27.6,-227.235 -21.12,-328.981 C 3062.91,111.355 2961.36,39.2695 2850.79,15.0547 2745.86,-7.66016 2632.29,-5.6875 2532.23,35.9844 c -85.6,31.3515 -158.06,96.9606 -197.39,179.1836 -49.75,103.059 -53.78,225.734 -17.83,333.672 46.55,142.851 189.31,238.121 334.99,254.644" /></g></g></svg>