<?xml version="1.0" standalone="no"?>
<!DOCTYPE svg PUBLIC "-//W3C//DTD SVG 20010904//EN"
 "http://www.w3.org/TR/2001/REC-SVG-20010904/DTD/svg10.dtd">
<svg version="1.0" xmlns="http://www.w3.org/2000/svg"
 width="512.000000pt" height="512.000000pt" viewBox="0 0 512.000000 512.000000"
 preserveAspectRatio="xMidYMid meet">
<metadata>
Created by potrace 1.16, written by Peter Selinger 2001-2019
</metadata>
<g transform="translate(0.000000,512.000000) scale(0.100000,-0.100000)"
fill="#000000" stroke="none">
<path d="M0 2560 l0 -2560 2560 0 2560 0 0 2560 0 2560 -2560 0 -2560 0 0
-2560z m890 1215 l0 -745 -145 0 -145 0 0 745 0 745 145 0 145 0 0 -745z m761
735 c134 -25 260 -126 321 -257 27 -57 33 -83 36 -158 5 -120 -22 -203 -102
-310 -6 -8 0 -24 17 -47 14 -18 39 -61 54 -93 25 -54 28 -71 28 -170 0 -106
-1 -113 -36 -185 -58 -121 -151 -201 -278 -240 -54 -17 -93 -20 -277 -20
l-214 0 0 145 0 145 203 0 c172 0 207 3 237 18 108 54 108 216 0 273 -30 17
-59 19 -237 19 l-203 0 0 145 0 145 203 0 c172 0 207 3 237 18 108 54 108 216
0 273 -30 17 -59 19 -237 19 l-203 0 0 145 0 145 199 0 c109 0 223 -5 252 -10z
m2859 -135 l0 -145 -145 0 -145 0 0 145 0 145 145 0 145 0 0 -145z m0 -600 l0
-145 -145 0 -145 0 0 145 0 145 145 0 145 0 0 -145z m0 -600 l0 -145 -145 0
-145 0 0 145 0 145 145 0 145 0 0 -145z m-1210 -1515 l0 -850 -145 0 -145 0 0
850 0 850 145 0 145 0 0 -850z m-859 802 c120 -58 202 -151 240 -273 18 -57
19 -101 19 -720 l0 -659 -145 0 -145 0 0 260 0 260 -155 0 -155 0 0 -260 0
-260 -145 0 -145 0 0 628 c0 355 4 653 10 686 20 123 107 254 210 314 85 51
136 63 245 59 88 -3 108 -7 166 -35z"/>
<path d="M2172 2190 c-64 -40 -72 -75 -72 -337 l0 -233 155 0 155 0 0 240 c0
259 -2 271 -54 320 -38 34 -136 40 -184 10z"/>
</g>
</svg>
