<svg width="50" height="50" viewBox="0 0 50 50" fill="none" xmlns="http://www.w3.org/2000/svg">
<path d="M39.7461 12.5H18.0664C14.9922 12.5 12.5 14.9922 12.5 18.0664V39.7461C12.5 42.8203 14.9922 45.3125 18.0664 45.3125H39.7461C42.8203 45.3125 45.3125 42.8203 45.3125 39.7461V18.0664C45.3125 14.9922 42.8203 12.5 39.7461 12.5Z" stroke="black" stroke-width="3" stroke-linejoin="round"/>
<path d="M37.4512 12.5L37.5 10.1562C37.4959 8.70712 36.9184 7.31851 35.8937 6.29381C34.869 5.26912 33.4804 4.69162 32.0312 4.6875H10.9375C9.2814 4.69239 7.69453 5.35245 6.52349 6.52349C5.35245 7.69453 4.69239 9.2814 4.6875 10.9375V32.0312C4.69162 33.4804 5.26912 34.869 6.29381 35.8937C7.31851 36.9184 8.70712 37.4959 10.1562 37.5H12.5" stroke="black" stroke-width="3" stroke-linecap="round" stroke-linejoin="round"/>
</svg>
