<?xml version="1.0" standalone="no"?>
<!DOCTYPE svg PUBLIC "-//W3C//DTD SVG 20010904//EN"
 "http://www.w3.org/TR/2001/REC-SVG-20010904/DTD/svg10.dtd">
<svg version="1.0" xmlns="http://www.w3.org/2000/svg"
 width="512.000000pt" height="512.000000pt" viewBox="0 0 512.000000 512.000000"
 preserveAspectRatio="xMidYMid meet">

<g transform="translate(0.000000,512.000000) scale(0.100000,-0.100000)"
fill="#000000" stroke="none">
<path d="M0 2560 l0 -2560 2560 0 2560 0 0 2560 0 2560 -2560 0 -2560 0 0
-2560z m1133 1923 c187 -89 293 -286 258 -483 -27 -151 -112 -256 -274 -341
-130 -69 -191 -143 -212 -261 l-7 -38 251 0 251 0 0 -150 0 -150 -400 0 -400
0 0 178 c0 207 15 287 77 404 65 124 160 213 302 283 79 39 112 78 118 138 5
53 -20 103 -66 134 -32 22 -43 23 -232 23 l-199 0 0 151 0 150 233 -3 232 -3
68 -32z m1142 -3 c91 -44 171 -123 216 -215 l34 -70 3 -313 c3 -347 -1 -382
-61 -502 -44 -89 -160 -206 -248 -249 -99 -48 -160 -61 -326 -68 l-153 -6 0
150 0 150 139 5 c126 4 143 7 194 32 65 31 119 91 142 156 28 80 29 80 -89 80
-165 0 -265 39 -363 142 -58 63 -87 114 -108 195 -59 226 70 460 295 535 42
14 79 17 155 15 90 -3 107 -6 170 -37z m2245 -110 l0 -150 -150 0 -150 0 0
150 0 150 150 0 150 0 0 -150z m0 -600 l0 -150 -150 0 -150 0 0 150 0 150 150
0 150 0 0 -150z m0 -600 l0 -150 -150 0 -150 0 0 150 0 150 150 0 150 0 0
-150z m-2506 -630 c112 -28 189 -73 277 -160 55 -55 86 -96 112 -150 36 -72
66 -184 67 -242 l0 -28 -148 0 -148 0 -12 58 c-58 282 -427 327 -564 69 -23
-41 -23 -47 -23 -427 0 -380 0 -386 23 -427 34 -65 78 -110 137 -138 179 -88
387 12 427 207 l12 58 148 0 148 0 0 -27 c-1 -60 -31 -172 -67 -243 -47 -94
-160 -210 -250 -258 -132 -70 -286 -88 -427 -52 -113 29 -190 73 -276 160 -87
86 -131 163 -160 276 -18 70 -20 111 -20 444 0 410 6 457 72 583 42 81 164
203 245 245 133 70 286 88 427 52z m1026 -992 c0 -276 1 -284 24 -333 47 -101
122 -149 231 -149 79 0 129 20 183 75 65 67 67 74 70 397 l3 292 149 0 150 0
0 -287 c0 -222 -4 -303 -15 -352 -59 -250 -286 -431 -540 -431 -175 0 -359 97
-454 239 -90 135 -101 193 -101 546 l0 285 150 0 150 0 0 -282z"/>
<path d="M2012 4200 c-50 -31 -74 -76 -69 -133 8 -98 66 -137 200 -137 l87 0
0 98 c0 107 -12 137 -66 173 -39 25 -109 25 -152 -1z"/>
</g>
</svg>
