<svg width="50" height="50" viewBox="0 0 50 50" fill="none" xmlns="http://www.w3.org/2000/svg">
<path d="M0 24C0 12.686 -3.32677e-06 7.02326 3.51395 3.51395C7.0279 0.00465105 12.686 0 24 0H26C37.314 0 42.9767 0 46.486 3.51395C49.9954 7.02791 50 12.686 50 24V26C50 37.314 50 42.9767 46.486 46.486C42.9721 49.9953 37.314 50 26 50H24C12.686 50 7.02325 50 3.51395 46.486C0.00464772 42.9721 0 37.314 0 26V24Z" fill="#1877F2"/>
<path d="M27.1047 27.272H31.6279L32.4791 21.6278H27.1047V17.9767C27.1047 16.4325 27.8558 14.9302 30.2628 14.9302H32.707V10.1302C31.2734 9.89687 29.8245 9.7694 28.3721 9.74878C23.9535 9.74878 21.0512 12.4488 21.0512 17.3372V21.6278H16.1279V27.2651H21.0512V40.893H27.0977L27.1047 27.272Z" fill="white"/>
</svg>
