<?xml version="1.0" standalone="no"?>
<!DOCTYPE svg PUBLIC "-//W3C//DTD SVG 20010904//EN"
 "http://www.w3.org/TR/2001/REC-SVG-20010904/DTD/svg10.dtd">
<svg version="1.0" xmlns="http://www.w3.org/2000/svg"
 width="512.000000pt" height="512.000000pt" viewBox="0 0 512.000000 512.000000"
 preserveAspectRatio="xMidYMid meet">
<metadata>
Created by potrace 1.16, written by Peter Selinger 2001-2019
</metadata>
<g transform="translate(0.000000,512.000000) scale(0.100000,-0.100000)"
fill="#000000" stroke="none">
<path d="M0 2560 l0 -2560 2560 0 2560 0 0 2560 0 2560 -2560 0 -2560 0 0
-2560z m1055 1945 c131 -35 234 -120 294 -245 35 -72 36 -79 36 -185 0 -103
-2 -114 -32 -178 -47 -99 -124 -175 -229 -227 -132 -64 -209 -156 -222 -266
l-5 -44 247 0 246 0 0 -145 0 -145 -396 0 -397 0 6 183 c6 204 17 260 74 377
53 109 167 220 291 284 109 56 132 84 132 162 0 62 -29 111 -80 136 -30 15
-64 18 -227 18 l-193 0 0 145 0 145 198 0 c145 0 213 -4 257 -15z m1375 -130
l0 -145 -118 0 c-138 0 -201 -15 -264 -63 -50 -39 -108 -141 -108 -193 l0 -34
98 0 c218 0 363 -84 450 -259 36 -73 37 -78 37 -186 0 -107 -1 -112 -37 -185
-85 -174 -278 -280 -459 -251 -169 28 -309 149 -360 312 -17 54 -19 94 -19
348 0 317 9 385 67 494 63 118 210 236 348 280 71 23 85 24 233 26 l132 1 0
-145z m2080 0 l0 -145 -145 0 -145 0 0 145 0 145 145 0 145 0 0 -145z m0 -600
l0 -145 -145 0 -145 0 0 145 0 145 145 0 145 0 0 -145z m0 -600 l0 -145 -145
0 -145 0 0 145 0 145 145 0 145 0 0 -145z m-2210 -865 l0 -150 -360 0 -360 0
0 -200 0 -200 360 0 360 0 0 -150 0 -150 -360 0 -360 0 0 -350 0 -350 -145 0
-145 0 0 850 0 850 505 0 505 0 0 -150z m1125 -235 c33 -8 98 -34 145 -57 69
-33 101 -57 170 -127 138 -139 187 -260 197 -483 l6 -128 -507 0 -506 0 19
-38 c29 -57 122 -137 186 -161 50 -19 78 -21 260 -21 l205 0 0 -150 0 -150
-147 0 c-347 1 -488 45 -648 205 -80 81 -125 152 -162 257 -23 64 -27 90 -27
203 -1 111 2 140 23 200 76 226 256 395 480 450 77 18 233 18 306 0z"/>
<path d="M1940 3554 c0 -113 15 -153 68 -186 74 -45 181 -18 216 56 23 50 21
116 -7 157 -35 53 -77 69 -184 69 l-93 0 0 -96z"/>
<path d="M3141 1780 c-60 -22 -68 -27 -129 -84 -37 -35 -82 -101 -82 -121 0
-3 156 -5 346 -5 l345 0 -27 51 c-35 63 -91 114 -163 148 -76 35 -210 41 -290
11z"/>
</g>
</svg>
