<?xml version="1.0" encoding="UTF-8"?>
<!DOCTYPE svg PUBLIC "-//W3C//DTD SVG 1.1//EN" "http://www.w3.org/Graphics/SVG/1.1/DTD/svg11.dtd">
<!-- Creator: CorelDRAW 2020 -->
<svg xmlns="http://www.w3.org/2000/svg" xml:space="preserve" width="243.001mm" height="25.3722mm" version="1.1" style="shape-rendering:geometricPrecision; text-rendering:geometricPrecision; image-rendering:optimizeQuality; fill-rule:evenodd; clip-rule:evenodd"
viewBox="0 0 2973.98 310.52"
 xmlns:xlink="http://www.w3.org/1999/xlink"
 xmlns:xodm="http://www.corel.com/coreldraw/odm/2003">
 <defs>
  <style type="text/css">
   <![CDATA[
    .fil4 {fill:#FEFEFE}
    .fil3 {fill:#2B2A29}
    .fil5 {fill:#E84F22}
    .fil2 {fill:#5B5B5B;fill-rule:nonzero}
    .fil1 {fill:#2B2A29;fill-rule:nonzero}
    .fil0 {fill:#E84F22;fill-rule:nonzero}
   ]]>
  </style>
 </defs>
 <g id="Слой_x0020_1">
  <metadata id="CorelCorpID_0Corel-Layer"/>
  <g id="_1127099848">
   <path class="fil0" d="M528.87 110.65l25 -102.85 67.16 0 0 161.23 -50.77 0 -0.21 -96.27 -23.33 95.84 -37.25 0 -23.76 -94.99 0 95.42 -50.13 0 0 -161.87 69.86 0 23.44 103.49zm253.39 58.81l-137.69 0 0 -161.45 137.69 0 0 43.55 -86.88 0 0 18.27 86.88 0 0 36.11 -85.43 0 0 18.91 85.43 0 0 44.61zm73.47 -118.54l-50.52 0 0 -43.76 151.46 0 0.42 43.97 -49.74 0 0 117.9 -52.05 0 0.42 -118.11zm172.03 20.39l52.68 0 0 -19.12 -52.68 0 0 19.12zm-2.87 -63.73l66.56 0c6.44,0 11.86,0.71 16.25,2.09 4.43,1.38 8.71,4 12.96,7.86 4.78,4.35 7.97,9.13 9.59,14.27 1.63,5.17 2.44,11.72 2.44,19.68l0 117.97 -51.83 0 0 -63.52 -53.32 0 0 63.31 -49.71 0 0 -125.76c0,-5.27 0.89,-9.84 2.66,-13.74 1.77,-3.93 4.5,-7.86 8.25,-11.79 6.58,-6.9 18.62,-10.37 36.15,-10.37zm132.24 0.64l51.83 0.21 0.21 117.47 78.53 0 0 43.55 -130.57 0 0 -161.23z"/>
   <path class="fil1" d="M1401.71 110.65l25 -102.85 67.16 0 0 161.23 -50.77 0 -0.21 -96.27 -23.33 95.84 -37.25 0 -23.76 -94.99 0 95.42 -50.13 0 0 -161.87 69.86 0 23.44 103.49zm165.62 -39.34l52.68 0 0 -19.12 -52.68 0 0 19.12zm-2.87 -63.73l66.56 0c6.44,0 11.86,0.71 16.25,2.09 4.43,1.38 8.71,4 12.96,7.86 4.78,4.35 7.97,9.13 9.59,14.27 1.63,5.17 2.44,11.72 2.44,19.68l0 117.97 -51.83 0 0 -63.52 -53.32 0 0 63.31 -49.71 0 0 -125.76c0,-5.27 0.89,-9.84 2.66,-13.74 1.77,-3.93 4.5,-7.86 8.25,-11.79 6.58,-6.9 18.62,-10.37 36.15,-10.37zm130.33 0.85l110.57 0c5.13,0 9.2,0.14 12.25,0.46 3.04,0.32 6.13,1.1 9.24,2.34 3.11,1.24 5.81,3.01 8.11,5.31 3.61,3.36 6.34,6.97 8.25,10.73 1.91,3.75 2.87,8.04 2.87,12.82l0 21.49c0,3.72 -0.57,6.94 -1.73,9.6 -1.13,2.65 -3.04,5.63 -5.74,8.85 -1.73,2.09 -3.93,4.04 -6.62,5.84 -2.73,1.77 -4.74,3.04 -6.12,3.72 3.65,1.24 6.55,2.62 8.71,4.14 2.12,1.52 4.04,3.68 5.7,6.44 2.41,4 4.14,7.65 5.24,10.9 1.06,3.22 1.59,7.15 1.59,11.72l0 46.66 -50.98 0.21 -0.42 -61.39 -50.77 0 0 61.18 -50.56 -0.21 0.42 -160.81zm50.35 62.88l50.35 0 0 -19.33 -50.35 0 0 19.33zm190.48 35.48l-11.22 0 0 62.45 -51.2 0 0 -161.24 51.2 0 0 62.03 11.72 0 46.91 -61.82 59.34 0 -62.74 78.74 68.05 82.49 -64.23 0 -47.83 -62.67zm267.49 62.67l-137.69 0 0 -161.45 137.69 0 0 43.55 -86.88 0 0 18.27 86.88 0 0 36.11 -85.43 0 0 18.91 85.43 0 0 44.61zm73.47 -118.54l-50.52 0 0 -43.76 151.46 0 0.42 43.97 -49.74 0 0 117.9 -52.05 0 0.42 -118.11zm122.32 118.54l-0.21 -42.49 46.74 0 0 42.49 -46.52 0zm71.41 -161.66l111.1 0c5.27,0 9.49,0.14 12.64,0.46 3.11,0.32 6.23,1.06 9.31,2.3 3.08,1.2 5.84,3.01 8.25,5.45 4.21,4.21 7.08,8.71 8.57,13.52 1.49,4.81 2.23,10.87 2.23,18.23l0 26.34c0,7.82 -0.67,14.16 -1.98,19.01 -1.31,4.81 -4.11,9.31 -8.39,13.49 -3.26,3.08 -7.93,5.52 -14.09,7.29 -6.16,1.77 -9.98,2.66 -11.44,2.66l-65.22 0.21 0 51.83 -50.98 0 0 -160.81zm50.98 71.38l49.71 0 0 -27.83 -49.71 0 0 27.83zm121.97 -70.74l110.57 0c5.13,0 9.2,0.14 12.25,0.46 3.04,0.32 6.13,1.1 9.24,2.34 3.11,1.24 5.81,3.01 8.11,5.31 3.61,3.36 6.34,6.97 8.25,10.73 1.91,3.75 2.87,8.04 2.87,12.82l0 21.49c0,3.72 -0.57,6.94 -1.73,9.6 -1.13,2.65 -3.04,5.63 -5.74,8.85 -1.73,2.09 -3.93,4.04 -6.62,5.84 -2.73,1.77 -4.74,3.04 -6.12,3.72 3.65,1.24 6.55,2.62 8.71,4.14 2.12,1.52 4.04,3.68 5.7,6.44 2.41,4 4.14,7.65 5.24,10.9 1.06,3.22 1.59,7.15 1.59,11.72l0 46.66 -50.98 0.21 -0.42 -61.39 -50.77 0 0 61.18 -50.56 -0.21 0.42 -160.81zm50.35 62.88l50.35 0 0 -19.33 -50.35 0 0 19.33zm268.83 -52.86c3.47,3.33 6.02,6.87 7.68,10.59 1.66,3.75 2.73,7.65 3.19,11.79 0.46,4.11 0.67,9.03 0.67,14.76l0 68.01c0,8.78 -0.67,15.83 -1.98,21.1 -1.31,5.31 -4.35,10.16 -9.13,14.59 -3.12,3.04 -6.37,5.28 -9.74,6.73 -3.36,1.45 -6.83,2.41 -10.44,2.8 -3.61,0.43 -7.93,0.64 -12.99,0.64l-55.8 0c-12,0 -22.2,-1.27 -30.63,-3.82 -8.43,-2.58 -14.98,-7.22 -19.61,-14.02 -2.55,-3.72 -4.21,-7.97 -4.92,-12.75 -0.74,-4.78 -1.1,-10.8 -1.1,-18.06l0 -63.87c0,-9.06 0.92,-16.68 2.8,-22.87 1.88,-6.2 5.42,-11.51 10.62,-16 4.71,-4.04 10.09,-6.8 16.11,-8.36 6.02,-1.56 13.1,-2.34 21.21,-2.34l61.11 0c7.29,0 13.42,0.74 18.41,2.23 4.99,1.49 9.84,4.43 14.55,8.85zm-94.67 33.74l0 73.5 55.66 0 0 -73.5 -55.66 0z"/>
  </g>
  <path class="fil2" d="M529.79 310.52l-22.45 0 -4.34 -38.87c-0.24,-2.17 -0.36,-5.03 -0.36,-8.57l-0.24 0 -9.54 47.44 -18.95 0 -9.54 -47.44 -0.24 0c0,2.74 -0.16,5.59 -0.48,8.57l-4.22 38.87 -22.45 0 10.26 -86.91 27.16 0 7.36 34.76c1.05,4.91 1.57,9.01 1.57,12.31l0.12 0c0,-3.3 0.52,-7.4 1.57,-12.31l7.36 -34.76 27.16 0 10.26 86.91zm106.66 0l-61.92 0 0 -86.91 61.92 0 0 22.45 -38.99 0 0 11.35 35.49 0 0 18.35 -35.49 0 0 11.23 38.99 0 0 23.54zm108.71 -64.46l-22.33 0 0 64.46 -22.81 0 0 -64.46 -22.33 0 0 -22.45 67.48 0 0 22.45zm109.92 64.46l-22.57 0 0 -34.76 -25.23 0 0 34.76 -22.57 0 0 -65.42c0,-8.05 1.73,-13.64 5.19,-16.78 3.46,-3.14 9.25,-4.71 17.38,-4.71l47.8 0 0 86.91zm-22.57 -52.15l0 -13.28 -25.23 0 0 13.28 25.23 0zm137.44 52.15l-22.93 0 0 -64.46 -21.24 0 0 40.92c0,4.83 -0.24,8.73 -0.72,11.71 -0.81,4.75 -2.7,8.01 -5.67,9.78 -2.41,1.37 -6.24,2.05 -11.47,2.05l-11.35 0 0 -23.54 6.88 0 0 -41.89c0,-8.05 1.69,-13.64 5.07,-16.78 3.38,-3.14 9.13,-4.71 17.26,-4.71l44.18 0 0 86.91zm114.99 0l-22.93 0 0 -64.46 -21.24 0 0 40.92c0,4.83 -0.24,8.73 -0.72,11.71 -0.81,4.75 -2.7,8.01 -5.67,9.78 -2.41,1.37 -6.24,2.05 -11.47,2.05l-11.35 0 0 -23.54 6.88 0 0 -41.89c0,-8.05 1.69,-13.64 5.07,-16.78 3.38,-3.14 9.13,-4.71 17.26,-4.71l44.18 0 0 86.91zm113.18 -22.94c0,8.21 -1.25,13.92 -3.74,17.14 -2.82,3.86 -8.17,5.79 -16.05,5.79l-48.28 0 0 -23.54 45.51 0 0 -11.23 -30.66 0c-6.52,0 -11.02,-1.45 -13.52,-4.35 -2.41,-2.66 -3.62,-7.32 -3.62,-14l0 -33.8 22.33 0 0 33.8 25.47 0 0 -33.8 22.57 0 0 63.98zm113.3 -30.18c0,12.71 -5.73,19.07 -17.18,19.07l-29.29 0 0 34.04 -22.57 0 0 -86.91 49.37 0c7.72,0 13.04,1.85 15.93,5.55 2.49,3.22 3.74,8.85 3.74,16.9l0 11.35zm-22.57 0.6l0 -11.95 -23.9 0 0 11.95 23.9 0zm126.22 -11.95l-38.14 0 0 64.46 -22.94 0 0 -86.91 61.08 0 0 22.45zm112.46 64.46l-21.97 0 0 -49.13 -26.44 49.13 -22.09 0 0 -86.91 22.09 0 0 49.13 26.44 -49.13 21.97 0 0 86.91zm110.52 0l-22.94 0 0 -34.04 -26.56 0c-6.28,0 -10.7,-1.85 -13.28,-5.55 -2.57,-3.7 -3.86,-8.21 -3.86,-13.52l0 -33.8 21.97 0 0 34.4 21.73 0 0 -34.4 22.94 0 0 86.91zm106.42 0l-61.92 0 0 -86.91 61.92 0 0 22.45 -38.99 0 0 11.35 35.49 0 0 18.35 -35.49 0 0 11.23 38.99 0 0 23.54zm109.32 0l-43.21 0c-9.01,0 -15.07,-1.67 -18.17,-5.01 -3.1,-3.34 -4.65,-9.52 -4.65,-18.53l0 -40.92c0,-8.61 1.63,-14.51 4.89,-17.68 3.26,-3.18 9.23,-4.77 17.92,-4.77l43.21 0 0 22.45 -43.21 0 0 40.92 43.21 0 0 23.54zm113.3 0l-22.57 0 0 -35.49 -25.35 0 0 35.49 -22.57 0 0 -86.91 22.57 0 0 34.04 2.56 0 22.79 -34.04 22.57 0 -22.57 34.04c15.05,0 22.57,8.21 22.57,24.63l0 28.25zm114.27 0l-21.97 0 0 -49.13 -26.44 49.13 -22.09 0 0 -86.91 22.09 0 0 49.13 26.44 -49.13 21.97 0 0 86.91zm97 -108.03c0,5.07 -0.64,8.81 -1.93,11.23 -1.77,3.38 -4.95,5.07 -9.54,5.07l-11.47 0c-7.64,0 -11.47,-5.43 -11.47,-16.3l11.47 0 0 7.12 11.47 0 0 -7.12 11.47 0zm17.99 108.03l-21.97 0 0 -49.13 -26.44 49.13 -22.09 0 0 -86.91 22.09 0 0 49.13 26.44 -49.13 21.97 0 0 86.91zm203.35 0l-22.94 0 0 -64.46 -24.62 0 0 64.46 -22.94 0 0 -86.91 70.49 0 0 86.91zm114.39 -23.54c0,8.81 -1.59,14.95 -4.77,18.39 -3.18,3.44 -9.11,5.15 -17.8,5.15l-25.23 0c-8.61,0 -14.52,-1.73 -17.74,-5.21 -3.22,-3.48 -4.83,-9.6 -4.83,-18.33l0 -40.92c0,-8.29 1.69,-14.1 5.07,-17.44 3.38,-3.34 9.21,-5.01 17.5,-5.01l25.23 0c8.37,0 14.22,1.65 17.56,4.95 3.34,3.3 5.01,9.13 5.01,17.5l0 40.92zm-22.57 0l0 -40.92 -25.23 0 0 40.92 25.23 0zm135.63 -29.57c0,12.71 -5.73,19.07 -17.18,19.07l-29.29 0 0 34.04 -22.57 0 0 -86.91 49.37 0c7.72,0 13.04,1.85 15.93,5.55 2.49,3.22 3.74,8.85 3.74,16.9l0 11.35zm-22.57 0.6l0 -11.95 -23.9 0 0 11.95 23.9 0zm130.44 -11.95l-22.33 0 0 64.46 -22.81 0 0 -64.46 -22.33 0 0 -22.45 67.48 0 0 22.45zm109.92 64.46l-22.57 0 0 -34.76 -25.23 0 0 34.76 -22.57 0 0 -65.42c0,-8.05 1.73,-13.64 5.19,-16.78 3.46,-3.14 9.25,-4.71 17.38,-4.71l47.8 0 0 86.91zm-22.57 -52.15l0 -13.28 -25.23 0 0 13.28 25.23 0zm137.44 52.15l-22.93 0 0 -64.46 -21.24 0 0 40.92c0,4.83 -0.24,8.73 -0.72,11.71 -0.81,4.75 -2.7,8.01 -5.67,9.78 -2.41,1.37 -6.24,2.05 -11.47,2.05l-11.35 0 0 -23.54 6.88 0 0 -41.89c0,-8.05 1.69,-13.64 5.07,-16.78 3.38,-3.14 9.13,-4.71 17.26,-4.71l44.18 0 0 86.91z"/>
  <path class="fil3" d="M96.31 148.71c0.18,-2.54 0.51,-4.62 1.05,-5.32 -0.23,-1.43 0.1,-3.5 0.64,-4.78l1.1 -4.68c0.03,-0.06 0.13,-0.1 0.15,-0.24 0.02,-0.14 0.1,-0.16 0.16,-0.23 -0.22,-1.79 2.18,-8.9 3.31,-10.53l2 -4.63c2.09,-7.58 14.93,-23.77 21.12,-29.11 0.61,-0.53 0.94,-0.67 1.55,-1.21 4.32,-3.86 9.05,-7.57 14.19,-10.44 1.97,-1.1 5.1,-3 7.29,-3.72l4.51 -1.95c0.6,-0.6 8.86,-3.37 10.15,-3.48l5.25 -1.43c12.7,-2.93 24.56,-2.23 37.31,-0.28 0.79,0.13 1.55,0.27 2.33,0.45 0.44,0.1 0.61,0.13 1.08,0.33 0.56,0.24 0.38,0.16 0.71,0.42 1.66,-0.15 3.54,0.61 5.12,1.09 3.75,1.11 6.86,2.64 10.27,3.87 0.55,0.29 1.06,0.55 1.55,0.8 2.02,-1.52 4.06,-3.02 6.04,-4.52 17.96,-13.66 39.68,11.85 27.02,27.37 10.77,14.28 23.26,27.55 34.53,41.48 6.39,7.9 12.8,16.36 18.36,25.3 0.48,-5.21 -0.58,-6.22 4.78,-9.04 2.15,-1.12 8.7,-4.84 10.38,-4.89 0.96,-1.26 7.94,-4.59 10.28,-5.25 0.51,-0.82 0.67,-0.54 1.36,-0.57 0.96,-1.11 4.94,-2.26 5.32,-4.21 0.03,-0.14 0.11,-0.17 0.17,-0.25l0 -2.27 -0.27 -0.59c-0.04,-0.09 -0.08,-0.19 -0.12,-0.29 -1,-2.77 -4.75,-23.05 -5.93,-27.28 -0.87,-3.12 -3.1,-3.1 -5.33,-3.2l-2.16 -0.36c-0.04,-0.1 -0.17,-0.07 -0.24,-0.12 -2.09,0.53 -14.1,-0.66 -17.1,-0.85 -6.25,-0.41 -12.01,0.35 -14.18,-3.66 -6.07,-11.15 -6,-8.92 -0.4,-18.18 0.52,-0.86 2.82,-5 3.29,-5.26 0.43,-1.08 4.93,-9.39 6.35,-10.5 0.56,-3.6 5.82,-5.98 1.16,-10.35 -4.63,-4.34 -10.53,-10.85 -14.91,-15.21 -3.31,-3.3 -4.77,-6.11 -8.34,-6.32 -3.33,0.72 -6.87,4.05 -10.27,5.08 -0.39,0.73 -4.02,2.36 -4.95,2.93 -1.04,0.63 -1.76,0.97 -2.65,1.47 -1.24,0.7 -1.36,1.09 -2.78,1.25 -1.19,1.47 -8.2,5.03 -10.16,5.3 -2.87,-0.22 -5.8,-2.43 -8.17,-3.81 -3.38,-1.96 -4.28,-2.42 -4.45,-7.5 -0.25,-7.84 -0.5,-15.5 -0.8,-23.26 -0.14,-3.67 0.6,-7.66 -2.95,-8.95l-27.58 -6.66c-1.16,-0.4 1.42,0.57 -0.53,-0.22 -0.06,-0.03 -0.22,-0.01 -0.26,-0.13 -0.05,-0.12 -0.18,-0.09 -0.26,-0.14l-2.33 0 -0.94 0.67c-3.03,2.19 -1.55,2.93 -3.52,4.48 -0.17,0.89 -4.64,9.44 -5.36,10.19 -0.55,1.78 -2.02,3.93 -2.89,5.71 -6.46,13.23 -5.28,10.16 -14.22,10.8 -3.39,0.24 -5.01,0.86 -7.19,-1.37 -1.25,-1.27 -9.78,-13.48 -10.27,-14.79 -3.33,-2.9 -6.76,-12.8 -11.29,-13.04 -1.9,-0.1 -27.59,9.01 -30.12,10.01 -0.84,1.01 -1.36,2.1 -1.37,4.13l-0.12 1.7c0.61,0.94 0.5,2.59 0.59,3.73 0.09,1.11 0.17,2.28 0.21,3.48 0.23,1.99 0.68,4.26 0.23,6.15 0.22,0.34 0.17,0.1 0.35,0.73 0.1,0.32 0.08,0.68 0.11,1 0.06,4 0.66,8.19 0.93,12.05 0.32,4.58 -2.58,5.41 -5.19,7.3 -8.93,6.49 -6.55,6.03 -17.3,1.92 -1.61,-0.67 -3.15,-1.34 -4.89,-1.99l-4.49 -2.12c-0.04,-0.12 -0.14,-0.11 -0.21,-0.17 -1.01,-0.02 -9.48,-3.54 -10.94,-4.28 -1.97,-0.64 -2.25,-1.12 -4.45,-0.68 -1.18,0.63 -0.98,0.3 -1.81,1.22 -0.48,0.53 -0.99,1.17 -1.39,1.68 -0.67,0.86 -1.91,2.6 -2.72,2.97 -0.36,1.15 -1.13,1.9 -1.82,2.76l-9.33 11.54c-2.18,2.7 -3.28,3.47 -3.19,6.47 0.94,2.38 14.13,18.18 14.55,19.96 0.38,0.19 7.92,7.19 4.57,10.86 -0.05,1.36 -2.44,6.37 -3.22,8.28 -1.29,3.15 -1.99,5.49 -5.41,6.28 -6.06,1.4 -13.09,2.41 -19.4,3.51 -3.31,0.58 -6.57,1.2 -9.85,1.78 -4.17,0.74 -4.07,2.35 -4.68,6.54l-2.49 20.66 0 6.57 26.35 9.64c5.46,1.58 7.43,1.88 8.27,7.58 0.58,3.03 1.07,5.43 1.45,7.37 6.42,-11.25 14.84,-21.02 26.15,-29.88 1.18,-0.93 2.38,-1.81 3.6,-2.66zm-37.29 48.7c-0.67,0.65 -1.39,1.36 -2.16,2.14l-9.93 9.23c-1.49,1.53 -3.98,2.66 -4.63,4.99 -0.79,2.8 1.8,4.79 2.06,7.09 0.91,0.74 0.8,1.08 1.53,2.32l3.61 7.09c2.26,-7.5 3.89,-15.2 6.12,-22.74 1.04,-3.5 2.16,-6.87 3.39,-10.13z"/>
  <path class="fil4" d="M205.55 154.02c-1.17,0.3 -1.97,0.43 -3.36,0.11 -0.03,-0.01 -0.06,-0.02 -0.1,-0.02l-0.09 -0.2 -2 -1.28c-2.64,-1.69 -3.15,-4.43 -1.75,-7.15 2.69,-5.23 11.27,-3.78 11.42,2.44 0.03,1.33 -0.34,2.61 -1.13,3.68 -1.16,1.55 -1.52,1.71 -2.98,2.43z"/>
  <path class="fil3" d="M260.01 293.07l11.77 -7.75c28.65,-19.97 57.87,-50.43 46.66,-90.25 -9.91,-35.22 -45.35,-67.24 -66.11,-95.09l-15.89 12.25c-2.62,2.1 -4.86,4.02 -7.58,6.14 -10.18,7.96 -8.22,3.09 -8.2,23.37 0.01,8.61 0.46,7.35 -2.96,13.81 -3.63,6.86 -8.13,16.33 -12.09,22.48l-41.52 0.09c-2.2,-0.79 -2.97,-2.54 -3.72,-4.57 -2.57,0.79 -3.75,2.34 -5.7,3.82 -2.1,1.59 -3.37,2.64 -5.47,4.31l-21.35 17.17c-3.44,2.83 -7.86,5.53 -10.95,8.84 1.38,3.74 36.32,49.98 39.59,53.93 5.08,6.14 9.45,11.36 14.7,16.67 17.14,17.32 38.85,30.26 66.26,23.73 12.06,-2.87 18.03,-7.84 22.55,-8.95zm-65.87 -133.74c-0.41,0.93 0.18,0.49 -1.77,1.51 -0.86,0.45 -2.12,0.87 -2.94,1.06 -3.19,0.73 -5.1,0.36 -7.94,-0.37 -3.72,-1.9 -4.47,-2.38 -6.56,-5.16 -1.74,-2.33 -2.79,-5.29 -2.72,-8.63 0.33,-14.48 20.04,-18.4 26.46,-5.9 3.88,7.56 0.39,14.34 -4.54,17.49zm-28.84 14.57l38.87 0.03c2.05,-5.69 6.85,-13.05 9.71,-18.96 2.27,-4.68 3.61,-4.73 3.59,-10.57l-0.17 -83.99c-4.2,-1.43 -57.98,-0.54 -67.12,-0.54l0.05 84.5c-0.06,9.25 1.41,8.75 9.16,20.38 1.92,2.89 4.43,6.02 5.91,9.16zm-8.42 -4.58c-2.5,-5.94 -8.93,-12.23 -11.18,-18.34l-0.53 -1.43c-1.78,0.85 -5.4,4.17 -7.35,5.73l-30 24.19c-9.95,7.97 -20.6,12.82 -13.8,23.86 8.4,13.64 20.73,-0.35 32.84,-10.05 2.88,-2.3 4.69,-3.72 7.2,-5.83l22.82 -18.13zm64.03 -51.96c2.16,-1.26 3.39,-2.46 5.45,-4.11 2.11,-1.7 3.44,-2.63 5.48,-4.3l16.22 -13.15c1.35,-1.12 4.1,-3.06 5.29,-4.52 6.74,-8.23 -5.49,-24.01 -16.02,-16.01 -18.57,14.12 -16.76,11.48 -16.61,22.74 0.08,5.65 -0.56,14.14 0.18,19.35z"/>
  <path class="fil5" d="M114.09 216.8c-2.96,10.1 -3.85,22.64 1.84,30.21 7.14,9.48 29.19,9.21 27.02,24.82 -3.03,5.18 -17.16,6.55 -22.81,10.93 0.42,10.56 65.16,13.24 65.9,20.88 -9.68,9.44 -120.96,5.92 -134.95,1.17 -0.97,-7.84 14.34,-8.6 8.83,-15.17 -3.87,-4.6 -16.81,-4.32 -23.44,-4.61 -8.76,-0.38 -16.67,-1.23 -24.34,-3.58 -5.9,-1.8 -17.28,-7.26 -9.53,-14.14 8.52,-7.56 24.62,-7.58 37.24,-12.06 28.91,-10.25 9.61,-59.61 57.91,-97.44 14.45,-11.32 27.96,-13.4 39.41,-11.99 -1.18,0.99 -2.33,2.01 -3.43,2.89l-30 24.19c-6.7,5.4 -15.92,10.49 -18.38,19.31 -1.51,5.38 -0.12,10.58 2.75,15.23 2.98,4.83 7.24,8.55 13.01,9.4 3.99,0.59 7.89,-0.36 11.58,-2.11 0.44,0.68 0.91,1.38 1.39,2.06z"/>
 </g>
</svg>
