<?xml version="1.0" encoding="UTF-8"?>
<!DOCTYPE svg PUBLIC "-//W3C//DTD SVG 1.1//EN" "http://www.w3.org/Graphics/SVG/1.1/DTD/svg11.dtd">
<!-- Creator: CorelDRAW 2020 -->
<svg xmlns="http://www.w3.org/2000/svg" xml:space="preserve" width="44.3841mm" height="44.3841mm" version="1.1" style="shape-rendering:geometricPrecision; text-rendering:geometricPrecision; image-rendering:optimizeQuality; fill-rule:evenodd; clip-rule:evenodd"
viewBox="0 0 92.02 92.02"
 xmlns:xlink="http://www.w3.org/1999/xlink"
 xmlns:xodm="http://www.corel.com/coreldraw/odm/2003">
 <defs>
  <style type="text/css">
   <![CDATA[
    .fil2 {fill:#FEFEFE}
    .fil1 {fill:#2B2A29}
    .fil3 {fill:#E84F22}
    .fil0 {fill:#ADADAD}
   ]]>
  </style>
 </defs>
 <g id="Слой_x0020_1">
  <metadata id="CorelCorpID_0Corel-Layer"/>
  <rect class="fil0" x="-0" y="-0" width="92.02" height="92.02"/>
  <g id="_-2129761696">
   <path class="fil1" d="M30.41 44.77c0.04,-0.52 0.1,-0.94 0.21,-1.09 -0.05,-0.29 0.02,-0.71 0.13,-0.98l0.22 -0.95c0.01,-0.01 0.03,-0.02 0.03,-0.05 0,-0.03 0.02,-0.03 0.03,-0.05 -0.04,-0.36 0.44,-1.82 0.67,-2.15l0.41 -0.95c0.43,-1.55 3.05,-4.85 4.31,-5.94 0.12,-0.11 0.19,-0.14 0.32,-0.25 0.88,-0.79 1.85,-1.55 2.9,-2.13 0.4,-0.22 1.04,-0.61 1.49,-0.76l0.92 -0.4c0.12,-0.12 1.81,-0.69 2.07,-0.71l1.07 -0.29c2.59,-0.6 5.01,-0.46 7.62,-0.06 0.16,0.03 0.32,0.05 0.48,0.09 0.09,0.02 0.13,0.03 0.22,0.07 0.11,0.05 0.08,0.03 0.14,0.09 0.34,-0.03 0.72,0.12 1.05,0.22 0.77,0.23 1.4,0.54 2.1,0.79 0.11,0.06 0.22,0.11 0.32,0.16 0.41,-0.31 0.83,-0.62 1.23,-0.92 3.67,-2.79 8.1,2.42 5.52,5.59 2.2,2.92 4.75,5.62 7.05,8.47 1.31,1.61 2.61,3.34 3.75,5.17 0.1,-1.06 -0.12,-1.27 0.98,-1.84 0.44,-0.23 1.78,-0.99 2.12,-1 0.2,-0.26 1.62,-0.94 2.1,-1.07 0.1,-0.17 0.14,-0.11 0.28,-0.12 0.2,-0.23 1.01,-0.46 1.09,-0.86 0.01,-0.03 0.02,-0.03 0.03,-0.05l0 -0.46 -0.05 -0.12c-0.01,-0.02 -0.02,-0.04 -0.02,-0.06 -0.2,-0.57 -0.97,-4.71 -1.21,-5.57 -0.18,-0.64 -0.63,-0.63 -1.09,-0.65l-0.44 -0.07c-0.01,-0.02 -0.03,-0.01 -0.05,-0.02 -0.43,0.11 -2.88,-0.13 -3.49,-0.17 -1.28,-0.08 -2.45,0.07 -2.9,-0.75 -1.24,-2.28 -1.23,-1.82 -0.08,-3.71 0.11,-0.18 0.57,-1.02 0.67,-1.07 0.09,-0.22 1.01,-1.92 1.3,-2.14 0.11,-0.73 1.19,-1.22 0.24,-2.11 -0.95,-0.89 -2.15,-2.22 -3.04,-3.11 -0.68,-0.67 -0.97,-1.25 -1.7,-1.29 -0.68,0.15 -1.4,0.83 -2.1,1.04 -0.08,0.15 -0.82,0.48 -1.01,0.6 -0.21,0.13 -0.36,0.2 -0.54,0.3 -0.25,0.14 -0.28,0.22 -0.57,0.26 -0.24,0.3 -1.67,1.03 -2.07,1.08 -0.59,-0.04 -1.18,-0.5 -1.67,-0.78 -0.69,-0.4 -0.87,-0.49 -0.91,-1.53 -0.05,-1.6 -0.1,-3.16 -0.16,-4.75 -0.03,-0.75 0.12,-1.56 -0.6,-1.83l-5.63 -1.36c-0.24,-0.08 0.29,0.12 -0.11,-0.04 -0.01,-0.01 -0.04,-0 -0.05,-0.03 -0.01,-0.02 -0.04,-0.02 -0.05,-0.03l-0.48 0 -0.19 0.14c-0.62,0.45 -0.32,0.6 -0.72,0.91 -0.03,0.18 -0.95,1.93 -1.09,2.08 -0.11,0.36 -0.41,0.8 -0.59,1.17 -1.32,2.7 -1.08,2.07 -2.9,2.2 -0.69,0.05 -1.02,0.17 -1.47,-0.28 -0.25,-0.26 -2,-2.75 -2.1,-3.02 -0.68,-0.59 -1.38,-2.61 -2.31,-2.66 -0.39,-0.02 -5.63,1.84 -6.15,2.04 -0.17,0.21 -0.28,0.43 -0.28,0.84l-0.02 0.35c0.12,0.19 0.1,0.53 0.12,0.76 0.02,0.23 0.03,0.47 0.04,0.71 0.05,0.41 0.14,0.87 0.05,1.25 0.05,0.07 0.03,0.02 0.07,0.15 0.02,0.07 0.02,0.14 0.02,0.2 0.01,0.82 0.13,1.67 0.19,2.46 0.06,0.93 -0.53,1.1 -1.06,1.49 -1.82,1.32 -1.34,1.23 -3.53,0.39 -0.33,-0.14 -0.64,-0.27 -1,-0.41l-0.92 -0.43c-0.01,-0.02 -0.03,-0.02 -0.04,-0.03 -0.21,-0 -1.93,-0.72 -2.23,-0.87 -0.4,-0.13 -0.46,-0.23 -0.91,-0.14 -0.24,0.13 -0.2,0.06 -0.37,0.25 -0.1,0.11 -0.2,0.24 -0.28,0.34 -0.14,0.18 -0.39,0.53 -0.56,0.61 -0.07,0.24 -0.23,0.39 -0.37,0.56l-1.91 2.36c-0.45,0.55 -0.67,0.71 -0.65,1.32 0.19,0.49 2.89,3.71 2.97,4.07 0.08,0.04 1.62,1.47 0.93,2.22 -0.01,0.28 -0.5,1.3 -0.66,1.69 -0.26,0.64 -0.41,1.12 -1.1,1.28 -1.24,0.29 -2.67,0.49 -3.96,0.72 -0.68,0.12 -1.34,0.25 -2.01,0.36 -0.85,0.15 -0.83,0.48 -0.96,1.34l-0.51 4.22 0 1.34 5.38 1.97c1.12,0.32 1.52,0.38 1.69,1.55 0.12,0.62 0.22,1.11 0.3,1.51 1.31,-2.3 3.03,-4.29 5.34,-6.1 0.24,-0.19 0.49,-0.37 0.73,-0.54zm-7.61 9.94c-0.14,0.13 -0.28,0.28 -0.44,0.44l-2.03 1.89c-0.31,0.31 -0.81,0.54 -0.95,1.02 -0.16,0.57 0.37,0.98 0.42,1.45 0.19,0.15 0.16,0.22 0.31,0.47l0.74 1.45c0.46,-1.53 0.79,-3.1 1.25,-4.64 0.21,-0.71 0.44,-1.4 0.69,-2.07z"/>
   <path class="fil2" d="M52.72 45.85c-0.24,0.06 -0.4,0.09 -0.69,0.02 -0.01,-0 -0.01,-0 -0.02,-0l-0.02 -0.04 -0.41 -0.26c-0.54,-0.35 -0.64,-0.9 -0.36,-1.46 0.55,-1.07 2.3,-0.77 2.33,0.5 0.01,0.27 -0.07,0.53 -0.23,0.75 -0.24,0.32 -0.31,0.35 -0.61,0.5z"/>
   <path class="fil1" d="M63.84 74.24l2.4 -1.58c5.85,-4.08 11.81,-10.3 9.53,-18.43 -2.02,-7.19 -9.26,-13.73 -13.5,-19.41l-3.24 2.5c-0.54,0.43 -0.99,0.82 -1.55,1.25 -2.08,1.62 -1.68,0.63 -1.67,4.77 0,1.76 0.09,1.5 -0.6,2.82 -0.74,1.4 -1.66,3.33 -2.47,4.59l-8.48 0.02c-0.45,-0.16 -0.61,-0.52 -0.76,-0.93 -0.52,0.16 -0.76,0.48 -1.16,0.78 -0.43,0.33 -0.69,0.54 -1.12,0.88l-4.36 3.51c-0.7,0.58 -1.61,1.13 -2.24,1.8 0.28,0.76 7.42,10.2 8.08,11.01 1.04,1.25 1.93,2.32 3,3.4 3.5,3.54 7.93,6.18 13.53,4.85 2.46,-0.59 3.68,-1.6 4.6,-1.83zm-13.45 -27.3c-0.08,0.19 0.04,0.1 -0.36,0.31 -0.17,0.09 -0.43,0.18 -0.6,0.22 -0.65,0.15 -1.04,0.07 -1.62,-0.08 -0.76,-0.39 -0.91,-0.49 -1.34,-1.05 -0.36,-0.48 -0.57,-1.08 -0.56,-1.76 0.07,-2.96 4.09,-3.76 5.4,-1.2 0.79,1.54 0.08,2.93 -0.93,3.57zm-5.89 2.97l7.94 0.01c0.42,-1.16 1.4,-2.66 1.98,-3.87 0.46,-0.96 0.74,-0.97 0.73,-2.16l-0.03 -17.15c-0.86,-0.29 -11.84,-0.11 -13.7,-0.11l0.01 17.25c-0.01,1.89 0.29,1.79 1.87,4.16 0.39,0.59 0.9,1.23 1.21,1.87zm-1.72 -0.93c-0.51,-1.21 -1.82,-2.5 -2.28,-3.74l-0.11 -0.29c-0.36,0.17 -1.1,0.85 -1.5,1.17l-6.12 4.94c-2.03,1.63 -4.2,2.62 -2.82,4.87 1.71,2.79 4.23,-0.07 6.71,-2.05 0.59,-0.47 0.96,-0.76 1.47,-1.19l4.66 -3.7zm13.07 -10.61c0.44,-0.26 0.69,-0.5 1.11,-0.84 0.43,-0.35 0.7,-0.54 1.12,-0.88l3.31 -2.68c0.28,-0.23 0.84,-0.63 1.08,-0.92 1.38,-1.68 -1.12,-4.9 -3.27,-3.27 -3.79,2.88 -3.42,2.34 -3.39,4.64 0.02,1.15 -0.11,2.89 0.04,3.95z"/>
   <path class="fil3" d="M34.05 58.67c-0.6,2.06 -0.79,4.62 0.38,6.17 1.46,1.94 5.96,1.88 5.52,5.07 -0.62,1.06 -3.5,1.34 -4.66,2.23 0.09,2.16 13.3,2.7 13.46,4.26 -1.98,1.93 -24.7,1.21 -27.55,0.24 -0.2,-1.6 2.93,-1.76 1.8,-3.1 -0.79,-0.94 -3.43,-0.88 -4.79,-0.94 -1.79,-0.08 -3.4,-0.25 -4.97,-0.73 -1.2,-0.37 -3.53,-1.48 -1.95,-2.89 1.74,-1.54 5.03,-1.55 7.6,-2.46 5.9,-2.09 1.96,-12.17 11.82,-19.89 2.95,-2.31 5.71,-2.74 8.05,-2.45 -0.24,0.2 -0.48,0.41 -0.7,0.59l-6.12 4.94c-1.37,1.1 -3.25,2.14 -3.75,3.94 -0.31,1.1 -0.02,2.16 0.56,3.11 0.61,0.99 1.48,1.75 2.66,1.92 0.82,0.12 1.61,-0.07 2.36,-0.43 0.09,0.14 0.19,0.28 0.28,0.42z"/>
  </g>
 </g>
</svg>
