<svg width="45" height="45" viewBox="0 0 45 45" fill="none" xmlns="http://www.w3.org/2000/svg">
<rect width="45" height="45" rx="4" fill="#C4C4C4"/>
<path d="M14.2422 17.0469V18.127H9.68945V17.0469H14.2422ZM15.377 17.0469V27H14.0576V17.0469H15.377ZM9.23828 17.0469H10.5508L10.3252 21.9209C10.2933 22.6227 10.2386 23.2493 10.1611 23.8008C10.0882 24.3477 9.9834 24.8239 9.84668 25.2295C9.70996 25.6305 9.53223 25.9632 9.31348 26.2275C9.09473 26.4873 8.82585 26.681 8.50684 26.8086C8.19238 26.9362 7.81413 27 7.37207 27H7.0166V25.9268L7.29004 25.9062C7.54525 25.888 7.764 25.8311 7.94629 25.7354C8.13314 25.6351 8.29036 25.4847 8.41797 25.2842C8.55013 25.0837 8.65723 24.8239 8.73926 24.5049C8.82129 24.1859 8.88509 23.7962 8.93066 23.3359C8.98079 22.8711 9.01953 22.3288 9.04688 21.709L9.23828 17.0469ZM17.2295 23.3838V23.2266C17.2295 22.6934 17.307 22.1989 17.4619 21.7432C17.6169 21.2829 17.8402 20.8841 18.1318 20.5469C18.4235 20.2051 18.7767 19.9408 19.1914 19.7539C19.6061 19.5625 20.071 19.4668 20.5859 19.4668C21.1055 19.4668 21.5726 19.5625 21.9873 19.7539C22.4066 19.9408 22.762 20.2051 23.0537 20.5469C23.3499 20.8841 23.5755 21.2829 23.7305 21.7432C23.8854 22.1989 23.9629 22.6934 23.9629 23.2266V23.3838C23.9629 23.917 23.8854 24.4115 23.7305 24.8672C23.5755 25.3229 23.3499 25.7217 23.0537 26.0635C22.762 26.4007 22.4089 26.665 21.9941 26.8564C21.584 27.0433 21.1191 27.1367 20.5996 27.1367C20.0801 27.1367 19.613 27.0433 19.1982 26.8564C18.7835 26.665 18.4281 26.4007 18.1318 26.0635C17.8402 25.7217 17.6169 25.3229 17.4619 24.8672C17.307 24.4115 17.2295 23.917 17.2295 23.3838ZM18.4941 23.2266V23.3838C18.4941 23.7529 18.5374 24.1016 18.624 24.4297C18.7106 24.7533 18.8405 25.0404 19.0137 25.291C19.1914 25.5417 19.4124 25.7399 19.6768 25.8857C19.9411 26.027 20.2487 26.0977 20.5996 26.0977C20.946 26.0977 21.249 26.027 21.5088 25.8857C21.7731 25.7399 21.9919 25.5417 22.165 25.291C22.3382 25.0404 22.4681 24.7533 22.5547 24.4297C22.6458 24.1016 22.6914 23.7529 22.6914 23.3838V23.2266C22.6914 22.862 22.6458 22.5179 22.5547 22.1943C22.4681 21.8662 22.3359 21.5768 22.1582 21.3262C21.985 21.071 21.7663 20.8704 21.502 20.7246C21.2422 20.5788 20.9368 20.5059 20.5859 20.5059C20.2396 20.5059 19.9342 20.5788 19.6699 20.7246C19.4102 20.8704 19.1914 21.071 19.0137 21.3262C18.8405 21.5768 18.7106 21.8662 18.624 22.1943C18.5374 22.5179 18.4941 22.862 18.4941 23.2266ZM30.3271 19.6035V20.6494H26.9092V27H25.6445V19.6035H30.3271ZM30.9561 23.3838V23.2266C30.9561 22.6934 31.0335 22.1989 31.1885 21.7432C31.3434 21.2829 31.5667 20.8841 31.8584 20.5469C32.1501 20.2051 32.5033 19.9408 32.918 19.7539C33.3327 19.5625 33.7975 19.4668 34.3125 19.4668C34.832 19.4668 35.2992 19.5625 35.7139 19.7539C36.1331 19.9408 36.4886 20.2051 36.7803 20.5469C37.0765 20.8841 37.3021 21.2829 37.457 21.7432C37.612 22.1989 37.6895 22.6934 37.6895 23.2266V23.3838C37.6895 23.917 37.612 24.4115 37.457 24.8672C37.3021 25.3229 37.0765 25.7217 36.7803 26.0635C36.4886 26.4007 36.1354 26.665 35.7207 26.8564C35.3105 27.0433 34.8457 27.1367 34.3262 27.1367C33.8066 27.1367 33.3395 27.0433 32.9248 26.8564C32.5101 26.665 32.1546 26.4007 31.8584 26.0635C31.5667 25.7217 31.3434 25.3229 31.1885 24.8672C31.0335 24.4115 30.9561 23.917 30.9561 23.3838ZM32.2207 23.2266V23.3838C32.2207 23.7529 32.264 24.1016 32.3506 24.4297C32.4372 24.7533 32.5671 25.0404 32.7402 25.291C32.918 25.5417 33.139 25.7399 33.4033 25.8857C33.6676 26.027 33.9753 26.0977 34.3262 26.0977C34.6725 26.0977 34.9756 26.027 35.2354 25.8857C35.4997 25.7399 35.7184 25.5417 35.8916 25.291C36.0648 25.0404 36.1947 24.7533 36.2812 24.4297C36.3724 24.1016 36.418 23.7529 36.418 23.3838V23.2266C36.418 22.862 36.3724 22.5179 36.2812 22.1943C36.1947 21.8662 36.0625 21.5768 35.8848 21.3262C35.7116 21.071 35.4928 20.8704 35.2285 20.7246C34.9688 20.5788 34.6634 20.5059 34.3125 20.5059C33.9661 20.5059 33.6608 20.5788 33.3965 20.7246C33.1367 20.8704 32.918 21.071 32.7402 21.3262C32.5671 21.5768 32.4372 21.8662 32.3506 22.1943C32.264 22.5179 32.2207 22.862 32.2207 23.2266Z" fill="#414141"/>
</svg>
