<?xml version="1.0" encoding="UTF-8" standalone="no"?>
<svg
   xmlns:dc="http://purl.org/dc/elements/1.1/"
   xmlns:cc="http://creativecommons.org/ns#"
   xmlns:rdf="http://www.w3.org/1999/02/22-rdf-syntax-ns#"
   xmlns:svg="http://www.w3.org/2000/svg"
   xmlns="http://www.w3.org/2000/svg"
   viewBox="0 0 140 113.33333"
   height="113.33333"
   width="140"
   xml:space="preserve"
   id="svg2"
   version="1.1"><metadata
     id="metadata8"><rdf:RDF><cc:Work
         rdf:about=""><dc:format>image/svg+xml</dc:format><dc:type
           rdf:resource="http://purl.org/dc/dcmitype/StillImage" /></cc:Work></rdf:RDF></metadata><defs
     id="defs6" /><g
     transform="matrix(1.3333333,0,0,-1.3333333,0,113.33333)"
     id="g10"><g
       transform="scale(0.1)"
       id="g12"><path
         id="path14"
         style="fill:#2056ae;fill-opacity:1;fill-rule:evenodd;stroke:none"
         d="M 98.6602,8.35547 H 1.13281 L 220.863,842.359 513.215,572.328 829.551,842.359 1049.2,8.35547 H 951.699 L 780.789,670.551 513.215,449.348 269.578,670.551 98.6602,8.35547" /><path
         id="path16"
         style="fill:#2056ae;fill-opacity:1;fill-rule:evenodd;stroke:none"
         d="M 294.359,8.35547 367.027,352.672 464.504,278.387 439.727,156.129 659.406,352.672 683.34,254.398 585.91,156.129 756.828,8.35547 H 634.598 L 513.215,106.625 391.781,8.35547 h -97.422" /><path
         id="path18"
         style="fill:#2056ae;fill-opacity:1;fill-rule:evenodd;stroke:none"
         d="M 244.797,8.35547 H 147.324 L 294.359,597.129 513.215,400.602 756.828,597.129 903.016,8.35547 H 805.539 L 683.34,425.371 513.215,278.387 342.277,400.602 244.797,8.35547" /></g></g></svg>