<svg width="154" height="155" viewBox="0 0 154 155" fill="none" xmlns="http://www.w3.org/2000/svg">
<path d="M24.119 0.362305C10.8553 0.362305 0.102844 11.1147 0.102844 24.3785V110.837C0.102844 124.101 10.8553 134.853 24.119 134.853H68.9286C67.9775 131.821 67.4453 128.609 67.3906 125.247H24.119C16.1608 125.247 9.70932 118.795 9.70932 110.837V38.7882H134.622V29.1817H134.594V24.3785C134.594 11.1147 123.841 0.362305 110.577 0.362305H24.119ZM124.987 24.3785V29.1817H9.70932V24.3785C9.70932 16.4202 16.1608 9.96879 24.119 9.96879H110.577C118.535 9.96879 124.987 16.4202 124.987 24.3785ZM19.344 53.1979C19.344 50.5452 21.4945 48.3947 24.1472 48.3947H62.5731C65.2259 48.3947 67.3763 50.5452 67.3763 53.1979V91.6239C67.3763 94.2762 65.2259 96.4271 62.5731 96.4271H24.1472C21.4945 96.4271 19.344 94.2762 19.344 91.6239V53.1979ZM57.7699 86.8206V58.0012H28.9504V86.8206H57.7699ZM139.434 72.4109C139.434 85.6746 128.682 96.4271 115.418 96.4271C102.154 96.4271 91.402 85.6746 91.402 72.4109C91.402 59.1471 102.154 48.3947 115.418 48.3947C128.682 48.3947 139.434 59.1471 139.434 72.4109ZM91.8823 106.034C87.4153 106.034 83.6687 108.293 81.1605 111.114C78.6705 113.915 76.9922 117.706 76.9922 121.596V124.67C76.9922 140.371 92.6815 154.066 115.418 154.066C138.155 154.066 153.844 140.371 153.844 124.67V121.596C153.844 117.706 152.166 113.915 149.676 111.114C147.168 108.293 143.421 106.034 138.954 106.034H91.8823Z" fill="#212121"/>
</svg>
