<?xml version="1.0" standalone="no"?>
<!DOCTYPE svg PUBLIC "-//W3C//DTD SVG 20010904//EN"
 "http://www.w3.org/TR/2001/REC-SVG-20010904/DTD/svg10.dtd">
<svg version="1.0" xmlns="http://www.w3.org/2000/svg"
 width="512.000000pt" height="512.000000pt" viewBox="0 0 512.000000 512.000000"
 preserveAspectRatio="xMidYMid meet">
<metadata>
Created by potrace 1.16, written by Peter Selinger 2001-2019
</metadata>
<g transform="translate(0.000000,512.000000) scale(0.100000,-0.100000)"
fill="#000000" stroke="none">
<path d="M0 2560 l0 -2560 2560 0 2560 0 0 2560 0 2560 -2560 0 -2560 0 0
-2560z m2192 1969 c247 -52 405 -303 343 -544 -14 -53 -28 -81 -84 -170 -12
-19 -9 -28 22 -76 120 -187 94 -416 -63 -563 -211 -197 -523 -157 -681 87 -91
140 -88 326 7 475 19 29 34 55 34 58 0 3 -13 25 -30 49 -66 96 -92 216 -71
326 49 246 285 408 523 358z m-1137 -24 c131 -35 234 -120 294 -245 35 -72 36
-79 36 -185 0 -103 -2 -114 -32 -178 -47 -99 -124 -175 -229 -227 -132 -64
-209 -156 -222 -266 l-5 -44 247 0 246 0 0 -145 0 -145 -396 0 -397 0 6 183
c6 204 17 260 74 377 53 109 167 220 291 284 109 56 132 84 132 162 0 62 -29
111 -80 136 -30 15 -64 18 -227 18 l-193 0 0 145 0 145 198 0 c145 0 213 -4
257 -15z m3455 -130 l0 -145 -145 0 -145 0 0 145 0 145 145 0 145 0 0 -145z
m0 -600 l0 -145 -145 0 -145 0 0 145 0 145 145 0 145 0 0 -145z m0 -600 l0
-145 -145 0 -145 0 0 145 0 145 145 0 145 0 0 -145z m-2266 -1250 c164 -294
302 -538 307 -541 5 -3 9 218 9 535 l0 541 145 0 145 0 0 -850 0 -850 -143 0
-143 0 -299 540 c-165 296 -303 539 -307 540 -5 0 -8 -243 -8 -540 l0 -540
-145 0 -145 0 0 850 0 850 143 0 143 0 298 -535z m1206 70 l0 -145 -145 0
-145 0 0 145 0 145 145 0 145 0 0 -145z m0 -845 l0 -390 -145 0 -145 0 0 390
0 390 145 0 145 0 0 -390z"/>
<path d="M2033 4229 c-75 -37 -103 -131 -63 -209 53 -104 209 -106 267 -4 45
78 17 176 -62 214 -53 25 -89 25 -142 -1z"/>
<path d="M2033 3629 c-75 -37 -103 -131 -63 -209 53 -104 209 -106 267 -4 45
78 17 176 -62 214 -53 25 -89 25 -142 -1z"/>
</g>
</svg>
