<?xml version="1.0" standalone="no"?>
<!DOCTYPE svg PUBLIC "-//W3C//DTD SVG 20010904//EN"
 "http://www.w3.org/TR/2001/REC-SVG-20010904/DTD/svg10.dtd">
<svg version="1.0" xmlns="http://www.w3.org/2000/svg"
 width="1600.000000pt" height="1131.000000pt" viewBox="0 0 1600.000000 1131.000000"
 preserveAspectRatio="xMidYMid meet">

<g transform="translate(0.000000,1131.000000) scale(0.100000,-0.100000)"
fill="#000000" stroke="none">
<path d="M7580 8984 c-848 -34 -1467 -103 -2105 -234 -1019 -210 -1896 -568
-2511 -1025 -661 -492 -1047 -1092 -1139 -1775 -29 -214 -16 -553 30 -770 246
-1168 1445 -2095 3300 -2550 660 -162 1383 -260 2200 -300 262 -13 1023 -13
1295 0 734 35 1415 121 2020 256 1625 364 2778 1073 3266 2009 379 726 345
1580 -92 2286 -158 255 -429 554 -694 763 -955 756 -2432 1208 -4310 1321
-237 14 -1066 27 -1260 19z m1165 -324 c1182 -65 2184 -261 3005 -587 191 -76
516 -231 675 -323 699 -402 1161 -925 1335 -1513 117 -393 111 -829 -15 -1215
-45 -135 -165 -379 -244 -497 -204 -302 -491 -582 -832 -809 -836 -559 -2040
-918 -3489 -1040 -426 -36 -553 -41 -1170 -41 -639 0 -788 6 -1235 46 -2456
221 -4140 1113 -4535 2401 -89 290 -106 665 -44 968 218 1068 1283 1891 2999
2319 705 175 1458 271 2405 305 173 6 952 -3 1145 -14z"/>
<path d="M7620 8383 c-2333 -62 -4114 -704 -4798 -1729 -219 -328 -324 -689
-309 -1064 11 -273 68 -489 192 -736 110 -219 227 -375 427 -570 721 -703
2014 -1166 3668 -1314 402 -36 527 -41 1035 -47 1132 -13 2044 82 2910 302
1563 397 2523 1137 2717 2097 20 99 23 142 22 338 0 194 -3 239 -23 330 -81
380 -256 693 -556 996 -452 458 -1126 811 -2021 1058 -895 248 -2078 371
-3264 339z m753 -63 c350 -10 662 -29 922 -55 1606 -163 2834 -611 3534 -1289
305 -296 498 -636 574 -1010 19 -95 22 -141 21 -321 0 -177 -4 -226 -23 -315
-139 -656 -622 -1190 -1451 -1605 -671 -336 -1584 -575 -2600 -680 -817 -84
-1814 -86 -2639 -5 -1590 157 -2833 608 -3525 1280 -139 135 -218 228 -310
363 -377 556 -405 1242 -74 1819 211 369 571 701 1056 975 910 514 2302 819
3857 846 77 2 181 4 230 5 50 1 242 -3 428 -8z"/>
<path d="M3570 5705 l0 -1045 310 0 310 0 0 415 0 415 330 0 330 0 0 -415 0
-415 310 0 310 0 0 1045 0 1045 -310 0 -310 0 0 -385 0 -385 -330 0 -330 0 0
385 0 385 -310 0 -310 0 0 -1045z"/>
<path d="M6090 6113 c0 -399 -4 -662 -11 -703 -30 -190 -120 -260 -311 -246
l-88 7 0 -255 c0 -234 1 -255 18 -260 43 -14 236 -23 325 -15 203 17 329 70
447 189 91 90 139 176 174 311 40 155 47 254 53 692 l6 417 193 0 194 0 0
-795 0 -795 300 0 300 0 0 1045 0 1045 -800 0 -800 0 0 -637z"/>
<path d="M8206 6723 c-3 -16 -22 -145 -41 -288 -20 -143 -56 -404 -80 -580
-25 -176 -72 -515 -105 -754 -33 -239 -60 -435 -60 -437 0 -2 131 -4 290 -4
160 0 290 3 290 8 0 4 32 248 70 542 39 294 70 539 70 545 1 28 30 -63 176
-558 l158 -537 209 2 210 3 99 335 c54 184 126 427 159 540 33 113 62 210 63
215 7 22 16 -31 52 -310 20 -159 51 -400 68 -535 l32 -245 291 -3 c274 -2 291
-1 287 15 -3 15 -218 1564 -271 1956 l-16 117 -311 0 -311 0 -174 -615 c-149
-525 -191 -655 -191 -593 0 10 -261 938 -321 1141 l-20 67 -309 0 -308 0 -6
-27z"/>
<path d="M10670 5705 l0 -1045 315 0 315 0 2 417 3 417 204 -309 c112 -171
236 -358 274 -417 l69 -108 375 0 375 0 -30 38 c-75 96 -755 987 -764 1002
-11 18 24 65 607 833 l166 217 -343 0 -343 0 -90 -129 c-49 -70 -182 -259
-295 -418 l-205 -290 -3 418 -2 419 -315 0 -315 0 0 -1045z"/>
</g>
</svg>
