<svg width="50" height="50" viewBox="0 0 50 50" fill="none" xmlns="http://www.w3.org/2000/svg">
<path d="M0 24C0 12.686 -3.32677e-06 7.02325 3.51395 3.51395C7.0279 0.00464772 12.686 0 24 0H26C37.314 0 42.9767 -3.32677e-06 46.486 3.51395C49.9954 7.0279 50 12.686 50 24V26C50 37.314 50 42.9767 46.486 46.486C42.9721 49.9954 37.314 50 26 50H24C12.686 50 7.02325 50 3.51395 46.486C0.00464772 42.9721 0 37.314 0 26V24Z" fill="#EE8208"/>
<path d="M24.9884 25.8326C26.4966 25.8326 27.9709 25.3854 29.2249 24.5474C30.4789 23.7095 31.4563 22.5186 32.0335 21.1252C32.6107 19.7318 32.7617 18.1985 32.4674 16.7193C32.1732 15.2401 31.4469 13.8814 30.3805 12.8149C29.314 11.7484 27.9553 11.0222 26.476 10.7279C24.9968 10.4337 23.4636 10.5847 22.0702 11.1619C20.6768 11.739 19.4858 12.7164 18.6479 13.9705C17.81 15.2245 17.3628 16.6988 17.3628 18.207C17.3659 20.2285 18.1703 22.1663 19.5997 23.5957C21.0291 25.0251 22.9669 25.8295 24.9884 25.8326ZM24.9884 15.0419C25.6145 15.0414 26.2266 15.2267 26.7475 15.5742C27.2683 15.9217 27.6743 16.4159 27.9142 16.9942C28.1541 17.5725 28.2171 18.2089 28.0953 18.8231C27.9734 19.4372 27.6722 20.0014 27.2296 20.4442C26.787 20.8871 26.2231 21.1888 25.609 21.3111C24.995 21.4334 24.3585 21.3709 23.78 21.1314C23.2015 20.8919 22.7071 20.4862 22.3592 19.9657C22.0113 19.4451 21.8256 18.8331 21.8256 18.207C21.8256 17.368 22.1587 16.5633 22.7518 15.9697C23.3449 15.3762 24.1493 15.0425 24.9884 15.0419Z" fill="white"/>
<path d="M28.0814 32.0419C29.6549 31.6838 31.1561 31.061 32.521 30.2C32.7784 30.0471 33.0026 29.8443 33.1804 29.6034C33.3582 29.3626 33.486 29.0886 33.5563 28.7976C33.6266 28.5066 33.638 28.2044 33.5897 27.909C33.5415 27.6135 33.4346 27.3307 33.2754 27.0772C33.1162 26.8236 32.9079 26.6045 32.6628 26.4327C32.4176 26.2609 32.1405 26.1399 31.8479 26.0768C31.5552 26.0137 31.2529 26.0098 30.9587 26.0653C30.6646 26.1208 30.3845 26.2346 30.1349 26.4C28.5942 27.3598 26.8153 27.8685 25.0001 27.8685C23.1848 27.8685 21.4059 27.3598 19.8652 26.4C19.3617 26.1009 18.7613 26.0105 18.192 26.148C17.6228 26.2855 17.1299 26.6401 16.8185 27.1361C16.5071 27.632 16.4018 28.23 16.5253 28.8025C16.6487 29.3749 16.991 29.8765 17.4791 30.2C18.8419 31.0649 20.3438 31.688 21.9187 32.0419L17.6466 36.3163C17.4387 36.5238 17.2738 36.7704 17.1613 37.0417C17.0488 37.3131 16.9909 37.6039 16.9909 37.8977C16.9909 38.1914 17.0488 38.4823 17.1613 38.7537C17.2738 39.025 17.4387 39.2715 17.6466 39.4791C18.0695 39.8939 18.6356 40.1304 19.228 40.1395C19.5225 40.142 19.8145 40.0848 20.0863 39.9713C20.3581 39.8578 20.6041 39.6903 20.8094 39.4791L25.0117 35.2768L29.214 39.4791C29.6334 39.8988 30.2024 40.1347 30.7957 40.1349C31.3891 40.1352 31.9582 39.8997 32.3779 39.4802C32.7977 39.0608 33.0336 38.4919 33.0338 37.8985C33.034 37.3052 32.7985 36.736 32.3791 36.3163L28.0814 32.0419Z" fill="white"/>
</svg>
