<?xml version="1.0" standalone="no"?>
<!DOCTYPE svg PUBLIC "-//W3C//DTD SVG 20010904//EN"
 "http://www.w3.org/TR/2001/REC-SVG-20010904/DTD/svg10.dtd">
<svg version="1.0" xmlns="http://www.w3.org/2000/svg"
 width="512.000000pt" height="512.000000pt" viewBox="0 0 512.000000 512.000000"
 preserveAspectRatio="xMidYMid meet">
<metadata>
Created by potrace 1.16, written by Peter Selinger 2001-2019
</metadata>
<g transform="translate(0.000000,512.000000) scale(0.100000,-0.100000)"
fill="#000000" stroke="none">
<path d="M0 2560 l0 -2560 2560 0 2560 0 0 2560 0 2560 -2560 0 -2560 0 0
-2560z m1131 1950 c134 -25 260 -126 321 -257 27 -57 33 -83 36 -158 5 -120
-22 -203 -102 -310 -6 -8 0 -24 17 -47 14 -18 39 -61 54 -93 25 -54 28 -71 28
-170 0 -106 -1 -113 -36 -185 -136 -283 -494 -347 -714 -126 -153 153 -171
404 -41 575 27 36 26 37 -10 87 -120 159 -98 407 49 555 110 112 249 157 398
129z m1074 -5 c129 -34 231 -119 293 -244 36 -73 37 -78 37 -185 0 -104 -2
-115 -32 -179 -46 -96 -125 -176 -221 -222 -97 -47 -136 -77 -173 -132 -36
-51 -54 -101 -64 -171 l-7 -52 251 0 251 0 0 -145 0 -145 -396 0 -397 0 6 203
c5 226 15 276 74 397 53 109 167 220 291 284 109 56 132 84 132 162 0 62 -29
111 -80 136 -30 15 -64 18 -227 18 l-193 0 0 145 0 145 198 0 c145 0 213 -4
257 -15z m2305 -130 l0 -145 -145 0 -145 0 0 145 0 145 145 0 145 0 0 -145z
m0 -600 l0 -145 -145 0 -145 0 0 145 0 145 145 0 145 0 0 -145z m0 -600 l0
-145 -145 0 -145 0 0 145 0 145 145 0 145 0 0 -145z m-2416 -800 c88 -19 198
-73 264 -131 140 -122 226 -330 207 -499 -30 -258 -205 -462 -451 -525 -63
-16 -111 -20 -261 -20 l-183 0 0 -250 0 -250 -145 0 -145 0 0 845 0 845 323 0
c243 0 339 -4 391 -15z m1076 -316 c0 -311 1 -331 18 -324 234 97 455 59 620
-107 220 -219 215 -561 -11 -774 -169 -160 -376 -194 -609 -99 -15 6 -18 2
-18 -24 l0 -31 -145 0 -145 0 0 845 0 845 145 0 145 0 0 -331z"/>
<path d="M984 4216 c-38 -17 -71 -57 -85 -105 -32 -106 70 -208 185 -187 71
14 116 73 116 154 0 111 -112 183 -216 138z"/>
<path d="M984 3616 c-38 -17 -71 -57 -85 -105 -32 -106 70 -208 185 -187 71
14 116 73 116 154 0 111 -112 183 -216 138z"/>
<path d="M1670 1795 l0 -307 193 4 c176 3 196 5 238 26 194 95 234 351 79 496
-79 74 -98 79 -317 84 l-193 4 0 -307z"/>
<path d="M3338 1485 c-59 -22 -102 -60 -134 -117 -24 -44 -29 -64 -29 -123 0
-59 5 -79 30 -123 75 -137 252 -174 377 -79 146 111 126 346 -37 429 -51 27
-156 33 -207 13z"/>
</g>
</svg>
