<?xml version="1.0" encoding="UTF-8" standalone="no"?>
<svg
   xmlns:dc="http://purl.org/dc/elements/1.1/"
   xmlns:cc="http://creativecommons.org/ns#"
   xmlns:rdf="http://www.w3.org/1999/02/22-rdf-syntax-ns#"
   xmlns:svg="http://www.w3.org/2000/svg"
   xmlns="http://www.w3.org/2000/svg"
   viewBox="0 0 933.33331 933.33331"
   height="933.33331"
   width="933.33331"
   xml:space="preserve"
   id="svg2"
   version="1.1"><metadata
     id="metadata8"><rdf:RDF><cc:Work
         rdf:about=""><dc:format>image/svg+xml</dc:format><dc:type
           rdf:resource="http://purl.org/dc/dcmitype/StillImage" /></cc:Work></rdf:RDF></metadata><defs
     id="defs6" /><g
     transform="matrix(1.3333333,0,0,-1.3333333,0,933.33333)"
     id="g10"><g
       transform="translate(692.5557,377.9629)"
       id="g12"><path
         id="path14"
         style="fill:#545757;fill-opacity:1;fill-rule:nonzero;stroke:none"
         d="m 0,0 -1.089,0.776 -1.089,0.733 -1.088,0.679 -1.088,0.69 -1.089,0.636 -1.088,0.603 -1.078,0.55 -1.089,0.56 -1.154,0.507 -1.077,0.474 -1.153,0.474 -1.089,0.421 -2.285,0.775 -1.142,0.346 -1.142,0.334 -1.154,0.258 -1.142,0.302 -1.143,0.258 -1.207,0.216 -1.196,0.205 -1.143,0.173 -1.207,0.172 -1.26,0.129 -2.404,0.216 -2.522,0.172 -2.457,0.087 -2.576,0.032 -1.714,-0.032 -1.725,-0.044 -1.713,-0.129 -1.66,-0.129 -1.66,-0.173 -1.659,-0.258 -1.541,-0.248 -1.553,-0.356 -1.487,-0.334 -1.488,-0.431 -1.433,-0.42 -1.368,-0.518 -1.316,-0.517 -1.314,-0.593 -1.261,-0.647 -1.207,-0.636 -1.143,-0.732 -1.088,-0.766 -0.97,-0.819 -0.971,-0.851 -0.861,-0.895 -0.863,-0.948 -0.744,-0.981 -0.689,-1.024 -0.625,-1.121 -0.518,-1.099 -0.453,-1.207 -0.398,-1.197 -0.291,-1.282 -0.227,-1.326 -0.118,-1.369 -0.054,-1.411 v -1.24 l 0.054,-1.239 0.172,-1.154 0.173,-1.12 0.226,-1.067 0.291,-1.024 0.345,-0.981 0.345,-0.948 0.507,-0.895 0.462,-0.895 0.518,-0.819 0.571,-0.808 0.625,-0.733 0.69,-0.722 0.69,-0.679 0.743,-0.647 0.852,-0.647 0.862,-0.549 0.863,-0.56 0.916,-0.507 0.969,-0.474 1.025,-0.431 1.034,-0.42 1.142,-0.389 1.089,-0.388 1.207,-0.302 1.197,-0.291 1.26,-0.301 1.316,-0.259 1.261,-0.215 1.379,-0.173 1.422,-0.216 24.671,-2.726 1.154,-0.14 1.023,-0.162 0.971,-0.216 0.807,-0.258 0.798,-0.258 0.69,-0.302 0.571,-0.334 0.518,-0.389 0.517,-0.43 0.334,-0.475 0.345,-0.506 0.237,-0.507 0.161,-0.603 0.119,-0.604 0.119,-0.678 0.053,-0.734 -0.053,-0.56 -0.119,-0.55 -0.053,-0.549 -0.173,-0.518 -0.227,-0.474 -0.236,-0.463 -0.334,-0.475 -0.346,-0.43 -0.409,-0.432 -0.398,-0.377 -0.454,-0.388 -0.517,-0.388 -0.517,-0.334 -0.625,-0.302 -0.636,-0.345 -0.679,-0.259 -0.636,-0.301 -0.744,-0.248 -0.743,-0.215 -0.798,-0.216 -0.809,-0.216 -0.85,-0.172 -0.917,-0.173 -0.862,-0.129 -1.886,-0.248 -2.005,-0.172 -2.059,-0.086 -2.176,-0.043 -2.231,0.043 -2.178,0.086 -2.112,0.215 -2.123,0.259 -2.112,0.334 -2.005,0.431 -2.005,0.464 -1.95,0.603 -1.941,0.69 -1.951,0.722 -1.95,0.809 -1.887,0.948 -1.886,0.981 -1.885,1.11 -1.898,1.164 -1.885,1.282 -7.836,-12.793 1.078,-0.776 1.089,-0.765 1.087,-0.722 1.154,-0.69 1.078,-0.646 1.034,-0.637 1.143,-0.604 1.089,-0.592 1.142,-0.56 1.034,-0.517 1.143,-0.464 1.142,-0.474 1.089,-0.464 1.154,-0.388 1.142,-0.388 1.142,-0.377 1.142,-0.345 1.207,-0.302 1.197,-0.301 1.142,-0.259 1.207,-0.215 1.262,-0.205 1.196,-0.216 1.261,-0.172 1.261,-0.13 1.315,-0.129 1.261,-0.13 1.369,-0.085 2.694,-0.119 2.748,-0.054 2.059,0.054 2.005,0.033 2.004,0.129 1.951,0.172 1.832,0.172 1.887,0.259 1.767,0.302 1.724,0.291 1.768,0.388 1.606,0.42 1.606,0.474 1.541,0.518 1.487,0.549 1.433,0.604 1.38,0.679 1.315,0.69 1.251,0.765 1.153,0.819 1.088,0.809 1.024,0.905 0.981,0.937 0.905,1.024 0.809,1.024 0.743,1.121 0.625,1.154 0.571,1.152 0.518,1.283 0.398,1.282 0.291,1.327 0.227,1.411 0.173,1.455 0.053,1.498 -0.053,1.24 -0.12,1.196 -0.107,1.164 -0.173,1.11 -0.291,1.11 -0.28,1.025 -0.345,1.023 -0.398,0.938 -0.464,0.948 -0.518,0.894 -0.571,0.863 -0.57,0.808 -0.68,0.82 -0.743,0.722 -0.691,0.733 -0.861,0.678 -0.798,0.647 -0.916,0.636 -0.916,0.561 -0.971,0.549 -1.034,0.518 -1.035,0.506 -2.284,0.862 -1.207,0.388 -1.251,0.377 -2.522,0.604 -1.379,0.291 -1.37,0.216 -1.432,0.258 -1.434,0.172 -22.03,2.479 -1.088,0.13 -1.035,0.172 -0.916,0.129 -0.916,0.216 -0.798,0.173 -0.862,0.247 -0.69,0.259 -0.678,0.302 -0.572,0.387 -0.517,0.378 -0.227,0.215 -0.236,0.216 -0.227,0.258 -0.173,0.259 -0.107,0.258 -0.173,0.291 -0.236,0.604 -0.109,0.689 -0.064,0.378 v 0.776 l 0.064,0.388 0.054,0.334 0.054,0.388 0.119,0.377 0.518,1.035 0.171,0.334 0.281,0.356 0.291,0.334 0.689,0.603 0.4,0.291 0.452,0.302 0.464,0.259 0.517,0.258 0.571,0.259 0.571,0.247 0.679,0.216 0.69,0.216 0.744,0.172 0.808,0.215 0.851,0.13 0.916,0.172 0.982,0.129 1.023,0.087 1.035,0.086 1.142,0.086 1.197,0.032 1.207,0.043 h 3.491 l 2.114,-0.075 4.008,-0.345 1.886,-0.302 1.898,-0.345 1.832,-0.388 1.832,-0.463 1.767,-0.518 1.725,-0.603 1.66,-0.679 1.714,-0.776 1.659,-0.808 1.607,-0.895 1.659,-1.024 1.595,-1.077 z m -160.319,9.075 v -37.13 l 0.032,-2.219 0.14,-2.146 0.162,-2.091 0.312,-2.058 0.388,-1.961 0.431,-1.93 0.56,-1.843 0.605,-1.746 0.689,-1.714 0.732,-1.67 0.863,-1.542 0.916,-1.541 0.949,-1.412 1.077,-1.357 1.121,-1.337 1.175,-1.196 1.25,-1.154 1.337,-1.109 1.379,-1.024 1.476,-0.949 1.509,-0.851 1.553,-0.809 1.638,-0.732 1.735,-0.636 1.725,-0.561 1.81,-0.517 1.908,-0.42 1.908,-0.346 1.983,-0.258 2.026,-0.215 2.08,-0.119 2.113,-0.054 2.155,0.054 2.08,0.119 2.016,0.215 1.95,0.258 1.94,0.346 1.897,0.42 1.767,0.517 1.779,0.561 1.714,0.636 1.606,0.732 1.605,0.809 1.541,0.851 1.434,0.949 1.369,1.024 1.315,1.109 1.26,1.154 1.208,1.196 1.142,1.337 1.035,1.357 0.97,1.412 0.916,1.541 0.862,1.542 0.744,1.67 0.679,1.714 0.636,1.746 0.507,1.843 0.463,1.93 0.345,1.961 0.281,2.058 0.236,2.091 0.108,2.146 0.065,2.219 v 37.13 h -16.609 V -29.51 l -0.053,-1.282 -0.12,-1.239 -0.161,-1.197 -0.173,-1.207 -0.172,-1.153 -0.291,-1.11 -0.281,-1.068 -0.344,-1.023 -0.345,-0.991 -0.463,-0.982 -0.399,-0.894 -0.518,-0.895 -0.57,-0.862 -0.572,-0.765 -0.626,-0.776 -0.635,-0.722 -0.744,-0.69 -0.744,-0.636 -1.594,-1.121 -0.863,-0.506 -0.969,-0.475 -0.982,-0.376 -1.023,-0.389 -1.035,-0.302 -1.142,-0.302 -1.143,-0.204 -1.164,-0.173 -1.25,-0.129 -1.294,-0.085 h -2.683 l -1.25,0.085 -1.261,0.129 -1.207,0.173 -1.164,0.204 -1.078,0.302 -1.089,0.302 -0.991,0.389 -0.991,0.376 -0.907,0.475 -0.905,0.506 -0.818,0.56 -0.787,0.561 -0.777,0.636 -0.689,0.69 -0.69,0.722 -0.603,0.776 -0.561,0.765 -0.56,0.862 -0.486,0.895 -0.473,0.894 -0.432,0.982 -0.345,0.991 -0.344,1.023 -0.302,1.068 -0.259,1.11 -0.216,1.153 -0.172,1.207 -0.13,1.197 -0.085,1.239 -0.043,1.282 -0.043,1.326 V 9.075 Z m -93.983,0 34.392,-54.622 v -18.139 h 16.372 v 18.139 l 34.574,54.622 h -19.012 l -22.73,-38.844 h -1.077 l -23.55,38.844 z m -52.283,0 v -72.761 h 67.275 v 14.841 h -50.634 v 57.92 z m -12.179,-36.45 -0.086,2.101 -0.129,2.091 -0.302,2.016 -0.345,2.015 -0.474,1.919 -0.56,1.885 -0.658,1.789 -0.776,1.801 -0.819,1.713 -0.948,1.67 -1.003,1.574 -1.067,1.542 -1.174,1.498 -1.207,1.411 -1.337,1.326 -1.39,1.283 -1.423,1.25 -1.509,1.153 -1.563,1.067 -1.595,1.024 -1.682,0.938 -1.735,0.862 -1.767,0.765 -1.811,0.733 -1.864,0.593 -1.897,0.56 -1.951,0.475 -1.983,0.377 -1.983,0.344 -2.037,0.216 -2.07,0.13 -2.069,0.032 -2.08,-0.032 -2.069,-0.13 -2.037,-0.216 -2.037,-0.344 -1.94,-0.377 -1.94,-0.475 -1.897,-0.56 -1.865,-0.593 -1.81,-0.733 -1.779,-0.765 -1.724,-0.862 -1.681,-0.938 -1.649,-1.024 -1.553,-1.067 -1.508,-1.153 -1.423,-1.25 -1.39,-1.283 -1.294,-1.326 -1.218,-1.411 -1.164,-1.498 -1.121,-1.542 -0.991,-1.574 -0.905,-1.67 -0.873,-1.713 -0.722,-1.801 -0.647,-1.789 -0.571,-1.885 -0.475,-1.919 -0.388,-2.015 -0.258,-2.016 -0.173,-2.091 -0.043,-2.101 0.043,-2.135 0.173,-2.101 0.258,-2.005 0.388,-1.972 0.475,-1.962 0.571,-1.843 0.647,-1.842 0.722,-1.789 0.873,-1.714 0.905,-1.66 0.991,-1.584 1.121,-1.541 1.164,-1.456 1.218,-1.455 1.294,-1.326 1.39,-1.282 1.423,-1.239 1.508,-1.164 1.553,-1.068 1.649,-0.98 1.681,-0.948 1.724,-0.852 1.779,-0.809 1.81,-0.689 1.865,-0.636 1.897,-0.56 1.94,-0.464 1.94,-0.388 2.037,-0.302 2.037,-0.215 2.069,-0.162 2.08,-0.054 2.069,0.054 2.07,0.162 2.037,0.215 1.983,0.302 1.983,0.388 1.951,0.464 1.897,0.56 1.864,0.636 1.811,0.689 1.767,0.809 1.735,0.852 1.682,0.948 1.595,0.98 1.563,1.068 1.509,1.164 1.423,1.239 1.39,1.282 1.337,1.326 1.207,1.455 1.174,1.456 1.067,1.541 1.003,1.584 0.948,1.66 0.819,1.714 0.776,1.789 0.658,1.842 0.56,1.843 0.474,1.962 0.345,1.972 0.302,2.005 0.129,2.101 z m -65.798,0 v 1.368 l 0.119,1.369 0.129,1.337 0.226,1.239 0.259,1.283 0.334,1.196 0.388,1.153 0.442,1.153 0.474,1.067 0.517,1.067 0.604,0.992 0.603,0.981 0.69,0.937 0.744,0.862 0.776,0.852 0.776,0.808 0.862,0.733 0.862,0.722 0.96,0.647 0.948,0.636 0.992,0.56 1.034,0.561 1.078,0.474 1.078,0.42 1.131,0.388 1.121,0.345 1.207,0.248 1.165,0.258 1.25,0.173 1.261,0.129 1.25,0.086 1.304,0.043 1.293,-0.043 1.25,-0.086 1.251,-0.129 1.207,-0.173 1.218,-0.258 1.164,-0.248 1.164,-0.345 1.12,-0.388 1.079,-0.42 1.088,-0.474 1.983,-1.121 1.002,-0.636 0.895,-0.647 0.916,-0.722 0.819,-0.733 0.82,-0.808 0.775,-0.852 0.744,-0.862 0.647,-0.937 0.647,-0.981 0.56,-0.992 0.561,-1.067 0.473,-1.067 0.432,-1.153 0.388,-1.153 0.301,-1.196 0.313,-1.283 0.205,-1.239 0.129,-1.337 0.086,-1.369 0.053,-1.368 -0.053,-1.413 -0.086,-1.315 -0.129,-1.335 -0.205,-1.284 -0.313,-1.239 -0.301,-1.239 -0.388,-1.154 -0.432,-1.11 -0.473,-1.109 -0.561,-1.035 -0.56,-1.024 -0.647,-0.981 -0.647,-0.895 -0.744,-0.905 -0.775,-0.852 -0.82,-0.775 -0.819,-0.766 -0.916,-0.732 -0.895,-0.636 -1.002,-0.647 -0.991,-0.55 -0.992,-0.517 -1.088,-0.507 -1.079,-0.43 -1.12,-0.389 -1.164,-0.345 -1.164,-0.258 -1.218,-0.247 -1.207,-0.173 -1.251,-0.129 -1.25,-0.087 h -2.597 l -1.25,0.087 -1.261,0.129 -1.25,0.173 -1.165,0.247 -1.207,0.258 -1.121,0.345 -1.131,0.389 -1.078,0.43 -1.078,0.507 -1.034,0.517 -0.992,0.55 -0.948,0.647 -0.96,0.636 -0.862,0.732 -0.862,0.766 -0.776,0.775 -0.776,0.852 -0.744,0.905 -0.69,0.895 -0.603,0.981 -0.604,1.024 -0.517,1.035 -0.474,1.109 -0.442,1.11 -0.388,1.154 -0.334,1.239 -0.259,1.239 -0.226,1.284 -0.129,1.335 -0.119,1.315 z m -83.916,21.437 h 26.88 l 0.776,-0.043 1.466,-0.173 0.732,-0.173 0.69,-0.129 0.69,-0.215 0.647,-0.216 0.658,-0.205 0.646,-0.302 0.604,-0.301 0.56,-0.291 0.561,-0.356 0.517,-0.377 0.528,-0.431 0.474,-0.431 0.474,-0.42 0.431,-0.475 0.432,-0.506 0.344,-0.518 0.389,-0.56 0.301,-0.55 0.302,-0.603 0.258,-0.593 0.259,-0.647 0.215,-0.636 0.173,-0.689 0.183,-0.722 0.076,-0.69 0.086,-0.766 0.043,-0.775 0.042,-0.766 -0.042,-0.776 -0.043,-0.765 -0.086,-0.722 -0.076,-0.69 -0.183,-0.679 -0.173,-0.69 -0.215,-0.646 -0.259,-0.593 -0.258,-0.604 -0.302,-0.592 -0.301,-0.518 -0.389,-0.561 -0.344,-0.463 -0.432,-0.474 -0.431,-0.463 -0.474,-0.431 -0.474,-0.389 -0.528,-0.387 -0.517,-0.334 -0.561,-0.345 -0.56,-0.302 -0.604,-0.259 -0.646,-0.258 -0.658,-0.206 -0.647,-0.214 -1.38,-0.345 -0.732,-0.086 -0.733,-0.13 -0.733,-0.043 -0.776,-0.043 h -26.88 z m -16.587,15.013 v -72.761 h 16.587 v 16.166 h 26.75 l 1.596,0.043 1.595,0.087 1.552,0.172 1.52,0.216 1.465,0.248 1.477,0.356 1.422,0.377 1.38,0.474 1.347,0.506 1.337,0.561 1.25,0.635 1.207,0.691 1.207,0.732 1.121,0.766 1.088,0.851 1.035,0.906 0.992,0.894 0.949,1.024 0.905,1.024 0.829,1.066 0.777,1.164 0.689,1.154 0.647,1.239 0.604,1.24 0.517,1.325 0.474,1.326 0.399,1.412 0.302,1.412 0.258,1.498 0.216,1.498 0.086,1.541 0.043,1.584 -0.043,1.585 -0.086,1.584 -0.216,1.488 -0.258,1.498 -0.302,1.412 -0.399,1.411 -0.474,1.369 -0.517,1.326 -0.604,1.293 -0.647,1.229 -0.689,1.207 -0.777,1.153 -0.829,1.11 -0.905,1.067 -0.949,0.981 -0.992,0.992 -1.035,0.895 -1.088,0.851 -1.121,0.819 -1.207,0.765 -1.207,0.69 -1.25,0.679 -1.337,0.561 -1.347,0.55 -1.38,0.474 -1.422,0.387 -1.477,0.378 -1.465,0.302 -1.52,0.215 -1.552,0.173 -1.595,0.086 -1.596,0.043 z" /></g><g
       transform="translate(86.7258,420.8265)"
       id="g16"><path
         id="path18"
         style="fill:#fac70a;fill-opacity:1;fill-rule:nonzero;stroke:none"
         d="m 0,0 -27.958,-1.067 -0.646,-0.044 -0.561,-0.086 -0.56,-0.129 -0.528,-0.173 -0.948,-0.431 -0.388,-0.248 -0.388,-0.302 -0.604,-0.689 -0.258,-0.377 -0.259,-0.389 -0.172,-0.43 -0.172,-0.464 -0.259,-0.948 -5.529,-33.109 -0.086,-0.464 v -0.992 l 0.043,-0.463 0.086,-0.431 0.129,-0.464 0.173,-0.431 0.216,-0.431 0.215,-0.388 0.301,-0.377 0.345,-0.345 0.389,-0.345 0.431,-0.334 0.473,-0.302 1.122,-0.517 26.146,-9.959 0.216,-0.086 0.216,-0.053 0.215,-0.033 h 0.215 l 0.216,0.033 h 0.215 l 0.216,0.085 0.173,0.087 0.215,0.086 0.172,0.129 0.129,0.129 0.141,0.13 0.118,0.172 0.172,0.432 0.044,0.204 8.686,51.679 0.044,0.205 v 0.27 L 2.112,-1.499 2.07,-1.283 1.984,-1.067 1.897,-0.895 1.768,-0.723 1.639,-0.593 1.466,-0.474 1.293,-0.345 1.078,-0.205 0.905,-0.13 0.259,0 Z m 47.315,-28.53 -0.475,-0.043 -0.528,-0.043 -33.486,-4.959 -0.507,-0.085 -0.485,-0.13 -0.862,-0.344 -0.431,-0.259 -0.388,-0.248 -0.345,-0.269 -0.344,-0.335 -0.303,-0.387 -0.258,-0.378 -0.258,-0.431 -0.227,-0.474 -0.172,-0.518 -0.13,-0.549 -0.086,-0.55 -0.033,-0.646 -1.562,-27.678 v -0.215 l 0.043,-0.216 0.043,-0.247 0.044,-0.173 0.085,-0.215 0.086,-0.173 0.129,-0.215 0.13,-0.13 0.173,-0.162 0.183,-0.139 0.172,-0.076 0.162,-0.086 0.226,-0.053 0.205,-0.034 h 0.442 l 52.314,7.783 0.26,0.042 0.172,0.086 0.216,0.076 0.171,0.14 0.184,0.129 0.119,0.119 0.139,0.172 0.087,0.216 0.086,0.173 0.13,0.646 v 0.215 l -0.043,0.205 -0.087,0.431 -9.678,26.007 -0.259,0.604 -0.258,0.506 -0.302,0.475 -0.313,0.474 -0.334,0.377 -0.355,0.345 -0.388,0.301 -0.389,0.259 -0.431,0.205 -0.431,0.172 -0.431,0.129 -0.948,0.173 z m -120.981,-10.604 -0.431,-0.086 -0.173,-0.043 -0.216,-0.087 -0.172,-0.129 -0.183,-0.13 -0.129,-0.129 -0.162,-0.173 -0.14,-0.162 -0.087,-0.182 -0.085,-0.205 -0.087,-0.216 -7.554,-26.696 -0.13,-0.592 -0.011,-0.047 v -2.768 l 0.097,-0.354 0.172,-0.431 0.216,-0.421 0.517,-0.776 0.346,-0.334 0.344,-0.302 0.388,-0.301 0.388,-0.26 0.431,-0.258 30.113,-15.402 0.442,-0.204 0.474,-0.173 0.475,-0.128 0.431,-0.13 0.474,-0.043 h 0.949 l 0.474,0.085 0.431,0.131 0.484,0.172 0.421,0.173 0.474,0.29 0.442,0.302 0.431,0.344 0.431,0.432 0.389,0.463 17.621,21.556 0.14,0.183 0.13,0.205 0.085,0.173 0.087,0.215 0.032,0.215 0.054,0.216 v 0.215 l -0.054,0.216 -0.032,0.204 -0.043,0.173 -0.087,0.215 -0.085,0.173 -0.141,0.172 -0.171,0.129 -0.173,0.119 -0.162,0.141 -47.056,24.034 -0.174,0.087 -0.215,0.085 -0.215,0.044 z m 102.572,-38.456 -0.56,-0.043 -0.56,-0.129 -0.615,-0.13 -27.041,-7.274 -0.216,-0.087 -0.172,-0.086 -0.215,-0.13 -0.173,-0.118 -0.173,-0.129 -0.14,-0.173 -0.119,-0.172 -0.129,-0.173 -0.086,-0.171 -0.086,-0.216 -0.054,-0.173 v -0.421 l 0.054,-0.215 0.032,-0.215 0.086,-0.216 23.991,-46.7 0.119,-0.183 0.14,-0.162 0.13,-0.172 0.172,-0.13 0.173,-0.086 0.215,-0.086 0.172,-0.086 0.216,-0.043 h 0.431 l 0.647,0.129 0.172,0.086 0.215,0.129 0.173,0.131 21.911,17.318 0.475,0.388 0.431,0.432 0.344,0.42 0.345,0.432 0.259,0.419 0.215,0.475 0.172,0.431 0.087,0.464 0.086,0.473 0.043,0.432 -0.043,0.474 -0.043,0.463 -0.086,0.475 -0.129,0.474 -0.173,0.421 -0.215,0.473 -15.337,29.898 -0.258,0.432 -0.259,0.387 -0.302,0.377 -0.312,0.344 -0.335,0.347 -0.388,0.301 -0.399,0.205 -0.388,0.215 -0.474,0.173 -0.473,0.129 -0.475,0.086 -0.517,0.086 z m -50.289,-6.326 -0.227,-0.054 -0.215,-0.043 -0.215,-0.033 -0.173,-0.14 -0.173,-0.075 -0.172,-0.173 -37.668,-36.784 -0.172,-0.172 -0.14,-0.173 -0.087,-0.173 -0.085,-0.215 -0.044,-0.204 -0.043,-0.216 0.043,-0.172 v -0.216 l 0.044,-0.215 0.085,-0.173 0.087,-0.216 0.086,-0.161 0.139,-0.173 0.162,-0.172 0.173,-0.173 0.172,-0.128 23.291,-15.403 0.517,-0.334 0.571,-0.269 0.518,-0.204 0.517,-0.173 0.475,-0.129 0.517,-0.044 0.474,-0.043 0.948,0.087 0.431,0.129 0.475,0.13 0.398,0.215 0.421,0.216 0.388,0.29 0.399,0.302 0.388,0.345 24.109,23.517 0.346,0.345 0.604,0.776 0.215,0.42 0.215,0.431 0.173,0.431 0.086,0.421 0.086,0.474 0.043,0.474 -0.043,0.475 -0.044,0.506 -0.128,0.506 -0.13,0.518 -0.215,0.517 -0.302,0.507 -0.303,0.561 -15.206,23.226 -0.13,0.215 -0.173,0.172 -0.344,0.259 -0.184,0.119 -0.172,0.086 -0.205,0.086 -0.215,0.043 -0.226,0.054 z" /></g></g></svg>