<svg width="69" height="69" viewBox="0 0 69 69" fill="none" xmlns="http://www.w3.org/2000/svg">
<path d="M34.5 1.5835C16.3207 1.5835 1.58337 16.3208 1.58337 34.5002C1.58337 52.6794 16.3207 67.4168 34.5 67.4168C52.6793 67.4168 67.4167 52.6794 67.4167 34.5002C67.4167 16.3208 52.6793 1.5835 34.5 1.5835Z" stroke="black" stroke-width="1.5" stroke-linecap="round" stroke-linejoin="round"/>
<path d="M9.05872 55.3876C9.05872 55.3876 16.3959 46.0205 34.5 46.0205C52.6042 46.0205 59.9416 55.3876 59.9416 55.3876" stroke="black" stroke-width="1.5" stroke-linecap="round" stroke-linejoin="round"/>
<path d="M34.5 34.5C39.954 34.5 44.375 30.079 44.375 24.625C44.375 19.1712 39.954 14.75 34.5 14.75C29.046 14.75 24.625 19.1712 24.625 24.625C24.625 30.079 29.046 34.5 34.5 34.5Z" stroke="black" stroke-width="1.5" stroke-linecap="round" stroke-linejoin="round"/>
</svg>
