<?xml version="1.0" encoding="UTF-8" standalone="no"?>
<svg
   xmlns:dc="http://purl.org/dc/elements/1.1/"
   xmlns:cc="http://creativecommons.org/ns#"
   xmlns:rdf="http://www.w3.org/1999/02/22-rdf-syntax-ns#"
   xmlns:svg="http://www.w3.org/2000/svg"
   xmlns="http://www.w3.org/2000/svg"
   viewBox="0 0 341.33334 68"
   height="68"
   width="341.33334"
   xml:space="preserve"
   id="svg2"
   version="1.1"><metadata
     id="metadata8"><rdf:RDF><cc:Work
         rdf:about=""><dc:format>image/svg+xml</dc:format><dc:type
           rdf:resource="http://purl.org/dc/dcmitype/StillImage" /></cc:Work></rdf:RDF></metadata><defs
     id="defs6" /><g
     transform="matrix(1.3333333,0,0,-1.3333333,0,68)"
     id="g10"><g
       transform="scale(0.1)"
       id="g12"><path
         id="path14"
         style="fill:#a6a6a6;fill-opacity:1;fill-rule:evenodd;stroke:none"
         d="M 4.85547,255.488 C 4.85547,119.922 115.129,9.66797 250.664,9.66797 386.23,9.66797 496.496,119.922 496.496,255.488 496.496,391.055 386.23,501.352 250.664,501.352 115.129,501.352 4.85547,391.059 4.85547,255.488 Z m 21.60153,0 c 0,123.625 100.555,224.227 224.207,224.227 123.645,0 224.211,-100.602 224.211,-224.227 0,-123.593 -100.566,-224.2185 -224.211,-224.2185 -123.652,0 -224.207,100.6255 -224.207,224.2185" /><path
         id="path16"
         style="fill:#176fc1;fill-opacity:1;fill-rule:evenodd;stroke:none"
         d="M 182.785,203.594 292.48,393.586 402.129,203.594 Z" /><path
         id="path18"
         style="fill:#a6a6a6;fill-opacity:1;fill-rule:evenodd;stroke:none"
         d="M 220.793,398.258 C 185.516,337.09 106.809,200.801 97.9414,185.469 c -17.4414,0 -63.7539,0 -63.7539,0 v -43.203 h 76.2345 c 7.734,0 14.863,4.101 18.719,10.781 0,0 112.5,195.695 137.363,239.93 6.707,11.875 18.633,10.375 18.594,10.414 -7.149,14.254 -41.66,29.05 -64.305,-5.133" /><path
         id="path20"
         style="fill:#176fc1;fill-opacity:1;fill-rule:evenodd;stroke:none"
         d="m 907.805,257.266 66.375,115.039 66.41,-115.039 z" /><path
         id="path22"
         style="fill:#a6a6a6;fill-opacity:1;fill-rule:evenodd;stroke:none"
         d="m 923.555,375.266 c -22.422,-38.86 -70.203,-122.844 -75.879,-132.61 -11.082,0 -179.629,0 -179.629,0 V 212.5 h 190.359 c 4.926,0 9.465,2.598 11.926,6.836 0,0 71.547,124.453 87.344,152.578 4.238,7.594 11.828,6.594 11.828,6.594 -4.59,9.16 -31.504,18.5 -45.949,-3.242" /><path
         id="path24"
         style="fill:#176fc1;fill-opacity:1;fill-rule:evenodd;stroke:none"
         d="m 1480.11,257.266 66.37,115.039 66.38,-115.039 z" /><path
         id="path26"
         style="fill:#a6a6a6;fill-opacity:1;fill-rule:evenodd;stroke:none"
         d="m 1495.87,375.266 c -22.44,-38.86 -70.28,-122.844 -75.9,-132.61 -11.09,0 -517.302,0 -517.302,0 L 885.559,212.5 H 1430.7 c 4.92,0 9.48,2.598 11.91,6.836 0,0 71.54,124.453 87.32,152.578 4.26,7.594 11.88,6.664 11.88,6.664 -4.59,9.09 -31.55,18.43 -45.94,-3.312" /><path
         id="path28"
         style="fill:#176fc1;fill-opacity:1;fill-rule:evenodd;stroke:none"
         d="m 2236.77,257.266 66.43,115.039 66.36,-115.039 z" /><path
         id="path30"
         style="fill:#a6a6a6;fill-opacity:1;fill-rule:evenodd;stroke:none"
         d="m 2252.57,375.266 c -22.42,-38.86 -70.32,-122.844 -75.9,-132.61 -11.09,0 -699.53,0 -699.53,0 L 1460.03,212.5 h 727.33 c 4.96,0 9.44,2.598 11.91,6.836 0,0 71.54,124.453 87.34,152.578 4.28,7.594 11.9,6.664 11.9,6.664 -4.59,9.09 -31.59,18.43 -45.94,-3.312" /><path
         id="path32"
         style="fill:#a6a6a6;fill-opacity:1;fill-rule:evenodd;stroke:none"
         d="M 2552.9,242.656 H 2230.07 L 2212.92,212.5 h 339.98 v 30.156" /><path
         id="path34"
         style="fill:#176fc1;fill-opacity:1;fill-rule:evenodd;stroke:none"
         d="M 684.25,384.102 H 669.121 V 257.266 h 30.266 c 0,0 -0.004,24.453 -0.004,47.949 15.129,0 109.152,0 109.152,0 26.281,0 40.449,20.672 40.449,40.14 0,10.153 -3.671,19.684 -10.343,26.696 -5.223,5.492 -14.684,12.051 -30.106,12.051 z m 124.285,-30.266 c 2.551,0 6.113,-0.457 8.137,-2.606 1.777,-1.886 2.039,-4.523 2.039,-5.875 0,-1.644 -0.457,-9.878 -10.176,-9.878 0,0 -94.023,0 -109.152,0 0.004,7.668 0,14.054 0,18.359 23.375,0 109.152,0 109.152,0" /><path
         id="path36"
         style="fill:#176fc1;fill-opacity:1;fill-rule:evenodd;stroke:none"
         d="m 1075.53,384.102 c -19.61,0 -31.34,-11.727 -31.34,-31.368 v -64.129 c 0,-19.613 11.73,-31.339 31.34,-31.339 h 140.45 v 30.273 h -140.45 c 0,0 -0.54,0.059 -0.97,0.059 -0.07,0.507 -0.11,1.007 -0.11,1.007 v 64.129 c 0,0 0.04,0.567 0.11,1.036 0.43,0 0.97,0.066 0.97,0.066 h 140.45 v 30.266 h -140.45" /><path
         id="path38"
         style="fill:#176fc1;fill-opacity:1;fill-rule:evenodd;stroke:none"
         d="m 2537.22,384.102 h -119.63 c -15.45,0 -24.88,-6.559 -30.14,-12.051 -6.66,-7.012 -10.33,-16.543 -10.33,-26.696 0,-8.382 2.75,-16.859 7.85,-23.917 -4.7,-5.676 -7.5,-12.59 -7.5,-20.364 v -43.808 h 30.28 v 43.808 c 0,1.68 3.49,4.141 9.84,4.141 0,0 89.51,0 104.55,0 0,-23.496 0,-47.949 0,-47.949 h 30.25 v 126.836 z m -119.63,-48.625 c -9.75,0 -10.2,8.234 -10.2,9.878 0,1.352 0.28,3.993 2.06,5.875 2.01,2.149 5.52,2.606 8.14,2.606 0,0 81.41,0 104.55,0 0,-4.305 0,-10.691 0,-18.359 -15.04,0 -104.55,0 -104.55,0" /><path
         id="path40"
         style="fill:#176fc1;fill-opacity:1;fill-rule:evenodd;stroke:none"
         d="m 1848.14,384.102 c -19.61,0 -31.33,-11.727 -31.33,-31.368 v -64.129 c 0,-19.613 11.72,-31.339 31.33,-31.339 h 140.49 v 30.273 h -140.49 c 0,0 -0.53,0.059 -0.96,0.059 -0.08,0.507 -0.12,1.007 -0.12,1.007 v 64.129 c 0,0 0.04,0.567 0.12,1.036 0.43,0 0.96,0.066 0.96,0.066 h 140.49 v 30.266 h -140.49" /><path
         id="path42"
         style="fill:#176fc1;fill-opacity:1;fill-rule:evenodd;stroke:none"
         d="M 1395.18,384.102 H 1236.86 V 257.266 h 30.28 c 0,0 0,73.933 0,96.57 21.34,0 91.58,0 112.89,0 0,-22.637 0,-96.57 0,-96.57 h 30.31 v 126.836 h -15.16" /><path
         id="path44"
         style="fill:#176fc1;fill-opacity:1;fill-rule:evenodd;stroke:none"
         d="m 1798.94,287.539 v 65.195 c 0,19.641 -11.73,31.368 -31.33,31.368 h -107.7 c -19.65,0 -31.37,-11.727 -31.37,-31.368 l 0.01,-65.195 h -7.27 v -30.273 h 185.65 v 30.273 z m -140.14,65.195 c 0,0 0.08,0.567 0.15,1.036 0.39,0 0.96,0.066 0.96,0.066 h 107.7 c 0,0 0.53,-0.066 1,-0.066 0.03,-0.469 0.07,-1.036 0.07,-1.036 V 287.539 H 1658.8 v 65.195" /><path
         id="path46"
         style="fill:#176fc1;fill-opacity:1;fill-rule:evenodd;stroke:none"
         d="m 2074.8,322.012 c 28.12,18.144 96.38,62.09 96.38,62.09 h -55.93 l -80.41,-51.797 v 51.797 h -30.28 V 257.266 h 30.28 v 54.336 l 3.73,-2.434 81.52,-51.902 h 55.37 c 0,0 -73.09,47.172 -100.66,64.746" /><path
         id="path48"
         style="fill:#000000;fill-opacity:1;fill-rule:evenodd;stroke:none"
         d="m 695.371,118.965 c -22.527,0 -29.336,17.031 -29.336,28.867 0,11.875 6.809,28.867 29.336,28.867 22.551,0 29.395,-16.992 29.395,-28.867 0,-11.836 -6.844,-28.867 -29.395,-28.867 z m 0,51.191 c -13.094,0 -20.937,-9.238 -20.937,-22.148 0,-12.969 7.839,-22.461 20.937,-22.461 13.156,0 20.969,9.336 20.969,22.285 0,12.969 -7.813,22.324 -20.969,22.324" /><path
         id="path50"
         style="fill:#000000;fill-opacity:1;fill-rule:evenodd;stroke:none"
         d="m 765.371,160.41 v -5.625 h -14.492 v -34.394 h -7.383 v 34.394 h -14.488 v 5.625 h 36.363" /><path
         id="path52"
         style="fill:#000000;fill-opacity:1;fill-rule:evenodd;stroke:none"
         d="m 779.238,143.023 18.93,17.387 h 9.391 l -16.844,-14.902 17.82,-25.117 h -8.789 l -14.258,20.449 -6.25,-5.313 v -15.136 h -7.363 v 40.019 h 7.363 v -17.387" /><path
         id="path54"
         style="fill:#000000;fill-opacity:1;fill-rule:evenodd;stroke:none"
         d="m 814.211,160.41 h 6.894 v -5.703 c 2.403,3.281 5.665,6.816 13.297,6.816 11.692,0 18.235,-8.593 18.235,-19.96 0,-9.532 -4.168,-22.325 -19.153,-22.325 -5.894,0 -9.812,2.578 -11.863,5.821 V 104.59 h -7.41 z m 7.41,-19.887 c 0,-8.726 3.719,-15.464 11.797,-15.464 4.668,0 11.641,2.91 11.641,13.535 0,6.601 -0.754,16.894 -11.407,16.894 -11.48,0 -12.031,-9.765 -12.031,-14.965" /><path
         id="path56"
         style="fill:#000000;fill-opacity:1;fill-rule:evenodd;stroke:none"
         d="m 868.449,144.273 h 10.481 c 11.258,0 16.715,-5.25 16.715,-12.3 0,-6.211 -4.637,-11.582 -16.504,-11.582 h -18.078 v 40.019 h 7.386 z m 0,-18.296 h 10.547 c 6.777,0 9.09,1.894 9.09,6.386 0,4.102 -3.106,6.348 -9.09,6.348 h -10.547 z m 42.207,-5.586 h -7.453 v 40.019 h 7.453 v -40.019" /><path
         id="path58"
         style="fill:#000000;fill-opacity:1;fill-rule:evenodd;stroke:none"
         d="m 952.891,160.41 v -5.625 h -14.473 v -34.394 h -7.41 v 34.394 h -14.473 v 5.625 h 36.356" /><path
         id="path60"
         style="fill:#000000;fill-opacity:1;fill-rule:evenodd;stroke:none"
         d="m 977.352,161.523 c 14.074,0 20.355,-10.8 20.355,-21.074 0,-10.293 -6.281,-21.211 -20.355,-21.211 -14.051,0 -20.356,10.918 -20.356,21.211 0,10.274 6.305,21.074 20.356,21.074 z m 0,-36.464 c 10.546,0 12.832,9.98 12.832,15.39 0,5.391 -2.286,15.254 -12.832,15.254 -10.516,0 -12.84,-9.863 -12.84,-15.254 0,-5.41 2.324,-15.39 12.84,-15.39" /><path
         id="path62"
         style="fill:#000000;fill-opacity:1;fill-rule:evenodd;stroke:none"
         d="m 1043.13,132.969 c -1.68,-6.231 -6.28,-13.731 -19.83,-13.731 -12.37,0 -19.57,8.496 -19.57,20.039 0,12.481 6.48,22.246 21.07,22.246 12.65,0 18.85,-9.199 18.85,-23.378 h -32.01 c 0,-8.243 4.21,-13.086 12.7,-13.086 6.91,0 11.34,4.921 11.34,7.91 z m -6.99,10.547 c -0.46,6.211 -3.35,11.972 -12.45,11.972 -6.74,0 -12.05,-5.761 -12.05,-11.972 h 24.5" /><path
         id="path64"
         style="fill:#000000;fill-opacity:1;fill-rule:evenodd;stroke:none"
         d="m 1075.1,148.184 c 0,9.629 7.28,13.339 18.14,13.339 3.5,0 16.33,-0.898 16.33,-11.191 V 127.48 c 0,-1.601 0.96,-2.5 2.42,-2.5 0.68,0 1.54,0.176 2.42,0.333 l 0.01,-4.922 c -1.28,-0.332 -2.36,-0.801 -4,-0.801 -6.59,0 -7.52,3.144 -7.8,6.172 -2.96,-2.774 -7.39,-6.524 -15.94,-6.524 -8.09,0 -13.72,4.629 -13.72,11.621 0,4.746 1.32,11.778 16.83,12.832 11.55,0.821 12.37,1.641 12.37,5.825 0,4.371 -3.25,6.402 -10.23,6.402 -8.42,0 -9.55,-4.668 -9.99,-7.734 z m 27.06,-7.344 c -1.14,-0.879 -2.96,-1.426 -12.16,-2.52 -3.64,-0.468 -9.45,-1.367 -9.45,-6.425 0,-4.415 2.57,-7.051 8.02,-7.051 6.96,0 13.59,4.023 13.59,9.414 v 6.582" /><path
         id="path66"
         style="fill:#000000;fill-opacity:1;fill-rule:evenodd;stroke:none"
         d="m 1129.46,143.023 18.89,17.387 h 9.37 l -16.78,-14.902 17.82,-25.117 h -8.88 l -14.15,20.449 -6.27,-5.313 v -15.136 h -7.42 v 40.019 h 7.42 v -17.387" /><path
         id="path68"
         style="fill:#000000;fill-opacity:1;fill-rule:evenodd;stroke:none"
         d="m 1171.85,125.977 h 20.6 v 34.433 h 7.39 v -34.433 h 4.84 v -17.325 h -6.7 v 11.739 h -33.59 v 40.019 h 7.46 v -34.433" /><path
         id="path70"
         style="fill:#000000;fill-opacity:1;fill-rule:evenodd;stroke:none"
         d="m 1219.36,130.469 h 0.21 l 21.55,29.941 h 7.73 v -40.019 h -7.38 v 29.941 h -0.17 l -21.55,-29.941 h -7.73 v 40.019 h 7.34 v -29.941" /><path
         id="path72"
         style="fill:#000000;fill-opacity:1;fill-rule:evenodd;stroke:none"
         d="m 1277.64,161.523 c 14.07,0 20.41,-10.8 20.41,-21.074 0,-10.293 -6.35,-21.211 -20.41,-21.211 -14.08,0 -20.41,10.918 -20.41,21.211 0,10.274 6.33,21.074 20.41,21.074 z m 0,-36.464 c 10.57,0 12.85,9.98 12.85,15.39 0,5.391 -2.28,15.254 -12.85,15.254 -10.59,0 -12.79,-9.863 -12.79,-15.254 0,-5.41 2.2,-15.39 12.79,-15.39" /><path
         id="path74"
         style="fill:#000000;fill-opacity:1;fill-rule:evenodd;stroke:none"
         d="m 1313.84,160.41 h -7.42 v -40.019 h 7.42 v 18.32 h 20.57 v -18.32 h 7.38 v 40.019 h -7.38 v -16.137 h -20.57 v 16.137" /><path
         id="path76"
         style="fill:#000000;fill-opacity:1;fill-rule:evenodd;stroke:none"
         d="m 1389.56,132.969 c -1.68,-6.231 -6.25,-13.731 -19.83,-13.731 -12.26,0 -19.53,8.496 -19.53,20.039 0.01,12.481 6.49,22.246 21.04,22.246 12.68,0 18.89,-9.199 18.89,-23.378 h -32.05 c 0,-8.243 4.28,-13.086 12.77,-13.086 6.88,0 11.33,4.921 11.33,7.91 z m -6.99,10.547 c -0.39,6.211 -3.32,11.972 -12.4,11.972 -6.74,0 -12.09,-5.761 -12.09,-11.972 h 24.49" /><path
         id="path78"
         style="fill:#000000;fill-opacity:1;fill-rule:evenodd;stroke:none"
         d="m 1398.55,160.41 h 6.91 v -5.703 c 2.42,3.281 5.63,6.816 13.32,6.816 11.62,0 18.22,-8.593 18.22,-19.96 0,-9.532 -4.16,-22.325 -19.18,-22.325 -5.87,0 -9.84,2.578 -11.87,5.821 V 104.59 h -7.4 z m 7.4,-19.887 c 0,-8.726 3.75,-15.464 11.81,-15.464 4.67,0 11.63,2.91 11.63,13.535 0,6.601 -0.73,16.894 -11.39,16.894 -11.46,0 -12.05,-9.765 -12.05,-14.965" /><path
         id="path80"
         style="fill:#000000;fill-opacity:1;fill-rule:evenodd;stroke:none"
         d="m 1452.8,144.273 h 20.57 v 16.137 h 7.38 v -40.019 h -7.38 v 18.32 h -20.57 v -18.32 h -7.42 v 40.019 h 7.42 v -16.137" /><path
         id="path82"
         style="fill:#000000;fill-opacity:1;fill-rule:evenodd;stroke:none"
         d="m 1509.54,161.523 c 14.07,0 20.37,-10.8 20.37,-21.074 0,-10.293 -6.31,-21.211 -20.37,-21.211 -14.04,0 -20.39,10.918 -20.39,21.211 0,10.274 6.35,21.074 20.39,21.074 z m 0,-36.464 c 10.57,0 12.81,9.98 12.81,15.39 0.01,5.391 -2.24,15.254 -12.81,15.254 -10.54,0 -12.83,-9.863 -12.83,-15.254 0,-5.41 2.29,-15.39 12.83,-15.39" /><path
         id="path84"
         style="fill:#000000;fill-opacity:1;fill-rule:evenodd;stroke:none"
         d="m 1575.29,132.969 c -1.65,-6.231 -6.24,-13.731 -19.79,-13.731 -12.36,0 -19.57,8.496 -19.57,20.039 0,12.481 6.45,22.246 21.07,22.246 12.62,0 18.85,-9.199 18.85,-23.378 h -32.05 c 0,-8.243 4.26,-13.086 12.73,-13.086 6.92,0 11.33,4.921 11.33,7.91 z m -7.04,10.547 c -0.39,6.211 -3.26,11.972 -12.36,11.972 -6.74,0 -12.09,-5.761 -12.09,-11.972 h 24.45" /><path
         id="path86"
         style="fill:#000000;fill-opacity:1;fill-rule:evenodd;stroke:none"
         d="m 1625.56,161.523 c 14.04,0 20.35,-10.8 20.35,-21.074 0,-10.293 -6.31,-21.211 -20.35,-21.211 -14.12,0 -20.43,10.918 -20.43,21.211 0,10.274 6.3,21.074 20.43,21.074 z m 0,-36.464 c 10.51,0 12.83,9.98 12.83,15.39 0,5.391 -2.32,15.254 -12.83,15.254 -10.61,0 -12.86,-9.863 -12.86,-15.254 0.01,-5.41 2.25,-15.39 12.86,-15.39" /><path
         id="path88"
         style="fill:#000000;fill-opacity:1;fill-rule:evenodd;stroke:none"
         d="m 1689.99,175.273 c -3.12,-7.441 -7.91,-8.222 -14.78,-9.003 -9.67,-1.192 -14.83,-5.704 -16.86,-14.258 3.56,4.508 9.44,7.617 15.43,7.617 12.31,0 18.97,-9.766 18.97,-19.824 0,-10.02 -6.31,-20.567 -21.04,-20.567 -11.33,0 -19.78,7.09 -19.78,25.489 0,14.082 6.95,24.746 20.68,26.601 7.83,1.094 9.47,1.641 10.68,3.945 z m -4.8,-35.468 c 0,4.277 -2.17,14.258 -12.83,14.258 -9.16,-0.004 -12.91,-8.223 -12.91,-14.258 0,-6.27 2.2,-14.746 12.91,-14.746 10.76,0 12.83,10.546 12.83,14.746" /><path
         id="path90"
         style="fill:#000000;fill-opacity:1;fill-rule:evenodd;stroke:none"
         d="m 1709.15,160.41 h -7.42 v -40.019 h 57.36 v -11.739 h 6.74 v 17.325 h -4.92 v 34.433 h -7.46 v -34.433 h -18.42 v 34.433 h -7.42 v -34.433 h -18.46 v 34.433" /><path
         id="path92"
         style="fill:#000000;fill-opacity:1;fill-rule:evenodd;stroke:none"
         d="m 1810.34,132.969 c -1.7,-6.231 -6.27,-13.731 -19.8,-13.731 -12.34,0 -19.56,8.496 -19.56,20.039 0.01,12.481 6.49,22.246 21.04,22.246 12.62,0 18.91,-9.199 18.91,-23.378 h -32.03 c 0,-8.243 4.21,-13.086 12.65,-13.086 6.96,0 11.35,4.921 11.35,7.91 z m -7.05,10.547 c -0.39,6.211 -3.28,11.972 -12.34,11.972 -6.74,0 -12.05,-5.761 -12.05,-11.972 h 24.39" /><path
         id="path94"
         style="fill:#000000;fill-opacity:1;fill-rule:evenodd;stroke:none"
         d="m 1847.28,146.934 c -0.92,5.39 -4.16,8.554 -10.37,8.554 -9.2,0 -12.09,-7.968 -12.09,-15.039 0,-6.914 1.81,-15.39 11.98,-15.39 4.99,0 9.21,3.339 10.48,9.472 h 7.13 c -0.71,-6.367 -4.98,-15.293 -17.86,-15.293 -12.34,0 -19.65,8.496 -19.65,20.039 0.01,12.325 6.6,22.246 21,22.246 11.58,0 15.94,-7.636 16.51,-14.589 h -7.13" /><path
         id="path96"
         style="fill:#000000;fill-opacity:1;fill-rule:evenodd;stroke:none"
         d="m 1858.04,160.41 v -5.625 h 14.51 v -34.394 h 7.42 v 34.394 h 14.47 v 5.625 h -36.4" /><path
         id="path98"
         style="fill:#000000;fill-opacity:1;fill-rule:evenodd;stroke:none"
         d="m 1900.89,160.41 h 19.96 c 9.75,0 14.45,-4.707 14.45,-10.234 0,-4.727 -3.57,-7.656 -7.42,-8.613 4.67,-0.958 9.98,-3.711 9.98,-10.547 0,-6.426 -5.66,-10.625 -16.11,-10.625 h -20.86 z m 7.46,-16.562 h 10.69 c 6.42,0 8.84,1.66 8.84,6.015 0,3.203 -2.17,4.922 -8.63,4.922 h -10.9 z m 0,-17.871 h 13.22 c 5.71,0 8.87,1.757 8.87,6.211 0,4.277 -3.64,6.347 -9.65,6.347 h -12.44 v -12.558" /><path
         id="path100"
         style="fill:#000000;fill-opacity:1;fill-rule:evenodd;stroke:none"
         d="m 1964.25,161.523 c 14.04,0 20.39,-10.8 20.39,-21.074 0,-10.293 -6.35,-21.211 -20.39,-21.211 -14.08,0 -20.39,10.918 -20.39,21.211 0,10.274 6.31,21.074 20.39,21.074 z m 0,-36.464 c 10.55,0 12.83,9.98 12.83,15.39 0,5.391 -2.28,15.254 -12.83,15.254 -10.59,0 -12.81,-9.863 -12.81,-15.254 0,-5.41 2.22,-15.39 12.81,-15.39" /><path
         id="path102"
         style="fill:#000000;fill-opacity:1;fill-rule:evenodd;stroke:none"
         d="m 2032.34,147.754 -8.85,-6.191 8.85,-6.211 v -6.743 l -13.23,9.457 v 6.954 l 13.23,9.472 z m 17.16,0 -8.79,-6.191 8.79,-6.211 v -6.743 l -13.22,9.457 v 6.954 l 13.22,9.472 v -6.738" /><path
         id="path104"
         style="fill:#000000;fill-opacity:1;fill-rule:evenodd;stroke:none"
         d="m 2072,120.391 h -8.16 v 54.882 h 27.25 c 11.11,0 17.84,-6.543 17.84,-15.39 0.01,-7.637 -4.84,-16.367 -17.84,-16.367 H 2072 Z m 0,29.472 h 16.23 c 7.31,0 12.29,2.539 12.29,9.942 0,6.855 -5.24,9.16 -11.93,9.16 H 2072 v -19.102" /><path
         id="path106"
         style="fill:#000000;fill-opacity:1;fill-rule:evenodd;stroke:none"
         d="m 2117.84,148.184 c 0,9.629 7.25,13.339 18.09,13.339 3.52,0 16.33,-0.898 16.33,-11.191 V 127.48 c 0,-1.601 0.95,-2.5 2.46,-2.5 0.62,0 1.6,0.176 2.38,0.333 v -4.922 c -1.25,-0.332 -2.32,-0.801 -3.96,-0.801 -6.59,0 -7.53,3.144 -7.84,6.172 -2.96,-2.774 -7.3,-6.524 -15.9,-6.524 -8.1,0 -13.72,4.629 -13.72,11.621 0,4.746 1.32,11.778 16.79,12.832 11.58,0.821 12.44,1.641 12.44,5.825 0,4.371 -3.28,6.402 -10.27,6.402 -8.42,0 -9.55,-4.668 -9.98,-7.734 z m 27.07,-7.344 c -1.21,-0.879 -3.03,-1.426 -12.2,-2.52 -3.67,-0.468 -9.44,-1.367 -9.44,-6.425 0,-4.415 2.52,-7.051 8.01,-7.051 6.95,0 13.63,4.023 13.63,9.414 v 6.582" /><path
         id="path108"
         style="fill:#000000;fill-opacity:1;fill-rule:evenodd;stroke:none"
         d="m 2192.75,146.934 c -0.96,5.39 -4.2,8.554 -10.41,8.554 -9.16,0 -12.09,-7.968 -12.09,-15.039 0,-6.914 1.81,-15.39 11.95,-15.39 4.98,0 9.26,3.339 10.54,9.472 h 7.14 c -0.75,-6.367 -4.99,-15.293 -17.9,-15.293 -12.3,0 -19.6,8.496 -19.6,20.039 0,12.325 6.56,22.246 21.03,22.246 11.54,0 15.89,-7.636 16.46,-14.589 h -7.12" /><path
         id="path110"
         style="fill:#000000;fill-opacity:1;fill-rule:evenodd;stroke:none"
         d="m 2242.59,160.41 v -40.019 h -7.42 v 34.394 h -20.57 v -34.394 h -7.42 v 40.019 h 35.41" /><path
         id="path112"
         style="fill:#000000;fill-opacity:1;fill-rule:evenodd;stroke:none"
         d="m 2253.1,148.184 c 0,9.629 7.26,13.339 18.14,13.339 3.5,0 16.33,-0.898 16.33,-11.191 V 127.48 c 0,-1.601 0.96,-2.5 2.46,-2.5 0.65,0 1.54,0.176 2.36,0.333 v -4.922 c -1.25,-0.332 -2.32,-0.801 -3.96,-0.801 -6.57,0 -7.52,3.144 -7.85,6.172 -2.91,-2.774 -7.35,-6.524 -15.9,-6.524 -8.09,0 -13.71,4.629 -13.71,11.621 0,4.746 1.34,11.778 16.78,12.832 11.58,0.821 12.4,1.641 12.4,5.825 0,4.371 -3.24,6.402 -10.22,6.402 -8.41,0 -9.57,-4.668 -9.98,-7.734 z m 27.05,-7.344 c -1.14,-0.879 -2.95,-1.426 -12.15,-2.52 -3.63,-0.468 -9.48,-1.367 -9.48,-6.425 0.01,-4.415 2.61,-7.051 8.05,-7.051 6.92,0 13.58,4.023 13.58,9.414 v 6.582" /><path
         id="path114"
         style="fill:#000000;fill-opacity:1;fill-rule:evenodd;stroke:none"
         d="m 2336.05,160.41 v -34.433 h 4.92 v -17.325 h -6.74 v 11.739 h -32.01 v -11.739 h -6.74 v 17.325 h 4.92 c 4.03,6.992 4.92,13.906 4.92,21.425 v 13.008 z m -7.37,-5.625 h -16.23 v -7.265 c 0,-8.497 -0.99,-14.903 -4.41,-21.543 h 20.64 v 28.808" /><path
         id="path116"
         style="fill:#000000;fill-opacity:1;fill-rule:evenodd;stroke:none"
         d="m 2375.87,146.934 c -0.92,5.39 -4.16,8.554 -10.45,8.554 -9.08,0 -12.01,-7.968 -12.01,-15.039 0,-6.914 1.82,-15.39 11.95,-15.39 4.98,0 9.26,3.339 10.51,9.472 h 7.17 c -0.82,-6.367 -5,-15.293 -17.93,-15.293 -12.31,0 -19.65,8.496 -19.65,20.039 0,12.325 6.6,22.246 21.07,22.246 11.59,0 15.9,-7.636 16.51,-14.589 h -7.17" /><path
         id="path118"
         style="fill:#000000;fill-opacity:1;fill-rule:evenodd;stroke:none"
         d="m 2397.77,143.023 18.84,17.387 h 9.42 l -16.82,-14.902 17.81,-25.117 h -8.82 l -14.24,20.449 -6.19,-5.313 v -15.136 h -7.47 v 40.019 h 7.47 v -17.387" /><path
         id="path120"
         style="fill:#000000;fill-opacity:1;fill-rule:evenodd;stroke:none"
         d="m 2432.41,148.184 c 0,9.629 7.27,13.339 18.15,13.339 3.53,0 16.33,-0.898 16.33,-11.191 V 127.48 c 0,-1.601 0.88,-2.5 2.41,-2.5 0.69,0 1.57,0.176 2.35,0.333 v -4.922 c -1.17,-0.332 -2.26,-0.801 -3.94,-0.801 -6.57,0 -7.5,3.144 -7.86,6.172 -2.89,-2.774 -7.26,-6.524 -15.81,-6.524 -8.09,0 -13.79,4.629 -13.79,11.621 0,4.746 1.34,11.778 16.81,12.832 11.58,0.821 12.4,1.641 12.4,5.825 0,4.371 -3.24,6.402 -10.23,6.402 -8.38,0 -9.55,-4.668 -9.98,-7.734 z m 27.05,-7.344 c -1.17,-0.879 -2.99,-1.426 -12.1,-2.52 -3.68,-0.468 -9.54,-1.367 -9.54,-6.425 0,-4.415 2.64,-7.051 8.11,-7.051 6.87,0 13.53,4.023 13.53,9.414 v 6.582" /><path
         id="path122"
         style="fill:#000000;fill-opacity:1;fill-rule:evenodd;stroke:none"
         d="m 2512.08,120.391 h -7.44 v 16.894 h -9.36 l -10.47,-16.894 h -8.38 l 10.91,17.109 c -4.09,0.703 -9.87,4.453 -9.87,11.25 0,7.559 5.96,11.66 15.86,11.66 h 18.75 z m -7.44,34.394 h -11.6 c -5.37,0 -8.23,-2.07 -8.23,-6.094 0,-4.179 2.85,-6.171 8.23,-6.171 h 11.6 v 12.265" /><path
         id="path124"
         style="fill:#000000;fill-opacity:1;fill-rule:evenodd;stroke:none"
         d="m 2538.86,145.02 v -6.954 l -13.22,-9.457 v 6.743 l 8.77,6.211 -8.77,6.191 v 6.738 z m 17.19,0 v -6.954 l -13.21,-9.457 v 6.743 l 8.81,6.211 -8.81,6.191 v 6.738 l 13.21,-9.472" /></g></g></svg>