<?xml version="1.0" encoding="utf-8"?>
<!-- Generator: Adobe Illustrator 26.0.3, SVG Export Plug-In . SVG Version: 6.00 Build 0)  -->
<svg version="1.0" id="Layer_1" xmlns="http://www.w3.org/2000/svg" xmlns:xlink="http://www.w3.org/1999/xlink" x="0px" y="0px"
	 viewBox="0 0 598 433.1" style="enable-background:new 0 0 598 433.1;" xml:space="preserve">
<style type="text/css">
	.st0{fill:#005DA2;}
	.st1{fill:url(#SVGID_1_);}
	.st2{fill:url(#SVGID_00000039094450534733917400000016833758788558194049_);}
	.st3{fill:url(#SVGID_00000002367313686020570050000002617170287310597031_);}
</style>
<path class="st0" d="M193.9,298.3h-11.4L159,242.2h16.4l13.2,35.7h0.2l13-35.7h15.4L193.9,298.3z"/>
<path class="st0" d="M304.3,256.7c-2.2-1.3-4.6-1.9-7.1-2c-3.3,0-6.4,1.2-10.2,4.4V298h-15.9v-55.8h13.4l1.8,5.8
	c5.1-4.5,9.4-7.1,15.3-7.1c3,0,6,0.9,8.5,2.6L304.3,256.7z"/>
<path class="st0" d="M327.7,299.2c-9.5,0-16.7-2.2-22-5.6l5-11.5c4.5,3.3,10,5.1,15.6,5.2c5.4,0,8.9-1.8,8.9-5.1
	c0-8.9-25.8-5.3-25.8-24.2c0-10.3,8.2-17.1,21.8-17.1c7.4,0,12.6,1.1,17.2,2.8v13.2c-5.1-2-10.5-3.8-16.5-3.8c-4.6,0-7.1,1.3-7.1,4
	c0,7.7,26.3,4.8,26.3,24.3C351,294.3,339.6,299.2,327.7,299.2z"/>
<path class="st0" d="M375.7,299.2c-10.4,0-14.3-5.9-14.3-13.4v-29.5h-10.2v-12.5h10.2v-14.4l15.9-4.7v19.1h17.5l-3.1,12.5h-14.3
	v23.5c0,4.1,1.7,6.1,5.3,6.1c3.2-0.1,6.3-1.1,9.1-2.8l4.1,9.9C389.5,297.5,381.3,299.2,375.7,299.2z"/>
<path class="st0" d="M433,298l-2.5-4.8c-4.3,4-9.9,6.1-15.8,6c-10.6,0-18.6-7.1-18.6-18.2c0-11.8,9.5-17.9,23.7-18.4l9.4-0.4v-0.9
	c0-5.9-4.7-8.4-10.2-8.4c-5,0-9.9,1.3-14.3,3.8l-4.8-9.7c7.6-5,15-6.1,22.5-6.1c14.9,0,23.1,6,23.1,20.8V298L433,298z M429.2,272.8
	l-7,0.2c-6.8,0.2-10.1,2.6-10.1,6.8s3.1,7,8.5,7c3.1,0.1,6.1-0.8,8.6-2.6L429.2,272.8L429.2,272.8z"/>
<polygon class="st0" points="468.6,298 468.6,255.5 468.6,208.4 452.6,213.3 452.6,255.5 452.6,298 "/>
<path class="st0" d="M78,299.2c-11.2,0-19.2-3.7-26-7.8l7.1-13.3c5.4,3.6,13,7.7,18,7.7c5.1,0,11.8-1.7,11.8-7.6
	c0-10.2-18.4-12.1-27.8-22.8c-3.3-3.8-5.1-8.7-4.9-13.8c0-11.8,9.3-22.2,26.4-22.2c6.8-0.1,13.5,1.5,19.5,4.7l-0.2,14.9
	c-6.6-3.5-12.9-6.6-19.2-6.6c-5.8,0-9.6,2.6-9.6,7c0,13.4,33.4,12.3,33.4,36.7C106.4,290.3,93.9,299.2,78,299.2z"/>
<path class="st0" d="M230.1,274.5c0.4,7.5,7.4,12,14.8,12c5.4,0,9.5-1.1,15.8-4l3.6,10.1c-6.6,4.2-14.2,6.4-22,6.5
	c-20,0-28.2-14.1-28.2-28.6c0-15.8,9.4-29.4,26.1-29.4c15.3,0,25.8,11.4,25.8,28.6v4.8L230.1,274.5z M239.8,252.6
	c-6.3,0-10,5.9-10,10.9h20.1C249.5,258.2,246.6,252.6,239.8,252.6z"/>
<path class="st0" d="M126.2,274.5c0.4,7.5,7.4,12,14.8,12c5.4,0,9.5-1.1,15.8-4l3.6,10.1c-6.6,4.2-14.2,6.4-22,6.5
	c-20,0-28.2-14.1-28.2-28.6c0-15.8,9.4-29.4,26.1-29.4c15.2,0,25.8,11.4,25.8,28.6v4.8L126.2,274.5z M135.8,252.6
	c-6.3,0-10,5.9-10,10.9h20.1C145.6,258.2,142.6,252.6,135.8,252.6z"/>
<linearGradient id="SVGID_1_" gradientUnits="userSpaceOnUse" x1="-742.3345" y1="491.273" x2="-659.0645" y2="491.273" gradientTransform="matrix(0.96 -0.27 0.27 0.96 1046.77 -506.12)">
	<stop  offset="0" style="stop-color:#E21F26"/>
	<stop  offset="0.34" style="stop-color:#E01E25"/>
	<stop  offset="0.46" style="stop-color:#D91D23"/>
	<stop  offset="0.55" style="stop-color:#CE191F"/>
	<stop  offset="0.62" style="stop-color:#BD1419"/>
	<stop  offset="0.68" style="stop-color:#A70E11"/>
	<stop  offset="0.74" style="stop-color:#8C0708"/>
	<stop  offset="0.77" style="stop-color:#740000"/>
</linearGradient>
<path class="st1" d="M483.7,143.7c-4.2,1.9-8.2,4.2-11.9,6.8c-3.4,2.5-6.6,5.6-7.5,9s0.4,7.6,2.2,11.5c2,4.1,4.4,8,7.1,11.7
	c-0.1-1.1-0.1-2.3,0.2-3.4c0.7-3.3,3.5-6.3,6.6-8.7c2.5-1.9,5.1-3.5,7.8-5c5.6-2.9,11.5-5.2,17.6-6.9l0,0c6.1-1.7,12.3-2.8,18.6-3.2
	c0.1-3.1,0-6.2-0.4-9.3c-0.5-3.8-1.7-7.8-4.2-10.1c-0.9-0.8-1.8-1.4-2.9-1.8c-5.7,0.7-11.3,1.8-16.9,3.4l0,0
	C494.4,139.4,489,141.3,483.7,143.7"/>
<linearGradient id="SVGID_00000042730772386747605990000001695779160590563773_" gradientUnits="userSpaceOnUse" x1="-668.0989" y1="481.1364" x2="-710.2689" y2="552.7864" gradientTransform="matrix(0.96 -0.27 0.27 0.96 1046.77 -506.12)">
	<stop  offset="0" style="stop-color:#007DC4"/>
	<stop  offset="0.16" style="stop-color:#007BC1"/>
	<stop  offset="0.29" style="stop-color:#0074B6"/>
	<stop  offset="0.41" style="stop-color:#0069A5"/>
	<stop  offset="0.52" style="stop-color:#00598C"/>
	<stop  offset="0.63" style="stop-color:#00456D"/>
	<stop  offset="0.74" style="stop-color:#002C46"/>
	<stop  offset="0.85" style="stop-color:#000F19"/>
	<stop  offset="0.9" style="stop-color:#000002"/>
</linearGradient>
<path style="fill:url(#SVGID_00000042730772386747605990000001695779160590563773_);" d="M545.7,162.7c0.4-4.6,0.4-9.1,0-13.7
	c-0.4-4.2-1.5-8.5-4-11c-2.5-2.5-6.8-3.5-11-3.9c-4.6-0.4-9.2-0.3-13.7,0.3c1.1,0.5,2,1.1,2.9,1.8c2.5,2.3,3.7,6.2,4.2,10.1
	c0.4,3.1,0.5,6.2,0.4,9.3c-0.3,6.3-1.2,12.6-2.9,18.7l0,0c-1.5,6.2-3.7,12.1-6.6,17.8c2.6,1.6,5.4,3.1,8.2,4.2
	c3.6,1.5,7.6,2.4,10.8,1.4c1.1-0.4,2.1-0.9,3.1-1.6C541.6,185.5,544.5,174.2,545.7,162.7"/>
<linearGradient id="SVGID_00000085969118365609348080000008891053565815627692_" gradientUnits="userSpaceOnUse" x1="-729.681" y1="501.4059" x2="-693.411" y2="553.2258" gradientTransform="matrix(0.96 -0.27 0.27 0.96 1046.77 -506.12)">
	<stop  offset="0" style="stop-color:#595959"/>
	<stop  offset="0.11" style="stop-color:#737373"/>
	<stop  offset="0.29" style="stop-color:#979797"/>
	<stop  offset="0.47" style="stop-color:#B4B4B4"/>
	<stop  offset="0.65" style="stop-color:#C8C8C8"/>
	<stop  offset="0.83" style="stop-color:#D5D5D5"/>
	<stop  offset="1" style="stop-color:#D9D9D9"/>
</linearGradient>
<path style="fill:url(#SVGID_00000085969118365609348080000008891053565815627692_);" d="M498.1,206.9c-4.7-3.4-9.1-7.1-13.1-11.1
	c-4.1-4-8-8.4-11.4-13c-0.1-1.1-0.1-2.3,0.1-3.4c0.7-3.3,3.5-6.3,6.6-8.7c2.5-1.9,5.1-3.5,7.8-5c3.5,5.3,7.5,10.1,12.1,14.5l0,0
	c4.5,4.5,9.4,8.4,14.8,11.8c2.6,1.6,5.4,3.1,8.2,4.2c3.6,1.5,7.6,2.4,10.8,1.4c1.1-0.4,2.1-0.9,3.1-1.6c-1.8,4.2-4,8.2-6.6,12
	c-2.4,3.5-5.5,6.8-8.9,7.7c-3.4,1-7.7-0.3-11.6-2C505.8,212,501.8,209.7,498.1,206.9"/>
</svg>
