<?xml version="1.0" standalone="no"?>
<!DOCTYPE svg PUBLIC "-//W3C//DTD SVG 20010904//EN"
 "http://www.w3.org/TR/2001/REC-SVG-20010904/DTD/svg10.dtd">
<svg version="1.0" xmlns="http://www.w3.org/2000/svg"
 width="512.000000pt" height="512.000000pt" viewBox="0 0 512.000000 512.000000"
 preserveAspectRatio="xMidYMid meet">

<g transform="translate(0.000000,512.000000) scale(0.100000,-0.100000)"
fill="#000000" stroke="none">
<path d="M0 2560 l0 -2560 2560 0 2560 0 0 2560 0 2560 -2560 0 -2560 0 0
-2560z m1430 1810 l0 -150 -265 0 -265 0 0 -150 0 -150 118 0 c178 0 284 -35
378 -126 97 -95 138 -201 132 -344 -3 -81 -8 -105 -35 -163 -65 -138 -198
-236 -348 -257 -38 -5 -177 -10 -307 -10 l-238 0 0 149 0 150 263 3 c230 3
266 5 295 21 100 55 95 208 -8 259 -31 16 -67 18 -292 18 l-258 0 0 450 0 450
415 0 415 0 0 -150z m992 107 c126 -62 218 -180 247 -315 7 -33 11 -180 11
-390 0 -367 -6 -421 -57 -513 -46 -86 -148 -173 -238 -206 -250 -90 -522 53
-591 312 -10 37 -14 142 -14 411 0 332 2 367 20 425 45 147 153 255 305 305
25 9 77 13 141 11 94 -2 106 -5 176 -40z m2098 -107 l0 -150 -150 0 -150 0 0
150 0 150 150 0 150 0 0 -150z m0 -600 l0 -150 -150 0 -150 0 0 150 0 150 150
0 150 0 0 -150z m0 -600 l0 -150 -150 0 -150 0 0 150 0 150 150 0 150 0 0
-150z m-2110 -860 l0 -150 -273 0 c-267 0 -275 -1 -318 -23 -24 -13 -57 -43
-74 -66 -26 -37 -30 -51 -30 -110 0 -57 4 -74 28 -110 34 -51 110 -91 175 -91
118 0 251 -56 340 -143 281 -274 145 -751 -240 -842 -47 -11 -131 -15 -335
-15 l-273 0 0 150 0 150 269 0 269 0 53 28 c43 22 59 38 82 82 25 47 28 63 24
108 -7 64 -37 115 -88 149 -30 20 -59 28 -126 34 -148 15 -245 59 -339 153
-227 228 -177 606 103 776 100 61 152 69 471 69 l282 1 0 -150z m620 -386 c0
-33 2 -36 23 -30 12 4 56 9 97 13 222 17 423 -135 469 -355 7 -33 11 -189 11
-422 l0 -370 -150 0 -150 0 0 368 c0 361 -1 368 -23 406 -58 102 -211 98 -261
-8 -14 -29 -16 -83 -16 -400 l0 -366 -150 0 -150 0 0 600 0 600 150 0 150 0 0
-36z"/>
<path d="M2149 4197 c-68 -45 -69 -53 -69 -428 0 -332 0 -336 23 -369 35 -52
70 -73 120 -73 51 0 100 25 131 66 20 27 21 41 24 370 2 318 1 344 -16 377
-42 78 -142 105 -213 57z"/>
</g>
</svg>
