<svg width="154" height="154" viewBox="0 0 154 154" fill="none" xmlns="http://www.w3.org/2000/svg">
<path d="M141.43 51.4825C127.275 20.0235 104.5 -3.93834 92.975 0.539458C73.4055 8.13736 104.632 44.6292 8.53488 81.9458C0.234769 85.1684 -1.86931 98.069 1.60412 105.781C5.07039 113.492 16.4256 121.168 24.7293 117.946C26.1648 117.389 31.4402 115.768 31.4402 115.768C37.3681 123.368 43.573 118.861 45.7736 123.691C48.4176 129.494 54.1703 142.109 56.1224 146.401C58.0817 150.689 62.5151 154.661 65.7346 153.493C68.9435 152.325 79.875 148.351 84.0582 146.831C88.2377 145.311 89.2352 141.752 87.9588 138.943C86.5806 135.917 80.9298 135.029 79.3209 131.497C77.7084 127.965 72.4419 116.646 70.9278 113.079C68.8684 108.227 73.2428 104.28 79.598 103.648C123.337 99.2934 131.513 125.1 146.405 119.314C157.928 114.836 155.581 82.9432 141.43 51.4825ZM136.503 102.518C133.943 103.512 116.729 90.5411 105.728 66.084C94.7305 41.632 96.1124 19.2772 98.6687 18.285C101.225 17.2911 118.015 32.9377 129.014 57.3897C140.012 81.8417 139.063 101.524 136.503 102.518Z" fill="#212121"/>
</svg>
