<svg width="50" height="50" viewBox="0 0 50 50" fill="none" xmlns="http://www.w3.org/2000/svg">
<path d="M0 24C0 12.686 -3.32677e-06 7.02326 3.51395 3.51395C7.0279 0.00465105 12.686 0 24 0H26C37.314 0 42.9767 0 46.486 3.51395C49.9954 7.02791 50 12.686 50 24V26C50 37.314 50 42.9767 46.486 46.486C42.9721 49.9953 37.314 50 26 50H24C12.686 50 7.02325 50 3.51395 46.486C0.00464772 42.9721 0 37.314 0 26V24Z" fill="url(#paint0_linear_78_7)"/>
<path fill-rule="evenodd" clip-rule="evenodd" d="M10.2999 24.4186C18.2952 20.9349 23.627 18.638 26.2952 17.5279C33.9138 14.3581 35.4952 13.8069 36.5278 13.7907C36.9069 13.7817 37.279 13.8932 37.5906 14.1093C37.8085 14.2994 37.9478 14.5639 37.9813 14.8511C38.0368 15.2088 38.0524 15.5715 38.0278 15.9325C37.6138 20.2697 35.8278 30.7953 34.9185 35.6511C34.5348 37.7069 33.779 38.3976 33.0441 38.4651C31.4511 38.6116 30.2417 37.4116 28.6999 36.4C26.2859 34.8186 24.9208 33.8418 22.579 32.2883C19.8697 30.5046 21.6255 29.5232 23.1697 27.9209C23.5743 27.5 30.5906 21.1162 30.7278 20.5372C30.7454 20.4521 30.743 20.3642 30.7208 20.2803C30.6986 20.1963 30.6572 20.1187 30.5999 20.0535C30.5166 19.9997 30.4216 19.9666 30.3229 19.9569C30.2242 19.9471 30.1246 19.9611 30.0324 19.9976C29.7906 20.0535 25.934 22.6023 18.4627 27.6442C17.3666 28.3976 16.3751 28.7643 15.4883 28.7442C14.5069 28.7232 12.6231 28.1907 11.2231 27.7348C9.50687 27.1767 8.14175 26.8814 8.26036 25.9325C8.32082 25.4364 9.00066 24.9317 10.2999 24.4186Z" fill="white"/>
<defs>
<linearGradient id="paint0_linear_78_7" x1="0" y1="25" x2="50" y2="25" gradientUnits="userSpaceOnUse">
<stop stop-color="#2AABEE"/>
<stop offset="1" stop-color="#229ED9"/>
</linearGradient>
</defs>
</svg>
