<svg width="50" height="50" viewBox="0 0 50 50" fill="none" xmlns="http://www.w3.org/2000/svg">
<path d="M0 24C0 12.686 -3.32677e-06 7.02325 3.51395 3.51395C7.0279 0.00464772 12.686 0 24 0H26C37.314 0 42.9767 -3.32677e-06 46.486 3.51395C49.9954 7.0279 50 12.686 50 24V26C50 37.314 50 42.9767 46.486 46.486C42.9721 49.9954 37.314 50 26 50H24C12.686 50 7.02325 50 3.51395 46.486C0.00464772 42.9721 0 37.314 0 26V24Z" fill="#1DA1F2"/>
<path d="M20.2325 36.9767C30.7837 36.9767 36.5558 28.2349 36.5558 20.6511C36.5558 20.4046 36.5558 20.1558 36.5395 19.9116C37.6621 19.099 38.6314 18.0934 39.4023 16.9418C38.3549 17.405 37.2442 17.7091 36.1069 17.8442C37.304 17.1262 38.1997 15.9983 38.6279 14.6697C37.5025 15.3394 36.2707 15.8114 34.986 16.0651C34.1201 15.1495 32.9771 14.5443 31.7332 14.3426C30.4893 14.1409 29.2136 14.354 28.1028 14.9491C26.9921 15.5441 26.1079 16.4881 25.5866 17.6354C25.0654 18.7827 24.9361 20.0696 25.2186 21.2976C22.9371 21.1839 20.7052 20.5914 18.6678 19.5584C16.6304 18.5255 14.8332 17.0754 13.393 15.3023C12.6595 16.5657 12.4349 18.0611 12.765 19.4842C13.0951 20.9073 13.955 22.1512 15.1697 22.9628C14.2565 22.935 13.3633 22.6886 12.5651 22.2442V22.3256C12.5651 23.6503 13.0234 24.9343 13.8623 25.9597C14.7011 26.985 15.8689 27.6886 17.1674 27.9511C16.3226 28.1809 15.4364 28.2143 14.5767 28.0488C14.9431 29.1867 15.6553 30.182 16.6141 30.896C17.5728 31.6101 18.7304 32.0073 19.9255 32.0325C17.892 33.6321 15.3779 34.4983 12.7907 34.4907C12.3344 34.4903 11.8786 34.4631 11.4255 34.4093C14.0534 36.0938 17.1111 36.9852 20.2325 36.9767Z" fill="white"/>
</svg>
