<svg width="50" height="50" viewBox="0 0 50 50" fill="none" xmlns="http://www.w3.org/2000/svg">
<path d="M0 24C0 12.686 0 7.02326 3.51395 3.51395C7.02791 0.00465105 12.686 0 24 0H26C37.314 0 42.9767 0 46.486 3.51395C49.9953 7.02791 50 12.686 50 24V26C50 37.314 50 42.9767 46.486 46.486C42.9721 49.9953 37.314 50 26 50H24C12.686 50 7.02326 50 3.51395 46.486C0.00465105 42.9721 0 37.314 0 26V24Z" fill="#0077FF"/>
<path d="M26.0466 35.1163C15.3815 35.1163 9.30244 27.8046 9.04663 15.6395H14.3955C14.5699 24.5698 18.5094 28.3512 21.628 29.1279V15.6395H26.6583V23.3419C29.7373 23.0093 32.9745 19.5 34.0652 15.6395H39.0955C38.2583 20.3977 34.749 23.907 32.2536 25.3488C34.749 26.5116 38.7443 29.5791 40.2652 35.1163H34.7187C33.5304 31.3953 30.5676 28.5349 26.649 28.1395V35.1163H26.0466Z" fill="white"/>
</svg>
