<svg width="50" height="50" viewBox="0 0 50 50" fill="none" xmlns="http://www.w3.org/2000/svg">
<path d="M0 24C0 12.686 -3.32677e-06 7.02326 3.51395 3.51395C7.0279 0.00465105 12.686 0 24 0H26C37.314 0 42.9767 0 46.486 3.51395C49.9954 7.02791 50 12.686 50 24V26C50 37.314 50 42.9767 46.486 46.486C42.9721 49.9953 37.314 50 26 50H24C12.686 50 7.02325 50 3.51395 46.486C0.00464772 42.9721 0 37.314 0 26V24Z" fill="#25D366"/>
<path d="M11.528 38.6907L13.4582 31.6395C11.9631 29.0446 11.3658 26.0289 11.759 23.06C12.1522 20.0911 13.5139 17.3349 15.6329 15.2186C17.7519 13.1024 20.51 11.7443 23.4794 11.355C26.4488 10.9657 29.4637 11.5669 32.0566 13.0654C34.6496 14.5639 36.6758 16.8759 37.821 19.6431C38.9662 22.4103 39.1665 25.478 38.3909 28.3707C37.6152 31.2633 35.907 33.8192 33.5309 35.6422C31.1548 37.4652 28.2437 38.4533 25.2489 38.4535C22.9778 38.4539 20.743 37.8846 18.7489 36.7977L11.528 38.6907ZM19.0698 34.3349L19.4838 34.5791C21.226 35.6119 23.2142 36.1565 25.2396 36.1558C27.7462 36.1553 30.1816 35.322 32.163 33.7867C34.1445 32.2514 35.5595 30.1012 36.1859 27.674C36.8122 25.2469 36.6142 22.6805 35.6231 20.3781C34.632 18.0757 32.904 16.168 30.7105 14.9547C28.5171 13.7414 25.9827 13.2913 23.5056 13.6753C21.0286 14.0592 18.7493 15.2554 17.0261 17.0757C15.3029 18.8961 14.2335 21.2375 13.9859 23.7319C13.7382 26.2262 14.3265 28.7322 15.6582 30.8558L15.928 31.2837L14.7861 35.4581L19.0698 34.3349Z" fill="white"/>
<path fill-rule="evenodd" clip-rule="evenodd" d="M32.0931 28.0837C32.0093 27.9419 31.7814 27.8512 31.4419 27.686C31.1024 27.5209 29.4303 26.693 29.1163 26.5814C28.8024 26.4698 28.5791 26.4093 28.3512 26.7512C28.1233 27.093 27.4745 27.8558 27.2745 28.0837C27.0745 28.3116 26.8791 28.3395 26.5396 28.1698C25.5375 27.7687 24.6123 27.1975 23.8047 26.4814C23.0615 25.7939 22.4243 25 21.914 24.1256C21.7163 23.786 21.8931 23.6023 22.0628 23.4279C22.2326 23.2535 22.4024 23.0302 22.5721 22.8326C22.7118 22.6606 22.8261 22.4695 22.9117 22.2651C22.9573 22.1715 22.9787 22.0679 22.9738 21.9639C22.9689 21.8598 22.938 21.7587 22.8838 21.6698C22.8 21.5 22.1186 19.8256 21.8372 19.1442C21.5559 18.4628 21.2791 18.5721 21.0721 18.5605C20.8651 18.5488 20.6465 18.5605 20.4186 18.5605C20.2508 18.5673 20.086 18.6079 19.9342 18.6799C19.7824 18.7518 19.6466 18.8535 19.5349 18.9791C19.1504 19.3434 18.8459 19.7839 18.6409 20.2724C18.436 20.7608 18.3349 21.2866 18.3442 21.8163C18.3442 23.4884 19.5628 25.1047 19.7396 25.3326C19.9163 25.5605 22.1372 28.993 25.5535 30.4651C26.1866 30.7389 26.834 30.978 27.4931 31.1814C28.1858 31.3935 28.9187 31.4397 29.6326 31.3163C30.2861 31.2186 31.6442 30.4954 31.9279 29.6884C32.2117 28.8814 32.1884 28.2256 32.0931 28.0837Z" fill="white"/>
</svg>
