<?xml version="1.0" standalone="no"?>
<!DOCTYPE svg PUBLIC "-//W3C//DTD SVG 20010904//EN"
 "http://www.w3.org/TR/2001/REC-SVG-20010904/DTD/svg10.dtd">
<svg version="1.0" xmlns="http://www.w3.org/2000/svg"
 width="512.000000pt" height="512.000000pt" viewBox="0 0 512.000000 512.000000"
 preserveAspectRatio="xMidYMid meet">
<metadata>
Created by potrace 1.16, written by Peter Selinger 2001-2019
</metadata>
<g transform="translate(0.000000,512.000000) scale(0.100000,-0.100000)"
fill="#000000" stroke="none">
<path d="M0 2560 l0 -2560 2560 0 2560 0 0 2560 0 2560 -2560 0 -2560 0 0
-2560z m1051 1950 c134 -25 260 -126 321 -257 27 -57 33 -83 36 -158 5 -120
-22 -203 -102 -310 -6 -8 0 -24 17 -47 14 -18 39 -61 54 -93 25 -54 28 -71 28
-170 0 -106 -1 -113 -36 -185 -58 -121 -151 -201 -278 -240 -54 -17 -93 -20
-277 -20 l-214 0 0 145 0 145 203 0 c172 0 207 3 237 18 108 54 108 216 0 273
-30 17 -59 19 -237 19 l-203 0 0 145 0 145 203 0 c172 0 207 3 237 18 108 54
108 216 0 273 -30 17 -59 19 -237 19 l-203 0 0 145 0 145 199 0 c109 0 223 -5
252 -10z m1121 -1 c159 -34 290 -153 339 -310 17 -55 19 -96 19 -424 0 -396
-4 -426 -63 -527 -32 -54 -121 -139 -175 -167 -91 -46 -207 -62 -301 -40 -168
38 -308 185 -341 358 -13 70 -13 682 0 752 33 171 161 307 333 354 65 17 120
18 189 4z m2338 -134 l0 -145 -145 0 -145 0 0 145 0 145 145 0 145 0 0 -145z
m0 -600 l0 -145 -145 0 -145 0 0 145 0 145 145 0 145 0 0 -145z m0 -600 l0
-145 -145 0 -145 0 0 145 0 145 145 0 145 0 0 -145z m-1960 -764 l0 -149 -414
-599 -414 -598 414 -3 414 -2 0 -150 0 -150 -595 0 -595 0 0 143 0 143 419
605 418 604 -418 3 -419 2 0 150 0 150 595 0 595 0 0 -149z m610 -491 c0 -39
1 -40 28 -33 15 5 74 8 132 8 97 0 110 -2 173 -32 138 -66 236 -198 257 -348
5 -38 10 -224 10 -412 l0 -343 -145 0 -144 0 -3 373 c-3 351 -4 374 -23 405
-30 50 -73 72 -139 72 -52 0 -60 -3 -99 -39 l-42 -40 -3 -385 -3 -386 -144 0
-145 0 0 600 0 600 145 0 145 0 0 -40z"/>
<path d="M2025 4216 c-37 -16 -70 -52 -84 -89 -7 -18 -11 -148 -11 -354 0
-306 1 -329 20 -368 53 -110 217 -113 272 -4 16 30 18 70 18 374 0 389 0 392
-80 433 -50 25 -91 27 -135 8z"/>
</g>
</svg>
