<?xml version="1.0" standalone="no"?>
<!DOCTYPE svg PUBLIC "-//W3C//DTD SVG 20010904//EN"
 "http://www.w3.org/TR/2001/REC-SVG-20010904/DTD/svg10.dtd">
<svg version="1.0" xmlns="http://www.w3.org/2000/svg"
 width="1210.000000pt" height="1293.000000pt" viewBox="0 0 1210.000000 1293.000000"
 preserveAspectRatio="xMidYMid meet">

<g transform="translate(0.000000,1293.000000) scale(0.100000,-0.100000)"
fill="#000000" stroke="none">
<path d="M287 12336 c-55 -20 -103 -61 -134 -114 l-28 -47 0 -5745 0 -5745 28
-47 c31 -53 79 -94 134 -114 32 -11 1004 -13 5748 -14 3904 0 5722 3 5747 10
53 15 119 68 148 120 l25 45 0 5745 0 5745 -28 47 c-31 53 -79 94 -134 114
-56 20 -11450 20 -11506 0z m11518 -40 c54 -24 94 -70 113 -125 9 -26 12
-1421 12 -5745 l0 -5711 -21 -45 c-27 -60 -45 -79 -104 -106 l-50 -24 -5711 0
c-4324 0 -5719 3 -5745 12 -54 18 -96 56 -124 111 l-25 51 0 5711 c0 4244 3
5721 11 5746 19 56 59 100 113 125 l51 24 5715 0 5715 0 50 -24z"/>
<path d="M535 11927 c-3 -6 -4 -2485 -2 -5507 l2 -5495 5505 0 5505 0 0 5505
0 5505 -5503 2 c-4358 2 -5504 0 -5507 -10z m8868 -257 l1877 0 0 -5240 0
-5240 -5240 0 -5240 0 0 388 c-1 359 0 9162 0 9804 l0 288 178 2 c97 2 1610 2
3362 1 1752 -2 4030 -3 5063 -3z"/>
<path d="M1493 11226 c-130 -42 -229 -151 -249 -274 l-7 -42 111 0 111 0 16
29 c63 122 255 97 255 -33 0 -80 -46 -122 -170 -153 l-35 -9 0 -94 0 -95 59
-7 c117 -15 199 -78 212 -164 15 -100 -41 -183 -138 -204 -114 -26 -203 34
-232 153 l-6 27 -115 0 -115 0 0 -27 c0 -40 23 -121 48 -168 66 -129 200 -205
362 -205 134 0 256 53 335 145 51 60 68 93 85 164 36 153 -34 304 -175 374
l-49 24 30 16 c44 23 109 98 125 143 20 59 16 160 -9 216 -27 61 -103 137
-167 168 -62 29 -214 38 -282 16z"/>
<path d="M2443 11226 c-132 -43 -220 -142 -263 -297 -60 -218 -48 -578 24
-734 78 -166 213 -244 404 -232 184 11 302 121 357 332 27 104 39 303 26 439
-20 204 -57 305 -148 400 -69 72 -135 99 -258 103 -66 2 -114 -2 -142 -11z
m202 -225 c43 -25 83 -96 101 -181 21 -98 15 -386 -10 -473 -31 -110 -87 -167
-166 -167 -89 0 -150 67 -177 193 -21 101 -14 429 11 505 40 125 143 178 241
123z"/>
<path d="M2220 8305 l0 -565 995 0 c615 0 995 -4 995 -9 0 -6 -4 -12 -9 -16
-8 -4 -264 -335 -346 -446 -11 -15 -184 -240 -384 -500 -201 -261 -444 -577
-540 -702 -97 -126 -225 -293 -285 -370 -60 -78 -159 -207 -220 -287 -60 -80
-168 -219 -238 -310 -120 -154 -128 -168 -128 -210 -1 -25 -1 -236 -2 -470
l-1 -425 2024 0 2024 0 3 573 2 572 -1080 0 c-594 0 -1080 2 -1080 5 0 3 57
83 128 176 70 94 126 175 125 180 -2 5 3 9 10 10 6 0 121 145 253 322 233 310
509 677 733 972 59 77 113 150 121 161 14 21 247 329 567 751 l153 202 0 475
0 476 -1910 -1 -1910 0 0 -564z"/>
<path d="M8830 7694 c-335 -40 -535 -128 -716 -315 -39 -41 -93 -108 -120
-150 -81 -126 -74 -118 -73 -89 1 14 1 127 0 253 l-1 227 -660 0 -660 0 3
-1812 2 -1813 710 0 710 0 5 1185 c6 1315 2 1230 73 1363 71 135 238 203 398
163 107 -27 171 -89 202 -194 8 -25 13 -433 17 -1277 l5 -1240 710 0 710 0 0
1285 c0 1375 -3 1454 -50 1664 -44 193 -98 298 -220 422 -162 164 -369 268
-618 310 -90 15 -358 26 -427 18z"/>
<path d="M5768 3419 c-33 -19 -15 -69 24 -69 15 0 38 27 38 44 0 7 -31 36 -38
36 -4 0 -15 -5 -24 -11z"/>
<path d="M5427 3403 c-4 -3 -7 -15 -7 -25 0 -16 10 -18 95 -18 52 0 95 -2 95
-4 0 -3 -45 -102 -100 -221 -55 -118 -100 -220 -100 -225 0 -6 54 -10 135 -10
l135 0 0 25 c0 24 -1 24 -100 27 l-100 3 96 205 c53 113 100 215 105 228 l9
22 -129 0 c-70 0 -131 -3 -134 -7z"/>
<path d="M6054 3278 c-18 -4 -46 -21 -63 -37 l-31 -29 0 28 c0 28 -14 41 -37
33 -10 -4 -13 -50 -13 -189 l0 -184 24 0 c24 0 24 0 28 128 3 116 5 130 26
157 42 54 98 69 152 42 37 -19 49 -68 49 -204 1 -115 2 -123 20 -123 27 0 37
86 24 213 -9 90 -13 101 -40 129 -34 34 -91 49 -139 36z"/>
<path d="M5764 3267 c-2 -7 -3 -91 -2 -187 3 -173 3 -175 26 -178 l22 -3 0
188 c0 183 -1 189 -21 190 -11 1 -22 -4 -25 -10z"/>
<path d="M6435 3264 c-111 -57 -147 -189 -79 -287 68 -95 204 -113 302 -40 17
13 32 30 32 37 0 24 -30 27 -53 5 -30 -29 -60 -39 -115 -39 -56 0 -104 26
-133 72 -27 44 -22 121 11 166 49 66 166 79 229 26 31 -26 46 -30 56 -14 11
18 -14 48 -58 69 -53 26 -148 28 -192 5z"/>
<path d="M4589 2197 c-102 -155 -196 -303 -208 -330 -51 -114 -52 -211 -1
-314 92 -186 336 -228 499 -86 62 54 90 106 101 186 21 148 -48 282 -175 338
-50 22 -127 30 -173 17 -18 -5 -35 -8 -37 -6 -2 2 57 95 131 208 74 112 134
208 134 212 0 7 -70 58 -80 58 -3 0 -89 -127 -191 -283z m154 -286 c40 -16 99
-73 118 -116 20 -44 25 -129 9 -170 -31 -81 -125 -145 -212 -145 -155 1 -263
182 -192 321 19 38 73 89 109 105 35 15 133 18 168 5z"/>
<path d="M6541 2460 c-23 -11 -60 -33 -80 -50 -40 -31 -101 -134 -101 -169 0
-18 6 -21 49 -21 48 0 49 1 74 47 13 27 41 61 61 78 32 25 48 30 107 33 51 3
81 0 107 -12 64 -29 107 -113 92 -180 -18 -80 -83 -130 -184 -142 l-56 -7 0
-48 0 -47 64 -7 c139 -15 226 -91 234 -205 11 -155 -110 -264 -275 -247 -97
10 -162 64 -197 163 -13 38 -14 39 -65 40 l-52 1 7 -31 c27 -132 118 -230 246
-262 151 -39 313 22 393 147 29 45 55 130 55 180 0 93 -59 194 -147 249 l-44
28 42 33 c60 47 93 124 86 198 -9 103 -66 178 -171 227 -67 31 -180 33 -245 4z"/>
<path d="M7380 2467 c-20 -6 -59 -28 -88 -47 -42 -28 -59 -48 -85 -99 -41 -84
-43 -148 -5 -213 27 -45 90 -108 108 -108 23 0 7 -20 -34 -44 -140 -82 -189
-245 -117 -390 65 -133 192 -197 362 -183 128 11 235 84 287 195 32 72 35 177
5 243 -23 50 -90 121 -140 147 l-33 17 47 35 c65 48 96 107 97 184 1 106 -57
196 -164 251 -44 23 -189 30 -240 12z m198 -101 c36 -19 78 -65 91 -99 42
-110 -57 -237 -184 -237 -100 0 -184 66 -201 158 -13 69 31 147 101 178 40 18
159 18 193 0z m20 -462 c118 -59 161 -176 108 -291 -85 -181 -384 -175 -460 9
-36 85 -10 176 69 246 55 49 87 60 171 61 46 1 72 -5 112 -25z"/>
<path d="M5310 2452 c0 -4 -18 -107 -41 -227 -22 -121 -43 -234 -46 -252 l-5
-32 78 25 c185 59 333 10 379 -125 59 -172 -68 -361 -242 -361 -83 0 -183 69
-205 141 l-11 39 -54 0 -55 0 7 -32 c19 -88 88 -174 173 -215 49 -24 69 -28
142 -28 111 0 171 21 243 85 65 59 103 129 117 218 27 168 -57 329 -199 383
-48 18 -69 20 -154 16 l-97 -6 6 25 c4 14 16 75 28 137 l21 112 188 3 188 2
-3 48 -3 47 -227 3 c-126 1 -228 -1 -228 -6z"/>
<path d="M6055 1560 c-61 -24 -77 -99 -30 -145 54 -55 145 -15 145 63 0 59
-62 103 -115 82z"/>
</g>
</svg>
